<?xml version="1.0" encoding="UTF-8"?><svg id="Capa_2" xmlns="http://www.w3.org/2000/svg" viewBox="0 0 316.89 101.43"><defs><style>.cls-1{fill:#fff;}</style></defs><g id="Layer_1"><path class="cls-1" d="M179.23,6.66c12.04,0,21.83,9.79,21.83,21.83s-9.79,21.83-21.83,21.83-21.83-9.79-21.83-21.83,9.79-21.83,21.83-21.83M179.23,0c-15.74,0-28.5,12.76-28.5,28.5s12.76,28.5,28.5,28.5,28.5-12.76,28.5-28.5S194.97,0,179.23,0h0Z"/><path class="cls-1" d="M215.62,6.66c12.04,0,21.83,9.79,21.83,21.83s-9.79,21.83-21.83,21.83-21.83-9.79-21.83-21.83,9.79-21.83,21.83-21.83M215.62,0c-15.74,0-28.5,12.76-28.5,28.5s12.76,28.5,28.5,28.5,28.5-12.76,28.5-28.5S231.36,0,215.62,0h0Z"/><path class="cls-1" d="M252.01,6.66c12.04,0,21.83,9.79,21.83,21.83s-9.79,21.83-21.83,21.83-21.83-9.79-21.83-21.83,9.79-21.83,21.83-21.83M252.01,0c-15.74,0-28.5,12.76-28.5,28.5s12.76,28.5,28.5,28.5,28.5-12.76,28.5-28.5S267.74,0,252.01,0h0Z"/><path class="cls-1" d="M288.39,6.66c12.04,0,21.83,9.79,21.83,21.83s-9.79,21.83-21.83,21.83-21.83-9.79-21.83-21.83,9.79-21.83,21.83-21.83M288.39,0c-15.74,0-28.5,12.76-28.5,28.5s12.76,28.5,28.5,28.5,28.5-12.76,28.5-28.5S304.13,0,288.39,0h0Z"/><path class="cls-1" d="M271.37,77.4l-1.5-2.87h-7.92l-1.48,2.87h-3.43l7.29-13.88h3.22l7.29,13.88h-3.47ZM267.02,68.67c-.18-.37-.37-.73-.55-1.08s-.36-.72-.54-1.09c-.18.37-.37.73-.55,1.1s-.36.73-.55,1.09l-1.72,3.44h5.64l-1.73-3.45Z"/><path class="cls-1" d="M285.53,77.4l-.21-1.07c-.22.2-.48.39-.77.55-.29.16-.61.31-.96.43-.34.12-.71.22-1.09.29-.38.07-.77.11-1.17.12-.42,0-.84-.03-1.24-.08-.4-.05-.79-.14-1.14-.27s-.69-.3-.99-.51-.56-.48-.78-.8c-.22-.32-.39-.7-.51-1.15-.12-.44-.18-.96-.18-1.54v-5.79h3.01v5.41c0,.41.05.77.15,1.08s.25.56.46.76c.21.2.47.35.8.45.32.1.71.15,1.17.15.31,0,.6-.02.87-.05.27-.04.54-.09.79-.16.25-.07.49-.15.73-.26.23-.1.47-.22.7-.36v-7.02h3.01v9.83h-2.63Z"/><path class="cls-1" d="M301.02,77.4l-.21-1.11c-.23.21-.5.41-.8.58-.31.18-.64.32-.99.45-.36.12-.73.22-1.13.29s-.8.1-1.21.1c-.88,0-1.66-.12-2.35-.36s-1.28-.59-1.76-1.04c-.48-.45-.85-1-1.1-1.65s-.38-1.38-.38-2.19.13-1.53.39-2.18c.26-.64.64-1.19,1.13-1.64.5-.45,1.11-.79,1.83-1.03.72-.24,1.55-.36,2.48-.36.37,0,.72.02,1.07.07.35.04.69.11,1.01.19.32.08.62.18.9.3.28.12.53.25.76.4v-4.7h3.01v13.88h-2.63ZM300.64,70.34c-.25-.13-.5-.24-.75-.34-.25-.1-.51-.17-.78-.24-.27-.06-.56-.11-.86-.14-.3-.03-.63-.05-.99-.05-.51,0-.96.06-1.35.19-.39.13-.71.32-.98.56-.26.25-.46.55-.6.91-.13.36-.2.77-.2,1.23s.07.87.2,1.23.33.66.6.9.59.43.98.56c.39.13.84.19,1.35.19.36,0,.68-.01.99-.04.3-.03.59-.08.86-.14.27-.06.53-.14.78-.24.25-.1.5-.21.75-.35v-4.24Z"/><path class="cls-1" d="M307.41,66.13v-2.61h3.01v2.61h-3.01ZM307.41,77.4v-9.83h3.01v9.83h-3.01Z"/><path class="cls-1" d="M157.4,101.12v-13.81h6.66c1,0,1.84.08,2.54.25s1.26.41,1.7.74.76.72.95,1.2c.2.48.3,1.03.3,1.65,0,.35-.04.67-.13.95s-.21.54-.38.76c-.16.23-.37.43-.61.6-.24.17-.51.32-.81.45.44.14.83.32,1.18.52.35.21.64.44.88.71s.42.57.55.91c.13.33.19.7.19,1.1,0,.38-.04.74-.13,1.08-.09.34-.22.66-.41.95s-.44.56-.74.8c-.3.24-.67.44-1.11.61s-.94.3-1.52.39-1.23.14-1.97.14h-7.15ZM163.79,93.03c.44,0,.83-.04,1.16-.13.33-.08.6-.2.82-.36.22-.16.38-.35.49-.57.11-.22.16-.47.16-.74s-.05-.51-.16-.73c-.11-.22-.27-.4-.49-.55s-.49-.27-.82-.35-.72-.12-1.16-.12h-3.34v3.55h3.34ZM164.51,98.95c.51,0,.94-.04,1.29-.13.35-.08.64-.21.86-.37s.38-.36.48-.59c.1-.23.15-.5.15-.8s-.05-.57-.15-.81c-.1-.24-.26-.44-.48-.61-.22-.17-.51-.29-.86-.38-.35-.09-.79-.13-1.29-.13h-4.06v3.81h4.06Z"/><path class="cls-1" d="M182.28,101.12l-.2-1.07c-.22.2-.48.38-.77.55-.29.16-.61.3-.95.42-.34.12-.7.21-1.08.28-.38.07-.77.11-1.16.12-.42,0-.83-.03-1.24-.08-.4-.05-.78-.14-1.14-.27s-.69-.3-.99-.51-.56-.48-.78-.8c-.22-.32-.38-.7-.51-1.14-.12-.44-.18-.95-.18-1.53v-5.76h2.99v5.38c0,.41.05.77.14,1.07s.25.56.45.76c.21.2.47.35.79.45.32.1.71.15,1.16.15.3,0,.59-.02.87-.05.27-.04.53-.09.78-.16.25-.07.49-.15.72-.26.23-.1.46-.22.69-.35v-6.98h2.99v9.78h-2.62Z"/><path class="cls-1" d="M198.92,100.49c-.28.14-.61.27-.99.38-.38.11-.78.21-1.2.29-.43.08-.87.14-1.33.18-.46.04-.91.06-1.36.06-.7,0-1.34-.06-1.92-.18-.58-.12-1.1-.28-1.56-.5-.46-.22-.87-.48-1.21-.78-.34-.31-.63-.65-.86-1.03-.23-.38-.4-.79-.51-1.23-.11-.44-.17-.91-.17-1.4,0-.46.05-.91.16-1.35.1-.44.26-.85.48-1.24.21-.39.48-.74.81-1.07s.71-.61,1.15-.84.95-.42,1.51-.55c.56-.13,1.19-.2,1.88-.2s1.33.06,1.9.18c.57.12,1.08.29,1.52.51s.83.48,1.15.78c.32.31.59.65.81,1.02s.37.78.47,1.21c.1.43.15.89.15,1.36,0,.09,0,.18,0,.26,0,.08,0,.16-.01.24,0,.08-.01.15-.02.22s-.02.13-.03.2h-8.91c.04.33.13.63.29.89.15.26.37.49.66.67.29.18.64.33,1.07.43.43.1.94.15,1.53.15.43,0,.85-.02,1.28-.06.42-.04.83-.09,1.22-.16.39-.07.76-.15,1.1-.25.35-.09.66-.2.94-.31v2.14ZM196.73,95.15c-.07-.34-.19-.64-.36-.89-.17-.25-.38-.46-.63-.62-.25-.16-.54-.29-.87-.37-.33-.08-.69-.12-1.07-.12s-.74.04-1.07.12-.61.2-.86.37c-.25.16-.46.37-.63.62s-.29.55-.36.89h5.85Z"/><path class="cls-1" d="M211.39,101.12v-5.38c0-.41-.05-.77-.14-1.07-.1-.3-.25-.55-.45-.75-.21-.2-.47-.35-.79-.45s-.71-.15-1.16-.15c-.36,0-.69.02-1,.07-.31.04-.6.1-.87.18-.27.07-.52.16-.76.26s-.46.2-.67.31v6.98h-2.99v-9.78h2.62l.21,1.12c.25-.22.52-.42.82-.6.3-.18.62-.33.97-.45.34-.12.71-.22,1.1-.28.39-.07.79-.1,1.21-.1s.86.03,1.27.08c.41.05.8.14,1.17.27.36.13.7.3,1,.51s.57.48.78.8c.22.32.39.7.51,1.14.12.44.18.95.18,1.53v5.76h-2.99Z"/><path class="cls-1" d="M223.56,101.43c-.71,0-1.36-.05-1.95-.16-.6-.1-1.14-.26-1.62-.46-.48-.2-.91-.45-1.28-.75-.37-.3-.68-.64-.93-1.02-.25-.39-.44-.82-.57-1.29-.13-.47-.19-.98-.19-1.53s.06-1.02.19-1.48c.13-.46.32-.88.57-1.27.25-.38.56-.73.93-1.03.37-.3.8-.56,1.28-.77s1.03-.37,1.62-.48c.6-.11,1.25-.17,1.95-.17s1.36.05,1.96.16c.6.1,1.14.26,1.63.46.49.2.91.45,1.28.75.37.3.68.64.92,1.02.25.39.44.81.56,1.29.13.47.19.98.19,1.53s-.06,1.02-.19,1.48c-.13.46-.32.88-.57,1.27-.25.38-.56.73-.93,1.03s-.8.56-1.28.77-1.03.37-1.62.48c-.6.11-1.25.17-1.95.17ZM223.56,99.23c.52,0,1-.07,1.42-.21.43-.14.79-.34,1.1-.59.3-.26.54-.57.71-.94.17-.37.25-.79.25-1.25s-.08-.88-.25-1.25c-.17-.37-.4-.69-.71-.95-.3-.26-.67-.46-1.1-.6-.43-.14-.9-.21-1.42-.21s-.99.07-1.42.21c-.43.14-.79.34-1.1.6-.3.26-.54.57-.71.94s-.25.79-.25,1.25.08.88.25,1.25.4.69.71.95c.3.26.67.46,1.1.6.43.14.9.21,1.42.21Z"/><path class="cls-1" d="M232.35,98.45c.15.06.32.12.53.18.21.06.43.12.67.17.24.05.5.11.77.15.27.05.54.09.81.12.27.03.54.06.81.08.27.02.52.03.76.03.44,0,.84-.01,1.19-.04.35-.03.65-.08.89-.14.25-.07.43-.16.56-.27s.19-.25.19-.41c0-.15-.05-.27-.16-.37-.11-.1-.28-.19-.51-.26s-.52-.14-.87-.2-.77-.12-1.25-.19c-.7-.1-1.32-.22-1.87-.38-.54-.16-1-.36-1.37-.61-.37-.25-.65-.55-.85-.9-.19-.35-.29-.76-.29-1.24,0-.51.11-.95.32-1.34.21-.39.54-.71.98-.98.44-.27,1-.47,1.68-.6.68-.14,1.49-.2,2.43-.2.25,0,.51,0,.78.03.27.02.54.05.81.08.27.04.53.08.79.13s.5.1.73.16c.23.06.43.12.61.19s.34.14.46.21v2.14c-.15-.07-.32-.13-.52-.19s-.42-.12-.65-.17c-.23-.06-.48-.11-.74-.15-.26-.05-.52-.09-.78-.12s-.52-.06-.77-.08c-.25-.02-.49-.03-.72-.03-.36,0-.69.01-.99.04-.3.03-.55.08-.76.14-.21.07-.37.15-.49.26s-.17.24-.17.4c0,.15.06.27.17.37.11.1.28.18.51.26.23.07.52.14.88.2s.77.12,1.25.19c.71.1,1.34.23,1.88.38s.99.35,1.36.59c.37.24.64.54.83.89.19.35.28.77.28,1.27s-.13.94-.38,1.33-.62.73-1.12,1c-.49.27-1.1.48-1.83.63-.73.15-1.56.22-2.51.22-.44,0-.87-.02-1.31-.07-.44-.05-.85-.11-1.23-.18-.39-.07-.74-.16-1.05-.26-.31-.1-.56-.19-.75-.29v-2.15Z"/><path class="cls-1" d="M264.25,101.12l-1.49-2.86h-7.87l-1.47,2.86h-3.41l7.25-13.81h3.2l7.25,13.81h-3.45ZM259.92,92.44c-.18-.36-.37-.72-.55-1.08s-.36-.71-.54-1.08c-.18.37-.36.73-.54,1.09s-.36.72-.54,1.08l-1.71,3.42h5.61l-1.72-3.44Z"/><path class="cls-1" d="M269.6,89.91v-2.6h2.99v2.6h-2.99ZM269.6,101.12v-9.78h2.99v9.78h-2.99Z"/><path class="cls-1" d="M276.34,101.12v-9.78h2.73l.12,1.79c.16-.3.34-.58.56-.83.21-.25.46-.47.75-.65.28-.18.6-.33.96-.43.36-.1.76-.15,1.2-.15.24,0,.49.01.74.04.25.03.48.07.67.13v2.59c-.11-.02-.23-.04-.36-.06-.13-.02-.27-.03-.42-.05s-.29-.02-.44-.03c-.15,0-.29,0-.42,0-.27,0-.52.02-.75.05-.23.03-.45.08-.65.14s-.39.13-.56.21c-.17.08-.33.17-.47.26-.14.1-.27.2-.38.31-.11.11-.2.22-.28.34v6.14h-2.99Z"/><path class="cls-1" d="M296.63,100.49c-.28.14-.61.27-.99.38-.38.11-.78.21-1.2.29-.43.08-.87.14-1.33.18-.46.04-.91.06-1.36.06-.7,0-1.34-.06-1.92-.18-.58-.12-1.1-.28-1.56-.5-.46-.22-.87-.48-1.21-.78-.34-.31-.63-.65-.86-1.03-.23-.38-.4-.79-.51-1.23-.11-.44-.17-.91-.17-1.4,0-.46.05-.91.16-1.35.1-.44.26-.85.48-1.24.21-.39.48-.74.81-1.07s.71-.61,1.15-.84.95-.42,1.51-.55c.56-.13,1.19-.2,1.88-.2s1.33.06,1.9.18c.57.12,1.08.29,1.52.51s.83.48,1.15.78c.32.31.59.65.81,1.02s.37.78.47,1.21c.1.43.15.89.15,1.36,0,.09,0,.18,0,.26,0,.08,0,.16-.01.24,0,.08-.01.15-.02.22s-.02.13-.03.2h-8.91c.04.33.13.63.29.89.15.26.37.49.66.67.29.18.64.33,1.07.43.43.1.94.15,1.53.15.43,0,.85-.02,1.28-.06.42-.04.83-.09,1.22-.16.39-.07.76-.15,1.1-.25.35-.09.66-.2.94-.31v2.14ZM294.44,95.15c-.07-.34-.19-.64-.36-.89-.17-.25-.38-.46-.63-.62-.25-.16-.54-.29-.87-.37-.33-.08-.69-.12-1.07-.12s-.74.04-1.07.12-.61.2-.86.37c-.25.16-.46.37-.63.62s-.29.55-.36.89h5.85Z"/><path class="cls-1" d="M299.61,98.45c.15.06.32.12.53.18.21.06.43.12.67.17.24.05.5.11.77.15.27.05.54.09.81.12.27.03.54.06.81.08.27.02.52.03.76.03.44,0,.84-.01,1.19-.04.35-.03.65-.08.89-.14.25-.07.43-.16.56-.27s.19-.25.19-.41c0-.15-.05-.27-.16-.37-.11-.1-.28-.19-.51-.26s-.52-.14-.87-.2-.77-.12-1.25-.19c-.7-.1-1.32-.22-1.87-.38-.54-.16-1-.36-1.37-.61-.37-.25-.65-.55-.85-.9-.19-.35-.29-.76-.29-1.24,0-.51.11-.95.32-1.34.21-.39.54-.71.98-.98.44-.27,1-.47,1.68-.6.68-.14,1.49-.2,2.43-.2.25,0,.51,0,.78.03.27.02.54.05.81.08.27.04.53.08.79.13s.5.1.73.16c.23.06.43.12.61.19s.34.14.46.21v2.14c-.15-.07-.32-.13-.52-.19s-.42-.12-.65-.17c-.23-.06-.48-.11-.74-.15-.26-.05-.52-.09-.78-.12s-.52-.06-.77-.08c-.25-.02-.49-.03-.72-.03-.36,0-.69.01-.99.04-.3.03-.55.08-.76.14-.21.07-.37.15-.49.26s-.17.24-.17.4c0,.15.06.27.17.37.11.1.28.18.51.26.23.07.52.14.88.2s.77.12,1.25.19c.71.1,1.34.23,1.88.38s.99.35,1.36.59c.37.24.64.54.83.89.19.35.28.77.28,1.27s-.13.94-.38,1.33-.62.73-1.12,1c-.49.27-1.1.48-1.83.63-.73.15-1.56.22-2.51.22-.44,0-.87-.02-1.31-.07-.44-.05-.85-.11-1.23-.18-.39-.07-.74-.16-1.05-.26-.31-.1-.56-.19-.75-.29v-2.15Z"/><path class="cls-1" d="M2.35,19.26h5.44c.9,0,1.74.12,2.5.35.76.24,1.43.58,1.99,1.04.56.46.99,1.03,1.29,1.71.3.68.46,1.47.46,2.37s-.17,1.73-.5,2.43c-.33.7-.79,1.28-1.37,1.74-.58.46-1.27.81-2.06,1.04-.79.24-1.66.35-2.6.35h-3.03v7.5h-2.12v-18.53ZM4.47,28.56h2.12c.76,0,1.47-.06,2.12-.18s1.2-.32,1.65-.6c.45-.28.8-.67,1.06-1.16.25-.49.38-1.11.38-1.85s-.13-1.33-.4-1.82c-.26-.49-.61-.88-1.03-1.18-.42-.29-.91-.5-1.46-.62-.55-.12-1.11-.18-1.68-.18h-2.77v7.59Z"/><path class="cls-1" d="M25.65,19.03c1.18,0,2.28.2,3.31.59,1.03.39,1.92.99,2.66,1.78.75.79,1.33,1.79,1.77,2.97.43,1.19.65,2.57.65,4.16s-.22,2.92-.66,4.1c-.44,1.19-1.04,2.18-1.81,2.99-.77.8-1.67,1.41-2.71,1.82-1.04.41-2.15.62-3.32.62s-2.28-.2-3.31-.6c-1.03-.4-1.92-1-2.66-1.79-.75-.79-1.33-1.78-1.77-2.97-.43-1.19-.65-2.57-.65-4.16s.22-2.91.66-4.09c.44-1.18,1.04-2.17,1.81-2.97.77-.8,1.66-1.41,2.69-1.82,1.03-.41,2.14-.62,3.34-.62ZM19.42,28.53c0,1.33.17,2.49.5,3.47.33.98.78,1.79,1.35,2.44.57.65,1.23,1.13,1.99,1.44.75.31,1.55.47,2.4.47s1.63-.16,2.37-.47c.74-.31,1.38-.79,1.94-1.44s1-1.46,1.32-2.44c.32-.98.49-2.14.49-3.47s-.17-2.53-.5-3.52c-.33-.99-.78-1.8-1.35-2.43-.57-.63-1.23-1.09-1.99-1.4-.76-.3-1.55-.46-2.4-.46s-1.63.16-2.37.47c-.74.31-1.38.79-1.94,1.44s-1,1.46-1.32,2.44c-.32.98-.49,2.13-.49,3.44Z"/><path class="cls-1" d="M38.69,19.26l3.12,10.91c.22.73.43,1.55.65,2.47.22.92.4,1.79.56,2.62h.06c.16-.82.35-1.69.59-2.6s.46-1.74.68-2.49l3.21-10.91h1.94l3.3,10.91c.22.75.44,1.57.66,2.47.23.9.44,1.78.63,2.62h.06c.16-.86.34-1.75.56-2.65.22-.9.43-1.72.65-2.44l3-10.91h2.15l-5.32,18.53h-2.15l-3.21-11.12c-.22-.82-.44-1.63-.68-2.41-.24-.78-.44-1.55-.62-2.29h-.06c-.16.67-.32,1.32-.5,1.97-.18.65-.35,1.29-.53,1.94l-3.32,11.92h-2.12l-5.47-18.53h2.18Z"/><path class="cls-1" d="M63.81,19.26h10.89v1.74h-8.77v6.35h8v1.74h-8v6.97h8.86v1.74h-10.97v-18.53Z"/><path class="cls-1" d="M79.08,19.26h5.71c.96,0,1.81.13,2.54.4.74.26,1.35.63,1.84,1.1.49.47.86,1.03,1.12,1.69.25.66.38,1.38.38,2.16,0,.71-.11,1.35-.32,1.93-.22.58-.51,1.08-.87,1.52-.36.43-.78.79-1.25,1.09s-.96.53-1.47.71l5.03,7.94h-2.41l-4.59-7.56h-3.74v7.56h-1.97v-18.53ZM81.05,28.53h2.82c.65,0,1.25-.07,1.81-.22.56-.15,1.04-.38,1.46-.69.41-.31.74-.71.97-1.19.24-.48.35-1.05.35-1.72,0-1.29-.37-2.24-1.1-2.84-.74-.6-1.82-.9-3.25-.9h-3.06v7.56Z"/><path class="cls-1" d="M107.44,19.26c1.84,0,3.28.4,4.31,1.19,1.03.79,1.54,1.96,1.54,3.49,0,1.14-.32,2.03-.96,2.66-.64.64-1.44,1.08-2.4,1.34.55.1,1.06.27,1.53.51.47.25.88.56,1.24.96.35.39.63.86.84,1.4.21.54.31,1.14.31,1.81,0,.77-.16,1.47-.49,2.1-.32.64-.78,1.18-1.37,1.63-.59.45-1.29.8-2.12,1.06-.82.26-1.73.38-2.71.38h-4.71v-18.53h4.97ZM104.59,27.21h2.24c.55,0,1.08-.05,1.6-.15.52-.1.98-.26,1.38-.5.4-.24.72-.55.96-.96.24-.4.35-.91.35-1.52,0-1.1-.38-1.89-1.13-2.38-.76-.49-1.74-.74-2.96-.74h-2.44v6.24ZM104.59,36.09h2.29c.65,0,1.26-.06,1.82-.19.57-.13,1.07-.34,1.5-.63.43-.29.77-.68,1.03-1.16.25-.48.38-1.06.38-1.75s-.14-1.22-.41-1.66c-.27-.44-.64-.79-1.1-1.06-.46-.26-.99-.46-1.59-.57-.6-.12-1.21-.18-1.84-.18h-2.09v7.21Z"/><path class="cls-1" d="M118.8,19.26l4.94,8.77,4.97-8.77h2.35l-6.33,10.77v7.77h-2.12v-7.77l-6.21-10.77h2.38Z"/></g></svg>