<?xml version="1.0" encoding="UTF-8"?><svg id="Capa_2" xmlns="http://www.w3.org/2000/svg" viewBox="0 0 387.39 173.05"><defs><style>.cls-1{fill:#fff;}.cls-2{fill:#f05a28;}</style></defs><g id="Layer_1"><path class="cls-1" d="M49.84,92.83c-.99,2.98-2.38,5.36-4.15,7.13-1.78,1.77-4.08,2.66-6.92,2.66s-5.15-.89-6.92-2.66c-1.78-1.77-3.16-4.15-4.15-7.13L.21,7.03C-.21,5.75,0,4.61.85,3.62c.85-.99,2.13-1.49,3.83-1.49h13.41c2.69,0,4.54,1.56,5.54,4.69l13.17,43.23c.72,1.99,1.38,2.98,1.97,2.98s1.24-.99,1.97-2.98L53.9,6.82c.99-3.13,2.84-4.69,5.53-4.69h13.4c1.7,0,2.98.5,3.83,1.49.85.99,1.06,2.13.64,3.41l-27.46,85.8Z"/><path class="cls-1" d="M216.86,100.49h-48.06c-6.25,0-9.37-3.12-9.37-9.37V6.81c0-3.12,1.56-4.68,4.68-4.68h13.41c3.12,0,4.68,1.56,4.68,4.68v72.17c0,1.56.78,2.34,2.34,2.34h32.31c3.12,0,4.68,1.56,4.68,4.68v9.79c0,3.12-1.56,4.68-4.68,4.68Z"/><path class="cls-1" d="M265.38,102.62c-11.21,0-20.4-3.51-27.57-10.54-7.17-7.03-10.75-15.36-10.75-25.02v-31.51c0-9.79,3.55-18.17,10.65-25.12,7.1-6.95,16.32-10.43,27.68-10.43s20.4,3.51,27.57,10.54c7.17,7.03,10.75,15.37,10.75,25.02v31.51c0,9.79-3.55,18.17-10.65,25.12-7.1,6.96-16.32,10.43-27.68,10.43ZM280.92,35.55c0-3.97-1.42-7.52-4.26-10.65-2.84-3.12-6.6-4.68-11.28-4.68s-8.45,1.56-11.28,4.68c-2.84,3.12-4.26,6.67-4.26,10.65v31.51c0,3.98,1.42,7.52,4.26,10.65,2.84,3.12,6.6,4.68,11.28,4.68s8.44-1.56,11.28-4.68c2.84-3.12,4.26-6.67,4.26-10.65v-31.51Z"/><path class="cls-1" d="M384.25,8.13c.42-.71.64-1.35.64-1.92,0-2.7-1.28-4.05-3.85-4.05h-14.95c-2.85,0-5.12,1.56-6.83,4.68l-10.45,19.84c-.91,1.72-1.63,2.63-2.18,2.76l12.7,22.11,24.57-42.87-24.57,42.87,24.99,43.5-24.99-43.5-12.57,21.93c.53.24,1.21,1.14,2.05,2.72l10.45,19.83c1.57,3.12,4.06,4.68,7.47,4.68h14.31c2.56,0,3.85-1.28,3.85-3.84,0-.71-.22-1.42-.64-2.13l-23.46-41.59c-.57-1.14-.57-2.27,0-3.41l23.46-41.6Z"/><path class="cls-2" d="M346.63,29.43s-.09.03-.14.03c-.56,0-1.33-.93-2.31-2.79l-10.46-19.84c-.71-1.27-1.67-2.37-2.89-3.3-1.21-.92-2.52-1.38-3.95-1.38h-14.73c-2.7,0-4.06,1.28-4.06,3.84,0,.72.22,1.43.64,2.13l23.46,41.6c.57,1.14.57,2.28,0,3.41l-23.46,41.59c-.43.72-.64,1.36-.64,1.92,0,2.7,1.35,4.05,4.06,4.05h14.1c3.42,0,5.91-1.56,7.47-4.68l10.46-19.83c.98-1.86,1.75-2.78,2.31-2.78.08,0,.18.03.27.07l12.57-21.93-12.7-22.11Z"/><path class="cls-1" d="M110.61,21.34h31.21c3.12,0,4.68-1.56,4.68-4.68V6.88c0-3.12-1.56-4.68-4.68-4.68h-51.63c-3.12,0-4.68,1.56-4.68,4.68v88.91c0,3.12,1.56,4.68,4.68,4.68h51.63c3.12,0,4.68-1.56,4.68-4.68v-9.78c0-3.12-1.56-4.68-4.68-4.68h-31.21c-1.56,0-2.34-.78-2.34-2.34v-18.2h22.63c3.12,0,4.68-1.56,4.68-4.68v-9.78c0-3.12-1.56-4.68-4.68-4.68h-22.63v-17.95c0-1.56.78-2.34,2.34-2.34Z"/><path class="cls-1" d="M44.51,137.77v6.5c0,3.13-3.21,5.64-7.23,5.64h-7.18v13.78h-2.51v-31.32h9.69c4.02,0,7.23,2.27,7.23,5.4ZM42,144.27v-6.5c0-2.08-2.06-3.45-4.72-3.45h-7.18v13.63h7.18c2.66,0,4.72-1.61,4.72-3.68Z"/><path class="cls-1" d="M57.16,132.13h2.66c4.02,0,7.23,2.51,7.23,5.64v20.67c0,3.13-3.21,5.64-7.23,5.64h-2.66c-4.02,0-7.23-2.51-7.23-5.64v-20.67c0-3.13,3.21-5.64,7.23-5.64ZM57.16,162.12h2.66c2.66,0,4.72-1.61,4.72-3.68v-20.67c0-2.08-2.06-3.68-4.72-3.68h-2.66c-2.66,0-4.72,1.61-4.72,3.68v20.67c0,2.08,2.06,3.68,4.72,3.68Z"/><path class="cls-1" d="M75.93,158.44c0,2.08,2.06,3.68,4.72,3.68h2.46c2.66,0,4.72-1.61,4.72-3.68v-3.01c0-4.86-3.92-6.54-7.98-8.38-3.46-1.64-6.33-3.76-6.33-7.13v-2.15c0-3.13,3.21-5.64,7.23-5.64h2.41c4.02,0,7.23,2.51,7.23,5.64h-2.51c0-2.08-2.06-3.68-4.72-3.68h-2.41c-2.66,0-4.72,1.61-4.72,3.68v2.15c0,3.09,3.21,4.54,6.68,6.15,3.87,1.8,7.63,4.27,7.63,9.36v3.01c0,3.13-3.21,5.64-7.23,5.64h-2.46c-4.02,0-7.23-2.51-7.23-5.64v-5.79h2.51v5.79Z"/><path class="cls-1" d="M103.49,161.34c.1.47.45.78,1.1.78h1c.65,0,.95-.35,1.05-.78l6.53-28.97h2.51l-6.83,30.38c-.2.74-1.05,1.33-2.16,1.33h-3.21c-1.1,0-1.96-.59-2.16-1.33l-6.83-30.38h2.56l6.43,28.97Z"/><path class="cls-1" d="M135.32,134.32h-11.65v11.12h10.24v1.96h-10.24v14.33h11.6v1.96h-14.11v-31.32h14.16v1.96Z"/><path class="cls-1" d="M157.21,161.73h.4v-29.37h2.51v31.32h-4.72l-10.44-29.37h-.45v29.37h-2.51v-31.32h4.77l10.44,29.37Z"/><path class="cls-1" d="M165.09,132.36h18.22v1.96h-7.88v29.37h-2.51v-29.37h-7.83v-1.96Z"/><path class="cls-1" d="M187.54,155.31l-1.86,8.38h-2.51l6.78-29.99c.15-.7,1.1-1.33,2.16-1.33h3.26c1.05,0,2.01.63,2.16,1.33l6.83,29.99h-2.51l-1.91-8.38h-12.4ZM195.37,135.07c-.15-.47-.55-.74-1.1-.74h-1.05c-.6,0-1,.27-1.1.74l-4.12,18.28h11.5l-4.12-18.28Z"/><path class="cls-1" d="M237.24,137.77v6.5c0,3.13-3.21,5.64-7.23,5.64h-7.18v13.78h-2.51v-31.32h9.69c4.02,0,7.23,2.27,7.23,5.4ZM234.73,144.27v-6.5c0-2.08-2.06-3.45-4.72-3.45h-7.18v13.63h7.18c2.66,0,4.72-1.61,4.72-3.68Z"/><path class="cls-1" d="M260.08,137.06v5.64c0,2.04-1.61,3.84-3.87,4.62,2.46.7,4.22,2.55,4.22,4.7v11.67h-2.51v-11.67c0-1.88-1.31-3.13-3.21-3.72h-8.79v15.39h-2.51v-31.32h10.64c3.31,0,6.02,2.11,6.02,4.7ZM257.52,142.78v-5.72c0-1.45-1.61-2.78-3.56-2.78h-8.03v12.06h8.84c1.76-.63,2.76-1.84,2.76-3.56Z"/><path class="cls-1" d="M282.02,134.32h-11.65v11.12h10.24v1.96h-10.24v14.33h11.6v1.96h-14.11v-31.32h14.16v1.96Z"/><path class="cls-1" d="M301.35,158.75l6.43-26.39h5.22l1.51,31.32h-2.51l-1.46-29.37h-.55l-7.43,28.97h-2.46l-7.38-28.97h-.55l-1.51,29.37h-2.51l1.56-31.32h5.22l6.43,26.39Z"/><path class="cls-1" d="M325.19,163.69h-2.51v-31.32h2.51v31.32Z"/><path class="cls-1" d="M335.89,158.44c0,2.08,2.06,3.68,4.72,3.68h2.71c2.66,0,4.72-1.61,4.72-3.68v-26.08h2.51v26.08c0,3.13-3.21,5.64-7.23,5.64h-2.71c-4.02,0-7.23-2.51-7.23-5.64v-26.08h2.51v26.08Z"/><path class="cls-1" d="M371.18,158.75l6.43-26.39h5.22l1.51,31.32h-2.51l-1.46-29.37h-.55l-7.43,28.97h-2.46l-7.38-28.97h-.55l-1.51,29.37h-2.51l1.56-31.32h5.22l6.43,26.39Z"/></g></svg>