<?xml version="1.0" encoding="UTF-8"?><svg id="Capa_2" xmlns="http://www.w3.org/2000/svg" viewBox="0 0 257.33 68.61"><defs><style>.cls-1{fill:#fff;}.cls-2{fill:#f05a28;}</style></defs><g id="Layer_2"><path class="cls-1" d="M33.32,62.06c-.66,1.99-1.59,3.58-2.78,4.77-1.19,1.19-2.73,1.78-4.63,1.78s-3.44-.59-4.63-1.78c-1.19-1.19-2.11-2.78-2.78-4.77L.14,4.7C-.14,3.84,0,3.08.57,2.42c.57-.66,1.42-1,2.56-1h8.97c1.8,0,3.04,1.05,3.7,3.14l8.8,28.9c.48,1.33.92,1.99,1.31,1.99s.83-.66,1.31-1.99l8.8-28.9c.66-2.09,1.9-3.14,3.7-3.14h8.96c1.14,0,1.99.33,2.56,1,.57.67.71,1.42.43,2.28l-18.36,57.37Z"/><path class="cls-1" d="M144.99,67.19h-32.13c-4.18,0-6.26-2.09-6.26-6.26V4.56c0-2.09,1.04-3.13,3.13-3.13h8.97c2.09,0,3.13,1.05,3.13,3.13v48.25c0,1.05.52,1.57,1.57,1.57h21.6c2.09,0,3.13,1.05,3.13,3.13v6.55c0,2.09-1.05,3.13-3.13,3.13Z"/><path class="cls-1" d="M177.43,68.61c-7.5,0-13.64-2.35-18.43-7.05-4.79-4.7-7.19-10.27-7.19-16.73v-21.07c0-6.55,2.37-12.15,7.12-16.8,4.74-4.65,10.91-6.97,18.5-6.97s13.64,2.35,18.43,7.05c4.79,4.7,7.19,10.27,7.19,16.73v21.07c0,6.55-2.37,12.15-7.12,16.8-4.75,4.65-10.91,6.97-18.5,6.97ZM187.82,23.77c0-2.66-.95-5.03-2.85-7.12-1.9-2.09-4.41-3.13-7.54-3.13s-5.65,1.05-7.54,3.13c-1.9,2.09-2.85,4.46-2.85,7.12v21.07c0,2.66.95,5.03,2.85,7.12,1.9,2.09,4.41,3.13,7.54,3.13s5.64-1.04,7.54-3.13c1.9-2.09,2.85-4.46,2.85-7.12v-21.07Z"/><path class="cls-1" d="M256.91,5.43c.28-.47.43-.9.43-1.28,0-1.8-.86-2.71-2.57-2.71h-9.99c-1.91,0-3.43,1.04-4.57,3.13l-6.99,13.26c-.61,1.15-1.09,1.76-1.46,1.85l8.49,14.78,16.43-28.66-16.43,28.66,16.71,29.08-16.71-29.08-8.4,14.66c.36.16.81.76,1.37,1.82l6.99,13.26c1.05,2.09,2.71,3.13,5,3.13h9.57c1.71,0,2.57-.85,2.57-2.57,0-.48-.14-.95-.43-1.43l-15.69-27.81c-.38-.76-.38-1.52,0-2.28l15.69-27.81Z"/><path class="cls-2" d="M231.75,19.68s-.06.02-.09.02c-.38,0-.89-.62-1.55-1.87l-6.99-13.26c-.48-.85-1.12-1.58-1.93-2.2-.81-.61-1.69-.92-2.64-.92h-9.85c-1.81,0-2.71.86-2.71,2.57,0,.48.14.95.43,1.43l15.69,27.81c.38.76.38,1.52,0,2.28l-15.69,27.81c-.29.48-.43.91-.43,1.29,0,1.8.9,2.71,2.71,2.71h9.42c2.28,0,3.95-1.04,5-3.13l6.99-13.26c.65-1.24,1.17-1.86,1.55-1.86.06,0,.12.02.18.04l8.4-14.66-8.49-14.78Z"/><path class="cls-1" d="M73.95,14.27h20.87c2.08,0,3.13-1.04,3.13-3.13v-6.54c0-2.09-1.04-3.13-3.13-3.13h-34.52c-2.09,0-3.13,1.04-3.13,3.13v59.44c0,2.08,1.04,3.13,3.13,3.13h34.52c2.08,0,3.13-1.04,3.13-3.13v-6.54c0-2.08-1.04-3.13-3.13-3.13h-20.87c-1.04,0-1.56-.52-1.56-1.56v-12.17h15.13c2.08,0,3.13-1.04,3.13-3.13v-6.54c0-2.08-1.04-3.13-3.13-3.13h-15.13v-12c0-1.04.52-1.56,1.56-1.56Z"/></g></svg>