<?xml version="1.0" encoding="UTF-8"?><svg id="Capa_2" xmlns="http://www.w3.org/2000/svg" viewBox="0 0 315.58 90.71"><defs><style>.cls-1{fill:#fff;}</style></defs><g id="Layer_1"><path class="cls-1" d="M192.48,5.96c10.77,0,19.53,8.76,19.53,19.53s-8.76,19.53-19.53,19.53-19.53-8.76-19.53-19.53,8.76-19.53,19.53-19.53M192.48,0c-14.07,0-25.48,11.41-25.48,25.48s11.41,25.48,25.48,25.48,25.48-11.41,25.48-25.48S206.55,0,192.48,0h0Z"/><path class="cls-1" d="M225.02,5.96c10.77,0,19.53,8.76,19.53,19.53s-8.76,19.53-19.53,19.53-19.53-8.76-19.53-19.53,8.76-19.53,19.53-19.53M225.02,0c-14.07,0-25.48,11.41-25.48,25.48s11.41,25.48,25.48,25.48,25.48-11.41,25.48-25.48S239.09,0,225.02,0h0Z"/><path class="cls-1" d="M257.56,5.96c10.77,0,19.53,8.76,19.53,19.53s-8.76,19.53-19.53,19.53-19.53-8.76-19.53-19.53,8.76-19.53,19.53-19.53M257.56,0c-14.07,0-25.48,11.41-25.48,25.48s11.41,25.48,25.48,25.48,25.48-11.41,25.48-25.48S271.63,0,257.56,0h0Z"/><path class="cls-1" d="M290.1,5.96c10.77,0,19.53,8.76,19.53,19.53s-8.76,19.53-19.53,19.53-19.53-8.76-19.53-19.53,8.76-19.53,19.53-19.53M290.1,0c-14.07,0-25.48,11.41-25.48,25.48s11.41,25.48,25.48,25.48,25.48-11.41,25.48-25.48S304.18,0,290.1,0h0Z"/><path class="cls-1" d="M274.88,69.22l-1.34-2.57h-7.08l-1.32,2.57h-3.07l6.52-12.42h2.88l6.52,12.42h-3.1ZM270.98,61.41c-.17-.33-.33-.65-.49-.97s-.32-.64-.49-.97c-.16.33-.33.66-.49.98s-.33.65-.49.98l-1.54,3.07h5.04l-1.55-3.09Z"/><path class="cls-1" d="M287.54,69.22l-.18-.96c-.2.18-.43.35-.69.49-.26.15-.55.27-.85.38-.31.11-.63.19-.98.26-.34.06-.69.1-1.05.11-.38,0-.75-.02-1.11-.07-.36-.05-.7-.13-1.02-.24s-.62-.27-.89-.46-.5-.43-.7-.72c-.19-.29-.35-.63-.45-1.03-.11-.4-.16-.86-.16-1.38v-5.18h2.69v4.83c0,.37.04.69.13.96s.22.5.41.68c.19.18.42.31.71.4.29.09.64.13,1.05.13.27,0,.53-.02.78-.05.25-.03.48-.08.71-.14.22-.06.44-.14.65-.23.21-.09.42-.2.62-.32v-6.27h2.69v8.8h-2.35Z"/><path class="cls-1" d="M301.39,69.22l-.18-1c-.21.19-.45.36-.72.52-.27.16-.57.29-.89.4-.32.11-.66.2-1.01.26s-.72.09-1.08.09c-.78,0-1.49-.11-2.11-.32s-1.14-.53-1.57-.93c-.43-.4-.76-.89-.99-1.47s-.34-1.23-.34-1.96.12-1.37.35-1.95c.23-.58.57-1.07,1.01-1.47.44-.4.99-.71,1.63-.93.65-.21,1.38-.32,2.22-.32.33,0,.65.02.96.06.31.04.61.1.9.17.29.07.55.16.81.27.25.11.48.23.68.36v-4.2h2.69v12.42h-2.35ZM301.06,62.91c-.22-.12-.45-.22-.67-.3-.22-.09-.46-.16-.7-.21-.24-.06-.5-.1-.77-.13-.27-.03-.56-.04-.88-.04-.46,0-.86.06-1.2.17-.35.12-.64.28-.87.5-.24.22-.41.49-.53.81-.12.32-.18.69-.18,1.1s.06.78.18,1.1.3.59.53.81.53.38.87.5c.35.11.75.17,1.2.17.32,0,.61-.01.88-.04.27-.03.53-.07.77-.12.24-.06.48-.13.7-.21.22-.09.45-.19.67-.31v-3.79Z"/><path class="cls-1" d="M307.11,59.13v-2.34h2.69v2.34h-2.69ZM307.11,69.22v-8.8h2.69v8.8h-2.69Z"/><path class="cls-1" d="M172.95,90.43v-12.35h5.95c.89,0,1.65.07,2.27.22s1.13.37,1.52.66.68.65.85,1.07c.18.43.27.92.27,1.47,0,.32-.04.6-.12.85s-.19.48-.34.68c-.15.2-.33.38-.54.53-.21.15-.46.29-.73.4.39.13.74.28,1.05.47.31.18.57.4.79.64s.38.51.49.81c.11.3.17.63.17.98,0,.34-.04.66-.11.97-.08.31-.2.59-.37.85s-.39.5-.66.71c-.27.21-.6.39-.99.54s-.84.27-1.36.35c-.52.08-1.1.12-1.76.12h-6.4ZM178.67,83.2c.39,0,.74-.04,1.03-.11.3-.07.54-.18.73-.32.19-.14.34-.31.44-.51.1-.2.15-.42.15-.66s-.05-.46-.15-.65c-.1-.19-.24-.36-.44-.5s-.44-.24-.73-.31-.64-.11-1.03-.11h-2.99v3.17h2.99ZM179.32,88.49c.46,0,.84-.04,1.16-.11.32-.07.57-.18.77-.33s.34-.32.43-.53c.09-.21.13-.45.13-.72s-.04-.51-.13-.72c-.09-.21-.23-.39-.43-.54-.2-.15-.45-.26-.77-.34-.32-.08-.7-.12-1.16-.12h-3.63v3.41h3.63Z"/><path class="cls-1" d="M195.21,90.43l-.18-.95c-.2.18-.43.34-.69.49-.26.15-.54.27-.85.38-.31.11-.63.19-.97.25-.34.06-.69.1-1.04.11-.38,0-.75-.02-1.11-.07-.36-.05-.7-.13-1.02-.24s-.61-.27-.88-.46-.5-.43-.69-.71c-.19-.29-.34-.63-.45-1.02-.11-.39-.16-.85-.16-1.37v-5.15h2.68v4.81c0,.37.04.69.13.96s.22.5.41.68c.18.18.42.31.71.4.29.09.64.13,1.04.13.27,0,.53-.02.77-.05.24-.03.48-.08.7-.14.22-.06.44-.14.65-.23.21-.09.42-.2.62-.32v-6.24h2.68v8.75h-2.34Z"/><path class="cls-1" d="M210.09,89.87c-.25.12-.55.24-.88.34-.34.1-.69.19-1.08.26-.38.07-.78.13-1.19.16-.41.04-.82.06-1.22.06-.62,0-1.2-.05-1.72-.16-.52-.11-.99-.25-1.4-.45-.41-.19-.77-.43-1.08-.7-.31-.27-.56-.58-.77-.92-.21-.34-.36-.71-.46-1.1-.1-.4-.15-.81-.15-1.25,0-.41.05-.81.14-1.21.09-.39.24-.76.43-1.11.19-.35.43-.67.72-.96s.63-.54,1.03-.75.85-.37,1.35-.49c.51-.12,1.07-.18,1.68-.18s1.19.05,1.7.16c.51.11.96.26,1.36.45s.74.43,1.03.7c.29.27.53.58.72.91s.33.7.42,1.08c.09.39.14.79.14,1.21,0,.08,0,.16,0,.23,0,.07,0,.15-.01.21,0,.07,0,.13-.02.2s-.01.12-.02.17h-7.97c.03.29.12.56.26.8.14.24.33.44.59.6.26.17.57.29.96.38.38.09.84.13,1.37.13.38,0,.76-.02,1.14-.05.38-.03.74-.08,1.09-.15.35-.06.68-.14.99-.22.31-.08.59-.18.84-.28v1.91ZM208.12,85.09c-.06-.31-.17-.57-.32-.8-.15-.22-.34-.41-.57-.56-.23-.15-.49-.26-.78-.33-.29-.07-.61-.11-.96-.11s-.66.04-.95.11-.55.18-.77.33c-.22.15-.41.33-.56.56s-.26.49-.32.8h5.23Z"/><path class="cls-1" d="M221.24,90.43v-4.81c0-.37-.04-.69-.13-.96-.09-.27-.22-.5-.41-.67-.18-.18-.42-.31-.71-.4s-.64-.13-1.04-.13c-.32,0-.62.02-.9.06-.28.04-.54.09-.78.16-.24.07-.47.14-.68.23s-.41.18-.6.28v6.24h-2.68v-8.75h2.34l.19,1c.22-.2.47-.38.74-.54.27-.16.56-.29.87-.4.31-.11.64-.19.98-.25.35-.06.71-.09,1.08-.09s.77.02,1.14.07c.37.05.72.13,1.04.24.33.11.63.26.9.45s.51.43.7.72c.2.29.35.63.46,1.02.11.39.16.85.16,1.37v5.15h-2.68Z"/><path class="cls-1" d="M232.12,90.71c-.63,0-1.21-.05-1.75-.14-.53-.09-1.02-.23-1.45-.41-.43-.18-.81-.41-1.15-.67-.33-.27-.61-.57-.83-.92-.22-.35-.39-.73-.51-1.15-.11-.42-.17-.88-.17-1.37s.06-.91.17-1.32c.11-.41.28-.79.51-1.13.22-.34.5-.65.83-.92.33-.27.71-.5,1.15-.69s.92-.33,1.45-.43c.53-.1,1.12-.15,1.75-.15s1.22.05,1.75.14c.54.09,1.02.23,1.46.41.43.18.82.41,1.15.67.33.27.6.57.83.92.22.35.39.73.5,1.15.11.42.17.88.17,1.37s-.06.91-.17,1.32c-.11.41-.28.79-.51,1.13-.22.34-.5.65-.83.92s-.71.5-1.15.69-.92.33-1.45.43c-.53.1-1.12.15-1.75.15ZM232.12,88.74c.47,0,.89-.06,1.27-.19.38-.12.71-.3.98-.53.27-.23.48-.51.63-.84.15-.33.22-.7.22-1.12s-.07-.79-.22-1.12c-.15-.33-.36-.61-.63-.85-.27-.23-.6-.41-.98-.54-.38-.13-.81-.19-1.27-.19s-.89.06-1.27.19c-.38.12-.71.3-.98.53-.27.23-.48.51-.63.84s-.22.7-.22,1.12.07.79.22,1.12.36.62.63.85c.27.23.6.41.98.54.38.12.8.19,1.27.19Z"/><path class="cls-1" d="M239.99,88.05c.13.05.29.11.47.16.18.05.38.11.6.15.22.05.44.09.69.14.24.04.48.08.73.11.24.03.49.05.72.07.24.02.47.03.68.03.4,0,.75-.01,1.07-.04.31-.02.58-.07.8-.13.22-.06.39-.14.5-.24s.17-.22.17-.36c0-.13-.05-.24-.15-.34-.1-.09-.25-.17-.45-.24s-.46-.13-.78-.18-.69-.11-1.12-.17c-.63-.09-1.18-.2-1.67-.34-.48-.14-.89-.32-1.22-.55-.33-.22-.58-.49-.76-.8-.17-.31-.26-.68-.26-1.11,0-.45.09-.85.28-1.2.19-.35.48-.64.87-.88.39-.24.89-.42,1.5-.54.61-.12,1.33-.18,2.17-.18.22,0,.46,0,.7.02.24.02.48.04.72.07.24.03.48.07.71.11s.45.09.65.15c.2.05.39.11.55.17s.3.12.41.19v1.91c-.13-.06-.29-.11-.47-.17s-.38-.11-.59-.16c-.21-.05-.43-.1-.66-.14-.23-.04-.46-.08-.69-.11s-.46-.05-.69-.07c-.23-.02-.44-.03-.64-.03-.32,0-.62.01-.88.04-.27.03-.49.07-.68.13-.19.06-.33.14-.44.23s-.15.21-.15.36c0,.13.05.24.15.33.1.09.25.16.46.23.21.06.47.12.78.17s.69.11,1.12.17c.64.09,1.2.2,1.68.34s.89.31,1.22.53c.33.22.57.48.74.79.17.31.25.69.25,1.13s-.11.84-.34,1.19-.56.65-1,.9c-.44.25-.98.43-1.63.56-.65.13-1.4.2-2.25.2-.39,0-.78-.02-1.17-.06-.39-.04-.76-.1-1.1-.16-.35-.07-.66-.14-.94-.23-.28-.09-.51-.17-.67-.26v-1.92Z"/><path class="cls-1" d="M268.51,90.43l-1.33-2.56h-7.04l-1.32,2.56h-3.05l6.48-12.35h2.87l6.48,12.35h-3.09ZM264.64,82.67c-.16-.32-.33-.65-.49-.96s-.32-.64-.48-.97c-.16.33-.33.65-.49.97s-.32.65-.49.97l-1.53,3.06h5.01l-1.54-3.07Z"/><path class="cls-1" d="M273.3,80.41v-2.32h2.68v2.32h-2.68ZM273.3,90.43v-8.75h2.68v8.75h-2.68Z"/><path class="cls-1" d="M279.32,90.43v-8.75h2.44l.1,1.6c.14-.27.31-.52.5-.74.19-.22.41-.42.67-.58.25-.16.54-.29.86-.38.32-.09.68-.14,1.07-.14.22,0,.44.01.66.04.23.03.43.06.6.11v2.32c-.09-.02-.2-.04-.32-.05-.12-.02-.24-.03-.37-.04s-.26-.02-.39-.03c-.13,0-.26,0-.38,0-.24,0-.46.01-.67.04-.21.03-.4.07-.59.12s-.35.11-.5.19c-.15.07-.29.15-.42.23-.13.09-.24.18-.34.27-.1.1-.18.2-.25.3v5.49h-2.68Z"/><path class="cls-1" d="M297.47,89.87c-.25.12-.55.24-.88.34-.34.1-.69.19-1.08.26-.38.07-.78.13-1.19.16-.41.04-.82.06-1.22.06-.62,0-1.2-.05-1.72-.16-.52-.11-.99-.25-1.4-.45-.41-.19-.77-.43-1.08-.7-.31-.27-.56-.58-.77-.92-.21-.34-.36-.71-.46-1.1-.1-.4-.15-.81-.15-1.25,0-.41.05-.81.14-1.21.09-.39.24-.76.43-1.11.19-.35.43-.67.72-.96s.63-.54,1.03-.75.85-.37,1.35-.49c.51-.12,1.07-.18,1.68-.18s1.19.05,1.7.16c.51.11.96.26,1.36.45s.74.43,1.03.7c.29.27.53.58.72.91s.33.7.42,1.08c.09.39.14.79.14,1.21,0,.08,0,.16,0,.23,0,.07,0,.15-.01.21,0,.07,0,.13-.02.2s-.01.12-.02.17h-7.97c.03.29.12.56.26.8.14.24.33.44.59.6.26.17.57.29.96.38.38.09.84.13,1.37.13.38,0,.76-.02,1.14-.05.38-.03.74-.08,1.09-.15.35-.06.68-.14.99-.22.31-.08.59-.18.84-.28v1.91ZM295.51,85.09c-.06-.31-.17-.57-.32-.8-.15-.22-.34-.41-.57-.56-.23-.15-.49-.26-.78-.33-.29-.07-.61-.11-.96-.11s-.66.04-.95.11-.55.18-.77.33c-.22.15-.41.33-.56.56s-.26.49-.32.8h5.23Z"/><path class="cls-1" d="M300.13,88.05c.13.05.29.11.47.16.18.05.38.11.6.15.22.05.44.09.69.14.24.04.48.08.73.11.24.03.49.05.72.07.24.02.47.03.68.03.4,0,.75-.01,1.07-.04.31-.02.58-.07.8-.13.22-.06.39-.14.5-.24s.17-.22.17-.36c0-.13-.05-.24-.15-.34-.1-.09-.25-.17-.45-.24s-.46-.13-.78-.18-.69-.11-1.12-.17c-.63-.09-1.18-.2-1.67-.34-.48-.14-.89-.32-1.22-.55-.33-.22-.58-.49-.76-.8-.17-.31-.26-.68-.26-1.11,0-.45.09-.85.28-1.2.19-.35.48-.64.87-.88.39-.24.89-.42,1.5-.54.61-.12,1.33-.18,2.17-.18.22,0,.46,0,.7.02.24.02.48.04.72.07.24.03.48.07.71.11s.45.09.65.15c.2.05.39.11.55.17s.3.12.41.19v1.91c-.13-.06-.29-.11-.47-.17s-.38-.11-.59-.16c-.21-.05-.43-.1-.66-.14-.23-.04-.46-.08-.69-.11s-.46-.05-.69-.07c-.23-.02-.44-.03-.64-.03-.32,0-.62.01-.88.04-.27.03-.49.07-.68.13-.19.06-.33.14-.44.23s-.15.21-.15.36c0,.13.05.24.15.33.1.09.25.16.46.23.21.06.47.12.78.17s.69.11,1.12.17c.64.09,1.2.2,1.68.34s.89.31,1.22.53c.33.22.57.48.74.79.17.31.25.69.25,1.13s-.11.84-.34,1.19-.56.65-1,.9c-.44.25-.98.43-1.63.56-.65.13-1.4.2-2.25.2-.39,0-.78-.02-1.17-.06-.39-.04-.76-.1-1.1-.16-.35-.07-.66-.14-.94-.23-.28-.09-.51-.17-.67-.26v-1.92Z"/><path class="cls-1" d="M2.1,17.23h4.87c.81,0,1.55.11,2.24.32s1.28.52,1.78.93c.5.41.89.92,1.16,1.53.27.61.41,1.31.41,2.12s-.15,1.55-.45,2.17c-.3.62-.71,1.14-1.22,1.55-.52.41-1.13.72-1.84.93-.71.21-1.49.32-2.33.32h-2.71v6.71h-1.89v-16.58ZM4,25.54h1.89c.68,0,1.32-.05,1.89-.16.58-.11,1.07-.28,1.47-.54.4-.25.72-.6.95-1.04.23-.44.34-.99.34-1.66s-.12-1.19-.36-1.63c-.24-.44-.54-.79-.92-1.05-.38-.26-.81-.45-1.3-.55-.49-.11-.99-.16-1.5-.16h-2.47v6.79Z"/><path class="cls-1" d="M22.94,17.02c1.05,0,2.04.18,2.96.53.92.35,1.71.88,2.38,1.59.67.71,1.19,1.6,1.58,2.66.39,1.06.58,2.3.58,3.72s-.2,2.61-.59,3.67c-.39,1.06-.93,1.95-1.62,2.67-.68.72-1.49,1.26-2.42,1.63-.93.37-1.92.55-2.97.55s-2.04-.18-2.96-.54c-.92-.36-1.71-.89-2.38-1.6-.67-.71-1.19-1.6-1.58-2.66-.39-1.06-.58-2.3-.58-3.72s.2-2.6.59-3.66c.39-1.05.93-1.94,1.62-2.66.68-.72,1.49-1.26,2.41-1.63.92-.37,1.92-.55,2.99-.55ZM17.36,25.51c0,1.19.15,2.23.45,3.1.3.88.7,1.6,1.21,2.18.51.58,1.1,1.01,1.78,1.29.68.28,1.39.42,2.14.42s1.46-.14,2.12-.42c.66-.28,1.24-.71,1.74-1.29.5-.58.89-1.31,1.18-2.18.29-.88.43-1.91.43-3.1s-.15-2.26-.45-3.14c-.3-.89-.7-1.61-1.21-2.17-.51-.56-1.1-.98-1.78-1.25-.68-.27-1.39-.41-2.14-.41s-1.46.14-2.12.42c-.66.28-1.24.71-1.74,1.29-.5.58-.89,1.31-1.18,2.18-.29.88-.43,1.9-.43,3.08Z"/><path class="cls-1" d="M34.6,17.23l2.79,9.76c.19.65.39,1.39.58,2.21.19.82.36,1.6.5,2.34h.05c.14-.74.32-1.51.53-2.33.21-.82.41-1.56.61-2.22l2.87-9.76h1.74l2.95,9.76c.19.67.39,1.4.59,2.21.2.81.39,1.59.57,2.34h.05c.14-.77.31-1.56.5-2.37.19-.81.39-1.53.58-2.18l2.68-9.76h1.92l-4.76,16.58h-1.92l-2.87-9.95c-.19-.74-.39-1.46-.6-2.16-.21-.7-.39-1.39-.55-2.05h-.05c-.14.6-.29,1.18-.45,1.76-.16.58-.32,1.16-.47,1.74l-2.97,10.66h-1.89l-4.89-16.58h1.95Z"/><path class="cls-1" d="M57.07,17.23h9.73v1.55h-7.84v5.68h7.16v1.55h-7.16v6.24h7.92v1.55h-9.81v-16.58Z"/><path class="cls-1" d="M70.72,17.23h5.1c.86,0,1.62.12,2.28.36s1.21.57,1.64.99c.44.42.77.93,1,1.51.23.59.34,1.23.34,1.93,0,.63-.1,1.21-.29,1.72-.19.52-.45.97-.78,1.35-.32.39-.7.71-1.12.97-.42.26-.86.47-1.32.63l4.5,7.1h-2.16l-4.1-6.76h-3.34v6.76h-1.76v-16.58ZM72.48,25.51h2.53c.58,0,1.12-.07,1.62-.2.5-.13.93-.34,1.3-.62.37-.28.66-.64.87-1.07.21-.43.32-.94.32-1.54,0-1.16-.33-2-.99-2.54-.66-.53-1.63-.8-2.91-.8h-2.74v6.76Z"/><path class="cls-1" d="M85.27,17.23h9.73v1.55h-7.84v5.68h7.16v1.55h-7.16v6.24h7.92v1.55h-9.81v-16.58Z"/><path class="cls-1" d="M104.05,17.23c1.12,0,2.17.17,3.14.5.97.33,1.81.83,2.51,1.49.7.66,1.25,1.48,1.66,2.47.4.99.6,2.14.6,3.46,0,1.6-.24,2.95-.71,4.05-.47,1.1-1.11,2-1.92,2.68-.81.68-1.75,1.18-2.82,1.47-1.07.3-2.2.45-3.39.45h-4.21v-16.58h5.13ZM100.82,32.25h2.08c.88,0,1.74-.1,2.58-.3.84-.2,1.6-.57,2.26-1.1.67-.53,1.2-1.26,1.6-2.18.4-.92.6-2.09.6-3.51,0-1.02-.15-1.92-.46-2.71s-.74-1.46-1.29-2c-.55-.54-1.22-.96-2.01-1.24-.79-.28-1.66-.42-2.6-.42h-2.76v13.47Z"/><path class="cls-1" d="M126.76,17.23c1.65,0,2.93.36,3.85,1.07.92.71,1.38,1.75,1.38,3.12,0,1.02-.29,1.81-.85,2.38-.57.57-1.29.97-2.14,1.2.49.09.95.24,1.37.46.42.22.79.5,1.1.86.32.35.57.77.75,1.25.18.48.28,1.02.28,1.62,0,.68-.14,1.31-.43,1.88-.29.57-.7,1.06-1.22,1.46-.53.4-1.16.72-1.89.95-.74.23-1.54.34-2.42.34h-4.21v-16.58h4.45ZM124.21,24.33h2c.49,0,.97-.04,1.43-.13.46-.09.88-.24,1.24-.45.36-.21.64-.5.85-.86.21-.36.32-.81.32-1.35,0-.98-.34-1.69-1.01-2.13-.68-.44-1.56-.66-2.64-.66h-2.18v5.58ZM124.21,32.28h2.05c.58,0,1.12-.06,1.63-.17.51-.11.96-.3,1.34-.57.39-.26.69-.61.92-1.04.23-.43.34-.95.34-1.57s-.12-1.09-.37-1.49c-.25-.39-.57-.71-.99-.95-.41-.24-.89-.41-1.42-.51-.54-.11-1.08-.16-1.64-.16h-1.87v6.45Z"/><path class="cls-1" d="M136.92,17.23l4.42,7.84,4.45-7.84h2.1l-5.66,9.63v6.95h-1.89v-6.95l-5.55-9.63h2.13Z"/></g></svg>