<?xml version="1.0" encoding="UTF-8"?><svg id="Capa_2" xmlns="http://www.w3.org/2000/svg" viewBox="0 0 555.18 220.12"><defs><style>.cls-1{fill:#ce4529;}.cls-2{fill:#fff;}</style></defs><g id="Layer_1"><path class="cls-2" d="M71.89,133.9c-1.43,4.3-3.43,7.73-5.99,10.29-2.56,2.56-5.89,3.84-9.98,3.84s-7.42-1.28-9.98-3.84c-2.56-2.56-4.56-5.99-5.99-10.29L.31,10.13C-.31,8.29,0,6.66,1.23,5.22c1.23-1.43,3.07-2.15,5.53-2.15h19.35c3.89,0,6.55,2.25,7.98,6.77l18.99,62.36c1.05,2.87,1.99,4.3,2.84,4.3s1.79-1.43,2.84-4.3l18.99-62.36c1.43-4.51,4.09-6.77,7.98-6.77h19.33c2.45,0,4.29.72,5.52,2.15,1.23,1.43,1.54,3.07.92,4.91l-39.62,123.76Z"/><path class="cls-2" d="M312.81,144.95h-69.32c-9.01,0-13.51-4.5-13.51-13.51V9.83c0-4.5,2.25-6.76,6.76-6.76h19.35c4.5,0,6.76,2.25,6.76,6.76v104.11c0,2.25,1.12,3.38,3.38,3.38h46.6c4.5,0,6.76,2.25,6.76,6.76v14.13c0,4.51-2.26,6.76-6.76,6.76Z"/><path class="cls-2" d="M382.8,148.02c-16.17,0-29.43-5.07-39.77-15.2-10.34-10.13-15.51-22.16-15.51-36.08v-45.45c0-14.13,5.11-26.2,15.36-36.24,10.24-10.03,23.54-15.05,39.92-15.05s29.43,5.07,39.77,15.2c10.34,10.13,15.51,22.16,15.51,36.08v45.45c0,14.13-5.12,26.21-15.36,36.24-10.24,10.03-23.55,15.05-39.92,15.05ZM405.21,51.29c0-5.73-2.05-10.85-6.14-15.35-4.1-4.5-9.52-6.76-16.28-6.76s-12.18,2.26-16.28,6.76c-4.1,4.51-6.14,9.63-6.14,15.35v45.45c0,5.73,2.04,10.85,6.14,15.35,4.09,4.51,9.52,6.76,16.28,6.76s12.18-2.25,16.28-6.76c4.09-4.5,6.14-9.62,6.14-15.35v-45.45Z"/><path class="cls-2" d="M554.26,11.72c.61-1.02.92-1.94.92-2.77,0-3.89-1.85-5.85-5.55-5.85h-21.56c-4.11,0-7.39,2.25-9.85,6.75l-15.08,28.61c-1.31,2.48-2.35,3.8-3.15,3.99l18.31,31.89,35.44-61.84-35.44,61.84,36.04,62.74-36.04-62.74-18.13,31.63c.77.34,1.75,1.64,2.96,3.92l15.08,28.61c2.26,4.51,5.85,6.75,10.78,6.75h20.64c3.7,0,5.55-1.84,5.55-5.53,0-1.03-.31-2.05-.92-3.08l-33.85-59.99c-.82-1.64-.82-3.28,0-4.92l33.85-60Z"/><path class="cls-1" d="M499.99,42.45c-.07.01-.14.04-.2.04-.81,0-1.92-1.34-3.33-4.03l-15.08-28.61c-1.03-1.83-2.41-3.42-4.16-4.76-1.75-1.32-3.64-1.99-5.7-1.99h-21.25c-3.9,0-5.85,1.85-5.85,5.54,0,1.03.31,2.06.93,3.07l33.85,60c.82,1.64.82,3.28,0,4.92l-33.85,59.99c-.62,1.03-.93,1.96-.93,2.78,0,3.89,1.95,5.84,5.85,5.84h20.33c4.93,0,8.52-2.25,10.78-6.75l15.08-28.61c1.41-2.68,2.52-4.02,3.33-4.02.12,0,.25.04.38.1l18.13-31.63-18.31-31.89Z"/><path class="cls-2" d="M159.55,30.79h45.02c4.5,0,6.75-2.25,6.75-6.75v-14.11c0-4.5-2.25-6.75-6.75-6.75h-74.47c-4.5,0-6.75,2.25-6.75,6.75v128.25c0,4.5,2.25,6.75,6.75,6.75h74.47c4.5,0,6.75-2.25,6.75-6.75v-14.11c0-4.5-2.25-6.75-6.75-6.75h-45.02c-2.25,0-3.38-1.12-3.38-3.38v-26.26h32.64c4.5,0,6.75-2.25,6.75-6.75v-14.11c0-4.5-2.25-6.75-6.75-6.75h-32.64v-25.9c0-2.25,1.12-3.38,3.38-3.38Z"/><path class="cls-2" d="M44.94,220.12c-2.98,0-5.63-.48-7.98-1.44-2.34-.96-4.19-2.42-5.53-4.39-1.35-1.97-2.02-4.47-2.02-7.5v-1.03h3.81v1.03c0,3.5,1.1,6.09,3.3,7.77s5.01,2.52,8.42,2.52,6.11-.73,7.97-2.19c1.86-1.46,2.8-3.33,2.8-5.61,0-1.52-.41-2.73-1.22-3.66-.81-.92-1.94-1.66-3.39-2.22-1.45-.56-3.12-1.06-5.03-1.49l-3.81-.87c-2.26-.54-4.29-1.22-6.07-2.03-1.79-.81-3.19-1.88-4.23-3.2-1.03-1.32-1.55-3.01-1.55-5.06s.58-3.85,1.75-5.36c1.17-1.52,2.79-2.68,4.85-3.49,2.06-.81,4.46-1.22,7.2-1.22s5.21.43,7.41,1.3c2.2.87,3.95,2.14,5.24,3.82,1.29,1.68,1.93,3.78,1.93,6.31v2.55h-3.81v-2.55c0-1.99-.48-3.59-1.43-4.82-.95-1.23-2.24-2.13-3.87-2.71-1.63-.58-3.45-.87-5.48-.87-2.9,0-5.29.6-7.17,1.81-1.88,1.21-2.83,2.95-2.83,5.23,0,1.52.39,2.73,1.16,3.63.77.9,1.87,1.62,3.27,2.17s3.07,1.03,4.97,1.46l3.81.87c2.18.47,4.19,1.09,6.01,1.87,1.83.78,3.29,1.84,4.4,3.2,1.11,1.35,1.67,3.13,1.67,5.33s-.61,4.12-1.81,5.74c-1.21,1.62-2.91,2.88-5.09,3.76-2.18.88-4.74,1.33-7.68,1.33Z"/><path class="cls-2" d="M67.98,219.36v-37.91h25.17v3.14h-21.37v14.19h19.7v3.14h-19.7v14.3h21.6v3.14h-25.41Z"/><path class="cls-2" d="M101.72,219.36v-37.91h16.31c2.58,0,4.85.4,6.81,1.19,1.96.79,3.51,1.94,4.64,3.44,1.13,1.5,1.7,3.31,1.7,5.44v.54c0,2.56-.68,4.58-2.02,6.04-1.35,1.46-2.94,2.43-4.76,2.9v.65c1.39.04,2.56.43,3.51,1.19s1.43,1.97,1.43,3.63v12.89h-3.81v-12.51c0-1.16-.35-2.04-1.04-2.65-.7-.61-1.74-.92-3.12-.92h-15.83v16.08h-3.81ZM105.53,200.13h12.14c3.09,0,5.48-.66,7.17-1.98,1.69-1.32,2.53-3.2,2.53-5.66v-.27c0-2.46-.82-4.34-2.47-5.66-1.65-1.32-4.06-1.98-7.23-1.98h-12.14v15.54Z"/><path class="cls-2" d="M149.21,219.36l-13.39-37.91h3.99l12.44,35.91h.71l12.44-35.91h3.99l-13.39,37.91h-6.79Z"/><path class="cls-2" d="M176.17,219.36v-37.91h3.81v37.91h-3.81Z"/><path class="cls-2" d="M204.97,220.12c-4.88,0-8.78-1.31-11.69-3.93-2.92-2.62-4.37-6.45-4.37-11.51v-8.56c0-5.05,1.46-8.89,4.37-11.51,2.92-2.62,6.81-3.93,11.69-3.93s8.54,1.24,11.1,3.71c2.56,2.47,3.84,5.84,3.84,10.1v.27h-3.81v-.38c0-3.1-.9-5.64-2.71-7.61-1.81-1.97-4.61-2.95-8.42-2.95s-6.85,1.07-9.02,3.2c-2.16,2.13-3.24,5.13-3.24,8.99v8.77c0,3.86,1.08,6.86,3.24,8.99,2.16,2.13,5.17,3.2,9.02,3.2s6.62-.98,8.42-2.95c1.8-1.97,2.71-4.5,2.71-7.61v-.81h3.81v.7c0,4.26-1.28,7.63-3.84,10.1-2.56,2.47-6.26,3.71-11.1,3.71Z"/><path class="cls-2" d="M228.36,219.36v-37.91h3.81v37.91h-3.81Z"/><path class="cls-2" d="M257.11,220.12c-4.88,0-8.77-1.31-11.66-3.93-2.9-2.62-4.34-6.45-4.34-11.51v-8.56c0-5.05,1.45-8.89,4.34-11.51,2.9-2.62,6.78-3.93,11.66-3.93s8.77,1.31,11.67,3.93c2.9,2.62,4.34,6.45,4.34,11.51v8.56c0,5.06-1.45,8.89-4.34,11.51-2.9,2.62-6.78,3.93-11.67,3.93ZM257.11,216.98c3.89,0,6.89-1.06,9.02-3.2,2.12-2.13,3.18-5.13,3.18-8.99v-8.77c0-3.86-1.06-6.86-3.18-8.99-2.12-2.13-5.13-3.2-9.02-3.2s-6.84,1.07-8.99,3.2c-2.14,2.13-3.21,5.13-3.21,8.99v8.77c0,3.86,1.07,6.86,3.21,8.99,2.14,2.13,5.14,3.2,8.99,3.2Z"/><path class="cls-2" d="M297.4,219.36v-37.91h15.41c2.46,0,4.67.42,6.64,1.27,1.96.85,3.52,2.07,4.67,3.66,1.15,1.59,1.73,3.52,1.73,5.79v.65c0,2.27-.59,4.22-1.76,5.82-1.17,1.61-2.74,2.83-4.7,3.66-1.96.83-4.16,1.25-6.58,1.25h-11.61v15.81h-3.81ZM301.21,200.4h11.19c2.98,0,5.33-.67,7.05-2,1.73-1.34,2.59-3.21,2.59-5.63v-.54c0-2.46-.84-4.34-2.53-5.66-1.69-1.32-4.06-1.98-7.11-1.98h-11.19v15.81Z"/><path class="cls-2" d="M333.11,219.36v-37.91h16.31c2.58,0,4.85.4,6.81,1.19,1.96.79,3.51,1.94,4.64,3.44,1.13,1.5,1.7,3.31,1.7,5.44v.54c0,2.56-.67,4.58-2.02,6.04-1.35,1.46-2.94,2.43-4.76,2.9v.65c1.39.04,2.56.43,3.51,1.19s1.43,1.97,1.43,3.63v12.89h-3.81v-12.51c0-1.16-.35-2.04-1.04-2.65-.69-.61-1.74-.92-3.12-.92h-15.83v16.08h-3.81ZM336.91,200.13h12.14c3.09,0,5.48-.66,7.17-1.98,1.69-1.32,2.53-3.2,2.53-5.66v-.27c0-2.46-.82-4.34-2.47-5.66-1.65-1.32-4.06-1.98-7.23-1.98h-12.14v15.54Z"/><path class="cls-2" d="M370.66,219.36v-37.91h25.17v3.14h-21.37v14.19h19.7v3.14h-19.7v14.3h21.6v3.14h-25.41Z"/><path class="cls-2" d="M404.4,219.36v-37.91h7.44l12.62,35.85h.71l12.62-35.85h7.44v37.91h-3.69v-35.85h-.71l-12.62,35.85h-6.78l-12.62-35.85h-.71v35.85h-3.69Z"/><path class="cls-2" d="M455.46,219.36v-37.91h3.81v37.91h-3.81Z"/><path class="cls-2" d="M484.15,220.12c-2.98,0-5.58-.48-7.83-1.44-2.24-.96-4-2.41-5.27-4.36s-1.9-4.4-1.9-7.37v-25.51h3.81v25.51c0,3.39.98,5.91,2.95,7.55,1.96,1.64,4.71,2.46,8.24,2.46s6.28-.82,8.24-2.46c1.96-1.64,2.95-4.16,2.95-7.55v-25.51h3.81v25.51c0,2.96-.62,5.42-1.88,7.37s-3,3.4-5.27,4.36c-2.26.96-4.88,1.44-7.86,1.44Z"/><path class="cls-2" d="M509.02,219.36v-37.91h7.44l12.62,35.85h.71l12.62-35.85h7.44v37.91h-3.69v-35.85h-.71l-12.62,35.85h-6.78l-12.62-35.85h-.71v35.85h-3.69Z"/></g></svg>