<?xml version="1.0" encoding="UTF-8"?><svg id="Capa_2" xmlns="http://www.w3.org/2000/svg" viewBox="0 0 200.09 192.35"><defs><style>.cls-1{fill:#f05a28;stroke:#ececec;stroke-miterlimit:10;stroke-width:.73px;}</style></defs><g id="Layer_2"><path class="cls-1" d="M156.47,125.85c1.19-3.27,2.1-5.83,3.04-8.38,2.35-6.37,7.73-8.86,14.15-6.54,6.19,2.23,12.38,4.48,18.56,6.75,6.52,2.39,8.99,7.74,6.61,14.28-6.31,17.38-12.64,34.76-18.97,52.13-2.55,6.98-7.69,9.37-14.65,6.85-5.99-2.17-11.99-4.33-17.97-6.51-6.84-2.49-9.25-7.65-6.8-14.52.85-2.37,1.7-4.74,2.78-7.73-3.91.19-7.52.16-11.08.58-5.89.69-11.46,2.56-16.76,5.24-4.36,2.21-8.96,3.73-13.82,4.09-5.67.43-10.98-1.27-15.98-3.75-7.73-3.84-15.82-6.01-24.46-6.06-1.31,0-2.61.13-4.12.21,1.03,2.85,1.98,5.4,2.89,7.97,2.15,6.11-.3,11.47-6.36,13.73-6.43,2.4-12.88,4.74-19.35,7.04-6.06,2.15-11.45-.39-13.67-6.46-6.47-17.7-12.92-35.4-19.33-53.11-2.25-6.2.26-11.54,6.44-13.84,6.3-2.35,12.61-4.66,18.93-6.95,6.41-2.32,11.72.21,14.1,6.66.94,2.54,1.85,5.09,3.01,8.25,1.09-1.28,2.03-2.1,2.61-3.11,1.89-3.33,1.53-6.88.79-10.45-1.72-8.37-3.42-16.75-5.19-25.11-.11-.51-.62-1.11-1.1-1.34-8.62-4.12-13.05-11.46-14.58-20.4-2.71-15.9,1.62-29.71,13.66-40.77,3.08-2.83,6.76-4.72,10.78-5.94.64-.19,1.37-.47,1.8-.94,8.3-9.13,18.93-13.85,30.83-15.81,15.8-2.61,31.45-2.18,46.61,3.63,6.7,2.57,12.55,6.49,17.43,11.81.45.5,1.03,1.03,1.64,1.21,11.19,3.33,18.02,11.24,22.34,21.58,4.18,9.99,4.85,20.26,1.21,30.58-2.35,6.66-6.44,11.91-12.97,15.04-.54.26-1.13.9-1.25,1.46-1.87,8.84-3.68,17.7-5.45,26.56-.62,3.09-.54,6.18,1.09,8.99.56.97,1.44,1.76,2.56,3.09ZM154.3,131.8c-6.91-3.55-9.2-9.48-8.33-16.43.87-7,2.63-13.89,4-20.83.37-1.86.73-3.73,1.13-5.8-.67.18-.94.23-1.2.33-9.62,3.6-18.37,1.73-25.81-4.99-12.3-11.11-16.65-25.19-13.56-41.32,2.07-10.84,8.14-18.6,19.35-21.54,2.84-.75,5.59-1.84,8.52-2.83-16.76-15.25-61.4-14.62-76.58.06,3.7,1.22,7.32,2.45,10.97,3.6,4.56,1.44,8.27,4.08,11.16,7.87,4.4,5.79,6.42,12.44,6.58,19.61.3,13.93-4.22,25.93-15.01,35.07-5.67,4.8-12.25,7.34-19.86,5.92-2.15-.4-4.25-1.06-6.54-1.64.1.69.14,1.17.24,1.64,1.55,7.48,3.25,14.92,4.64,22.43,1.58,8.56-1.09,14.56-8.13,18.92,2.9,7.97,5.82,15.98,8.76,24.05.98-.05,1.82-.06,2.65-.13,6.86-.58,13.61.09,20.15,2.17,3.72,1.18,7.32,2.79,10.91,4.34,5.56,2.4,11.16,4.27,17.26,2.27,2.26-.74,4.56-1.45,6.67-2.51,9.89-4.96,20.29-7.17,31.34-6.22.93.08,1.89.4,2.38-.98,2.72-7.65,5.52-15.27,8.34-23.02ZM169.59,185.32c2.2-.13,3.16-1.33,3.79-3.07,6.38-17.57,12.79-35.13,19.18-52.7,1.08-2.97.41-4.44-2.57-5.54-6.24-2.3-12.49-4.57-18.75-6.82-2.81-1.01-4.36-.29-5.39,2.55-6.4,17.57-12.78,35.13-19.16,52.71-1.07,2.96-.36,4.47,2.57,5.54,6.18,2.27,12.36,4.52,18.54,6.78.65.24,1.33.41,1.79.55ZM54.36,174.87c-.12-.15-.23-.29-.35-.44-.22-.73-.39-1.48-.65-2.2-6.33-17.43-12.66-34.86-19-52.28-1.13-3.09-2.56-3.76-5.67-2.64-6.12,2.21-12.24,4.43-18.35,6.65-3.19,1.16-3.85,2.59-2.68,5.82,3.37,9.27,6.75,18.54,10.13,27.81,3,8.22,5.98,16.44,8.99,24.65.94,2.57,2.4,3.55,4.55,2.79,6.8-2.39,13.59-4.81,20.31-7.4,1.1-.42,1.82-1.81,2.71-2.75ZM126.38,49.06c.33,9.5,3.66,19.06,11.89,26.46,4.04,3.63,8.77,5.9,14.38,5.17,6.5-.84,10.49-5.01,12.99-10.72,3.07-7.02,3.13-14.33,1.3-21.65-2.16-8.63-6.33-16.05-14.07-20.93-8.77-5.52-18.51-2.83-23.37,6.33-2.32,4.38-3.1,9.12-3.13,15.33ZM73.89,46.91c-.3-1.92-.51-5.03-1.31-7.98-3.94-14.48-17.21-18.85-28.33-9.41-10.38,8.81-15,25.75-10.51,38.6,4.67,13.39,17.67,16.82,28.21,7.34,8.1-7.29,11.39-16.74,11.94-28.55ZM78.13,33.43c5.76,20.21,1.01,37.11-15.63,50.4,10.52-3,16.2-10.75,19.36-20.54,3.37-10.44,3.14-20.65-3.73-29.85ZM121.97,33.5c-6.95,9.45-7.08,19.82-3.47,30.45,3.24,9.55,8.94,16.99,19.16,19.85-16.63-13.24-21.4-30.1-15.69-50.3Z"/><path class="cls-1" d="M133.9,119.96c.07,6.07-.28,12.04-2.62,17.77-5.63,13.82-20.32,22.75-34.56,20.91-16.01-2.07-28.16-13.59-29.91-28.98-.89-7.85-1.27-15.84.82-23.61,4.15-15.45,18.85-25.8,34.83-24.67,15.89,1.12,28.89,13.33,30.91,29.15.4,3.12.36,6.29.53,9.43ZM125.34,116.57c-3.73,2.24-7.46,4.43-11.12,6.74-.43.27-.65,1.15-.66,1.75-.2,7.65-6.07,13.53-13.54,13.51-7.46-.02-13.2-5.86-13.43-13.62-.02-.55-.19-1.36-.58-1.6-3.72-2.33-7.5-4.57-11.3-6.86-4.18,10.29-.04,23.45,9.39,30.37,9.97,7.32,23.65,6.92,33.17-.96,8.58-7.11,12.32-20.5,8.07-29.35ZM122.63,110.31c-6.23-8.55-14.33-12.76-24.58-12.04-8.65.61-15.45,4.74-20.5,12.08,3.99,2.39,7.75,4.65,11.53,6.92,2.93-3.64,6.52-5.61,11.02-5.62,4.58-.01,8.16,2.12,11,5.62,3.88-2.34,7.58-4.57,11.54-6.95ZM100.02,131.83c3.67.02,6.71-2.95,6.77-6.63.06-3.64-2.94-6.76-6.58-6.82-3.76-.07-6.88,2.99-6.87,6.74,0,3.67,3.01,6.69,6.68,6.71ZM79.22,98.49c6.26-4.61,13.19-7.09,20.96-7.07,7.71.02,14.59,2.56,20.79,7.1-9.89-14.04-32.21-13.76-41.74-.03Z"/></g></svg>