<?xml version="1.0" encoding="UTF-8"?><svg id="Capa_2" xmlns="http://www.w3.org/2000/svg" viewBox="0 0 177.82 177.91"><defs><style>.cls-1{fill:#f05a28;stroke:#ececec;stroke-miterlimit:10;stroke-width:.5px;}</style></defs><g id="Layer_2"><path class="cls-1" d="M177.57,148.27c-.2,14.72-10.31,26.71-24.56,29.02-20.02,3.25-37.42-15.62-32.52-35.3.27-1.1.07-1.72-.69-2.47-27.09-27.06-54.17-54.14-81.23-81.24-.83-.83-1.53-.98-2.66-.71C15.38,62.41-1.28,44.88.36,26.63,1.42,14.94,8.05,6.8,18.76,2.44,29.28-1.84,39.23.32,47.85,7.46c8.91,7.38,12.01,17.05,9.56,28.39-.29,1.32,0,2.07.89,2.96,27.01,26.97,54,53.95,80.96,80.97.87.88,1.62,1.1,2.82.82,16.21-3.77,32.01,6.59,35.02,22.94.29,1.56.32,3.16.47,4.74ZM148.98,171.59c1.2-.11,2.42-.11,3.6-.33,12.99-2.42,21.32-15.14,18.19-27.75-3.27-13.17-16.4-20.64-29.21-16.52-2.04.66-3.49.23-4.95-1.24-28.05-28.09-56.11-56.16-84.21-84.19-1.66-1.66-2.01-3.24-1.32-5.47,4.46-14.29-6.07-29.08-21.1-29.52-9.94-.29-17.14,4.51-21.4,13.22-4.3,8.8-2.53,17.23,3.67,24.49,6.28,7.35,14.35,9.75,23.73,6.91,2.2-.67,3.82-.34,5.48,1.32,27.99,28.06,56.01,56.08,84.06,84.07,1.6,1.6,1.95,3.14,1.29,5.29-4.56,14.82,6.58,29.68,22.15,29.71Z"/><path class="cls-1" d="M145.36,7.07c-9.71.37-18.85,8.38-21.07,18.19-1.02,4.51-.87,8.98.73,13.33.73,1.98.38,3.48-1.13,4.98-7.5,7.43-14.93,14.94-22.42,22.37-.68.68-1.68,1.42-2.55,1.44-.92.02-2.24-.57-2.68-1.31-.48-.81-.3-2.13-.12-3.18.09-.53.77-.97,1.21-1.42,6.69-6.71,13.36-13.45,20.12-20.09,1.14-1.12,1.43-2.02.99-3.6-5.58-20.07,13.2-40.46,33.68-36.68,1.42.26,2.6.72,3.07,2.17.5,1.56-.06,2.81-1.21,3.94-3.49,3.43-6.91,6.95-10.42,10.36-.88.86-1.17,1.6-.8,2.82,1.05,3.4,1.88,6.86,2.95,10.25.21.68.99,1.47,1.66,1.67,3.52,1.06,7.09,2.01,10.67,2.85.69.16,1.76-.1,2.26-.58,3.49-3.35,6.88-6.79,10.28-10.22,1.16-1.17,2.34-2.27,4.14-1.66,1.71.58,2.01,2.09,2.26,3.66,3.23,20.84-17.09,38.93-37.34,33.19-1.16-.33-1.82-.1-2.63.72-6.75,6.83-13.55,13.62-20.34,20.41-.53.53-1.1,1.08-1.75,1.45-1.26.71-2.5.44-3.49-.56-.99-1-1.25-2.23-.54-3.49.34-.6.84-1.11,1.32-1.6,7.41-7.43,14.85-14.83,22.22-22.31,1.51-1.53,2.98-1.77,4.97-1.1,13.82,4.67,28.08-3.41,31.23-17.64.16-.72.21-1.46-.06-2.41-2.31,2.32-4.74,4.54-6.91,6.99-1.81,2.04-3.71,2.47-6.28,1.69-4.62-1.4-9.3-2.59-13.97-3.78-1.75-.44-2.71-1.41-3.15-3.14-1.3-5.04-2.66-10.07-4.07-15.08-.52-1.85-.15-3.28,1.27-4.64,2.65-2.54,5.17-5.21,7.9-7.98Z"/><path class="cls-1" d="M43.75,123.14c4.83,2.88,8.25,6.3,11.26,11.38.53-.94.77-1.67,1.25-2.16,6.58-6.64,13.2-13.24,19.81-19.85.4-.4.78-.85,1.24-1.18,1.36-.98,2.77-.99,3.99.17,1.22,1.16,1.32,2.57.36,3.96-.39.57-.92,1.05-1.42,1.54-7.15,7.15-14.29,14.31-21.48,21.41-1.06,1.04-1.38,1.93-1.02,3.46,3.89,16.67-7.74,33.2-24.79,35.28-12.15,1.48-21.4-3.53-27.84-13.5-6.44-9.98-6.09-20.44.1-30.41,6.24-10.05,15.53-14.66,27.43-13.69.82.07,1.7.09,2.44.41,2.28.98,3.74.13,5.38-1.56,6.82-7.03,13.8-13.89,20.73-20.82.45-.45.87-.95,1.4-1.29,1.33-.85,2.69-.8,3.84.31,1.14,1.11,1.3,2.46.43,3.81-.37.58-.9,1.07-1.39,1.56-6.62,6.6-13.24,13.2-19.87,19.79-.45.44-1.02.76-1.84,1.37ZM29.6,171.14c12.5.02,22.84-10.11,22.82-22.36-.02-12.86-10.07-23.1-22.7-23.12-12.8-.03-22.88,10.13-22.92,23.08-.03,12.24,10.29,22.38,22.79,22.4Z"/><path class="cls-1" d="M152.18,164.36c-1.35-.37-2.32-.65-3.3-.91-3.19-.85-6.38-1.71-9.58-2.52-1.56-.4-2.52-1.28-2.94-2.89-.98-3.81-2.18-7.57-3.01-11.41-.23-1.05.14-2.63.85-3.42,2.77-3.06,5.78-5.9,8.71-8.83,1.03-1.03,2.21-1.35,3.66-.93,3.72,1.06,7.46,2.08,11.21,3.04,1.67.43,2.59,1.43,3.03,3.05.99,3.61,2.02,7.21,3.07,10.81.49,1.69.16,3.07-1.14,4.32-2.75,2.65-5.38,5.41-8.13,8.06-.73.71-1.71,1.16-2.43,1.63ZM157.47,150.82c-.67-2.54-1.35-4.91-1.92-7.32-.25-1.07-.82-1.57-1.85-1.82-2.46-.59-5.17-2.22-7.28-1.64-2.2.61-3.82,3.32-5.69,5.11-.09.09-.23.17-.26.27-.2.66-.63,1.38-.5,1.97.5,2.29,1.12,4.56,1.84,6.79.17.53.78,1.14,1.32,1.29,2.61.76,5.43,2.26,7.83,1.77,2.04-.42,3.6-3.18,5.36-4.91.27-.27.56-.52.79-.82.18-.23.29-.53.37-.69Z"/><path class="cls-1" d="M42.89,32.29c-.45.8-.77,1.72-1.38,2.37-2.28,2.39-4.65,4.69-6.98,7.03-1.04,1.04-2.24,1.31-3.67.91-3.11-.87-6.24-1.69-9.37-2.51-1.41-.37-2.34-1.18-2.72-2.63-.83-3.19-1.67-6.38-2.56-9.55-.43-1.52-.02-2.72,1.07-3.8,2.25-2.24,4.48-4.5,6.7-6.77,1.08-1.1,2.27-1.44,3.8-1,3.05.88,6.15,1.57,9.18,2.49.9.27,2.13.89,2.39,1.64,1.31,3.83,2.35,7.75,3.54,11.83ZM22.54,28.08c.57,2.07,1.06,4.03,1.68,5.96.11.35.71.64,1.14.78q5.69,1.83,9.82-2.46s.09-.09.13-.14c1.16-1.25-.42-7.4-2.04-7.95q-5.52-1.89-9.59,2.23c-.22.23-.48.43-.66.68-.21.29-.35.63-.49.89Z"/><path class="cls-1" d="M33.29,132.75c.45.23,1.36.48,1.95,1.05,3.03,2.9,6.07,5.81,8.9,8.9.72.79,1.13,2.37.91,3.42-.86,3.96-2.07,7.85-3.08,11.79-.39,1.52-1.26,2.43-2.76,2.82-3.99,1.04-7.95,2.21-11.98,3.09-.99.22-2.49-.18-3.24-.86-3.09-2.83-6.08-5.79-8.89-8.9-.7-.78-1.05-2.36-.82-3.42.86-3.97,1.93-7.89,3.14-11.77.31-1,1.28-2.23,2.22-2.53,4.1-1.32,8.3-2.34,12.47-3.46.24-.07.5-.06,1.18-.12ZM38.71,146.25c-.11-.19-.26-.66-.57-.98-1.77-1.82-3.54-3.64-5.4-5.36-.38-.35-1.16-.54-1.67-.43-2.41.55-4.8,1.18-7.15,1.92-.52.16-1.09.83-1.25,1.38-.78,2.6-2.37,5.46-1.84,7.81.49,2.16,3.31,3.8,5.1,5.67.13.14.25.34.41.39.67.21,1.41.65,2.01.52,2.35-.52,4.66-1.18,6.97-1.88.46-.14,1.03-.6,1.16-1.02.78-2.54,1.44-5.12,2.24-8.01Z"/></g></svg>