<?xml version="1.0" encoding="UTF-8"?><svg id="Capa_2" xmlns="http://www.w3.org/2000/svg" viewBox="0 0 178.2 213.68"><defs><style>.cls-1{fill:#f05a28;stroke:#ececec;stroke-miterlimit:10;stroke-width:.75px;}</style></defs><g id="Layer_2"><path class="cls-1" d="M3,213.31c-2.01-.94-2.63-2.56-2.63-4.72.03-63.12.02-126.25.03-189.37,0-3.5,1.23-4.66,4.82-4.67,5.4-.01,10.79,0,16.46,0,0-3.24,0-6.33,0-9.42.01-3.55,1.19-4.74,4.73-4.74,32.36,0,64.73-.02,97.09.07,1.42,0,3.19.71,4.2,1.7,16.2,16.04,32.29,32.2,48.44,48.29,1.43,1.43,1.67,3.05,1.67,4.91-.02,35.06-.01,70.12-.01,105.18,0,8.73,0,17.46,0,26.19,0,4.33-1.02,5.32-5.43,5.32-5.19,0-10.38,0-15.86,0,0,2.25,0,4.37,0,6.5,0,3.33-.1,6.66.03,9.98.09,2.19-.67,3.74-2.56,4.78H3ZM28.84,184.8h141.71V57.17c-.98,0-1.8,0-2.62,0-13.93,0-27.86,0-41.79,0-4,0-5.05-1.06-5.05-5.06,0-14,0-28,0-41.99v-2.51H28.84v177.19ZM149.34,192.05h-2.88c-39.72,0-79.44,0-119.16,0-4.68,0-5.61-.92-5.61-5.57,0-53.99,0-107.99,0-161.98v-2.72H7.63v184.32h141.71v-14.05ZM164.54,49.96c-12.1-12.09-24.33-24.3-36.23-36.19v36.19h36.23Z"/><path class="cls-1" d="M110.31,152.99c13.65,0,27.31,0,40.96,0,.69,0,1.39-.03,2.08.06,1.8.24,3.07,1.62,3.14,3.33.07,1.79-1.19,3.31-3.06,3.61-.68.11-1.38.08-2.07.08-27.31,0-54.61,0-81.92,0-.14,0-.28,0-.42,0-3-.02-4.69-1.28-4.72-3.51-.03-2.23,1.69-3.57,4.65-3.57,13.79,0,27.58,0,41.38,0Z"/><path class="cls-1" d="M110.53,110.4c13.44,0,26.89,0,40.33,0,.76,0,1.53-.01,2.28.08,2,.23,3.28,1.53,3.34,3.33.07,1.86-1.22,3.29-3.29,3.61-.61.09-1.24.09-1.86.1-27.3,0-54.61,0-81.91,0-.14,0-.28,0-.42,0-3-.05-4.68-1.32-4.71-3.54-.03-2.23,1.64-3.56,4.65-3.56,13.86-.02,27.72,0,41.58,0Z"/><path class="cls-1" d="M110.53,131.71c13.52,0,27.03,0,40.55,0,.76,0,1.53-.02,2.28.07,1.81.23,2.87,1.31,3.1,3.11.22,1.73-.85,3.22-2.65,3.68-.73.19-1.5.23-2.26.23-27.45.01-54.89.01-82.34,0-.82,0-1.67-.07-2.46-.3-1.69-.48-2.5-1.78-2.41-3.45.1-1.76,1.11-2.97,2.94-3.25.82-.12,1.66-.09,2.49-.09,13.58,0,27.17,0,40.75,0Z"/><path class="cls-1" d="M110.38,74.87c-13.58,0-27.17,0-40.75,0-.69,0-1.39.03-2.08-.05-1.82-.19-3.1-1.5-3.24-3.23-.13-1.7.97-3.19,2.77-3.62.66-.16,1.37-.18,2.06-.18,27.51,0,55.03,0,82.54,0,.82,0,1.68.06,2.45.32,1.63.55,2.45,1.8,2.32,3.52-.14,1.71-1.16,2.79-2.84,3.13-.74.15-1.52.1-2.28.1-13.65,0-27.31,0-40.96,0Z"/><path class="cls-1" d="M110.3,96.17c-13.58,0-27.17,0-40.75,0-3.55,0-5.29-1.2-5.25-3.58.04-2.36,1.8-3.52,5.36-3.52,27.17,0,54.33,0,81.5.01.96,0,1.96.03,2.87.29,1.66.47,2.52,1.71,2.43,3.43-.08,1.71-1.03,2.86-2.73,3.21-.87.18-1.79.15-2.69.16-13.58,0-27.17,0-40.75,0Z"/><path class="cls-1" d="M71.33,46.33c0,3.39.04,6.78-.01,10.17-.04,2.9-1.31,4.17-4.21,4.18-6.64.03-13.29.03-19.93,0-2.85-.01-4.19-1.35-4.21-4.23-.04-6.64-.04-13.29,0-19.93.02-2.86,1.36-4.15,4.25-4.16,6.64-.03,13.29-.03,19.93,0,2.9.01,4.12,1.27,4.16,4.21.04,3.25.01,6.5.01,9.76ZM64.07,53.51v-13.9h-13.92v13.9h13.92Z"/><path class="cls-1" d="M50,74.83c-1.25,0-2.5.08-3.74-.02-1.94-.15-2.98-1.37-3.24-3.21-.23-1.63.98-3.44,2.76-3.58,2.88-.22,5.8-.23,8.67.04,1.81.17,2.84,1.91,2.61,3.66-.24,1.8-1.31,2.9-3.12,3.08-1.3.13-2.63.02-3.94.02h0Z"/><path class="cls-1" d="M50.07,138.91c-1.53-.1-2.94-.06-4.28-.32-1.79-.35-3-1.96-2.77-3.6.25-1.84,1.29-3.12,3.23-3.21,2.56-.11,5.13-.11,7.68.01,1.81.09,2.88,1.25,3.12,3.05.23,1.75-.79,3.32-2.6,3.69-1.47.3-3.02.26-4.39.36Z"/><path class="cls-1" d="M49.93,160.05c-1.18,0-2.36.08-3.53-.02-1.99-.17-3.44-1.72-3.42-3.53.01-1.83,1.46-3.38,3.47-3.47,2.42-.1,4.85-.11,7.27,0,2.02.09,3.39,1.63,3.38,3.51-.01,1.87-1.39,3.33-3.42,3.49-1.24.1-2.49.02-3.74.02Z"/><path class="cls-1" d="M50.12,96.09c-1.31,0-2.64.09-3.94-.02-1.95-.16-2.95-1.43-3.16-3.27-.19-1.64,1.06-3.36,2.86-3.49,2.81-.2,5.66-.21,8.47.02,1.83.15,2.91,1.8,2.73,3.56-.18,1.8-1.19,2.97-3.01,3.15-1.3.13-2.63.03-3.94.03,0,0,0,0,0,.01Z"/><path class="cls-1" d="M50.23,110.5c1.24,0,2.5-.1,3.73.02,1.92.19,2.98,1.37,3.11,3.28.12,1.76-1,3.34-2.85,3.48-2.74.21-5.52.2-8.27.02-1.81-.12-3.01-1.76-2.97-3.42.04-1.7,1.29-3.05,3.09-3.36.2-.03.41-.08.62-.08,1.18,0,2.35,0,3.53,0,0,.02,0,.05,0,.07Z"/></g></svg>