<?xml version="1.0" encoding="UTF-8"?><svg id="Capa_2" xmlns="http://www.w3.org/2000/svg" viewBox="0 0 207.85 207.81"><defs><style>.cls-1{fill:#f05a28;stroke:#ececec;stroke-linejoin:round;stroke-width:7px;}</style></defs><g id="Layer_2"><path class="cls-1" d="M97.63,3.5c4.18,0,8.37,0,12.55,0,3.36.43,6.74.73,10.07,1.32,25.87,4.56,47.1,17.09,63.11,37.91,17.59,22.86,24.14,48.84,19.59,77.28-4.22,26.39-17.33,47.82-38.61,63.94-21.91,16.59-46.76,22.97-73.99,19.42-20.24-2.64-38.03-10.97-53.22-24.6-17.2-15.44-27.95-34.58-32.07-57.36-.67-3.71-1.05-7.48-1.56-11.22,0-4.18,0-8.37,0-12.55.3-2.45.56-4.91.91-7.36,3.16-21.88,12.39-40.82,27.88-56.6,15.03-15.31,33.16-24.9,54.32-28.63,3.65-.64,7.34-1.03,11.02-1.54ZM20.28,103.9c0,46.18,37.54,83.7,83.68,83.64,46.16-.07,83.46-37.34,83.58-83.53.13-46.12-37.34-83.66-83.58-83.73-46.14-.08-83.68,37.44-83.68,83.63Z"/><path class="cls-1" d="M112.11,118.38c-16.31-9.53-32.36-18.9-48.54-28.35,2.83-4.85,5.59-9.57,8.43-14.44,7.79,4.54,15.48,9.03,23.47,13.68v-43.73h16.64v72.83Z"/></g></svg>