<?xml version="1.0" encoding="UTF-8"?><svg id="Capa_2" xmlns="http://www.w3.org/2000/svg" viewBox="0 0 99.72 99.72"><defs><style>.cls-1{fill-rule:evenodd;}.cls-1,.cls-2{fill:#e6e7e8;}</style></defs><g id="Base"><path class="cls-1" d="M49.86,99.72c27.54,0,49.86-22.32,49.86-49.86S77.39,0,49.86,0,0,22.32,0,49.86s22.32,49.86,49.86,49.86h0ZM49.86,97.78c26.47,0,47.92-21.46,47.92-47.92S76.33,1.93,49.86,1.93,1.93,23.39,1.93,49.86s21.46,47.92,47.92,47.92h0Z"/><path class="cls-1" d="M49.86,84.74c19.21,0,34.88-15.67,34.88-34.88S69.07,14.98,49.86,14.98,14.98,30.65,14.98,49.86s15.67,34.88,34.88,34.88h0ZM50.24,82.89c17.98-.25,32.57-14.99,32.57-33.04s-14.59-32.78-32.57-33.04v66.07h0ZM48.81,16.82c-3.9.02-8.16.82-10.86,2.2v26.34h10.86v-28.54h0ZM48.81,54.65h-10.85v25.99c3.44,1.28,6.71,2.13,10.85,2.25v-28.23h0ZM28.58,24.57c-5.38,4.33-10.54,12.27-11.56,20.79h11.45l.11-20.79h0ZM16.97,54.68c1.86,8.85,5.2,15.2,11.6,20.47l.02-20.49-11.63.02h0Z"/><path class="cls-1" d="M57.72,37.14c-.35-.29-.33-.81-.33-1.31,0-.84.03-1.81,0-2.61,0-.18-.17-.38-.31-.49-.77-.57-1.54-1.11-2.32-1.68-.81-.79-1.58.46-1.09.99.72.57,1.95,1.4,2.13,1.76.22.45.16,2.03.13,3.08-.16.63-1.07.95-1.89.76-.32-.07-.45-.37-.89-.44-2.46-.36-2.84,3.14,0,2.78.45-.06.57-.37.89-.44.82-.18,1.73.14,1.89.76.02,1.05.09,2.63-.13,3.08-.18.35-1.41,1.19-2.13,1.76-.49.54.28,1.78,1.09.99.77-.57,1.54-1.11,2.32-1.68.14-.11.31-.31.31-.49.03-.81,0-1.77,0-2.61,0-.49-.02-1.01.33-1.31.47-.41,1.01-1.09,1.48-1.5.08,0-1.23-1.2-1.48-1.41h0Z"/><path class="cls-1" d="M58.87,35.28c2.45.04,4.42.21,6.87.12.76-.03,2.05-.51,1.89-1.35-.16-.85.06-1.08.85-1.09,1.23-.03,2.47.02,3.7,0,1.02-.02,1.33-.38,1.61-.72.33-.4.75.07,1.07.3,4.68,3.33,5.45,7.56,4.48,11.04-1.19,4.26-5.22,6.71-7.94,6.8h-11.7c-.02.8-.04,1.59-.06,2.39h11.82c2.93-.03,5.11,1.73,5.07,5.37-.21,3.63-2.54,5.5-5.19,5.49-3.84,0-7.68-.03-11.52,0-1.18.01-1.42,2.2,0,2.21,2.85,0,5.69.04,8.54,0,1.57-.02,2.85,1.44,2.73,3.51-.09,1.52-.99,2.87-2.97,2.88-1.75,0-3.5,0-5.25,0-1.25,0-1.13,2.12.15,2.13,1.23,0,2.32-.08,3.55,0,1.08.07,1.33,1.12.78,2.05-.43.71-1.15.59-1.31-.12-.13-.55-.33-.6-.72-.6-.76.01-1.51-.01-2.27,0-1.71.03-2.78-.92-2.79-2.33-.01-1.74.99-2.74,2.38-2.75,1.49,0,2.98.02,4.48,0,1.27-.02,1.97-.42,1.91-1.13-.07-.93-.74-1.15-1.55-1.13-2.51.03-5.01.03-7.52,0-2.67-.03-4.2-1.44-4.24-4.12-.03-2.59,1.52-4.27,3.46-4.3,3.94-.05,7.88.03,11.82,0,1.72-.01,1.78-2.41.18-2.39-4.12.06-8.24.02-12.35,0-3.14-.02-5.39-2.49-5.43-5.31-.05-3.48,2.42-6.8,5.67-6.8,3.82,0,7.09-.04,10.91,0,1.15.01,2.35-.64,2.12-2.33-.16-1.21-1.07-1.71-2.26-1.67h-10.83c-.03-1.52,1-2.05,2.33-1.97h5.67c1.03.08.81-2.24,0-2.27h-6.51c-1.08,0-1.73-.84-1.61-1.91h0Z"/><path class="cls-1" d="M69.12,26.3c.47,0,.85-.38.85-.85s-.38-.85-.85-.85-.85.38-.85.85.38.85.85.85h0ZM66.54,26.3c.47,0,.85-.38.85-.85s-.38-.85-.85-.85-.85.38-.85.85.38.85.85.85h0ZM63.96,26.3c.47,0,.85-.38.85-.85s-.38-.85-.85-.85-.85.38-.85.85.38.85.85.85h0ZM61.52,26.3c.47,0,.85-.38.85-.85s-.38-.85-.85-.85-.85.38-.85.85.38.85.85.85h0ZM58.94,26.3c.47,0,.85-.38.85-.85s-.38-.85-.85-.85-.85.38-.85.85.38.85.85.85h0Z"/><path class="cls-1" d="M69.9,30.93h-11.5v-3.7h11.5v3.7h0Z"/><path class="cls-2" d="M12.62,42.63l-.47,3.7,1.7.94-.36,2.83-9.82-5.26.37-2.92,10.81-2.58-.36,2.86-1.88.44h0ZM10.48,43.1l-3.42.68,3.14,1.54.28-2.23h0Z"/><polygon class="cls-2" points="7.92 29.85 15.31 33.18 16.64 30.23 18.73 31.17 16.29 36.59 6.81 32.3 7.92 29.85 7.92 29.85"/><polygon class="cls-2" points="18.25 18.84 16.12 21.3 17.42 22.43 19.36 20.2 21.09 21.7 19.15 23.94 22.24 26.61 20.47 28.65 12.62 21.83 16.52 17.34 18.25 18.84 18.25 18.84"/><path class="cls-2" d="M31.19,16.79l-3.14,2.01.37,1.91-2.4,1.54-2.25-10.91,2.48-1.59,8.9,6.64-2.43,1.56-1.54-1.16h0ZM29.46,15.45l-2.72-2.19.83,3.4,1.89-1.21h0Z"/><path class="cls-2" d="M48.9,9.46l3.57,3.99-3.34.26-2.89-3.78.31,3.98-2.69.21-.8-10.37,4.2-.32c1.02-.08,1.86.14,2.54.66.68.52,1.05,1.3,1.13,2.36.06.73-.1,1.35-.46,1.89-.36.53-.89.91-1.58,1.13h0ZM46.11,8.19c.09,0,.19-.01.28-.02.09,0,.19-.02.28-.04.4-.06.76-.19,1.08-.37.32-.19.46-.53.42-1.03-.04-.47-.22-.77-.55-.91-.33-.14-.69-.22-1.07-.23-.11,0-.22.01-.33.02-.1,0-.21,0-.31.02l.2,2.56h0Z"/><path class="cls-2" d="M56.45,8.78c.43-1.52,1.32-2.64,2.66-3.36,1.34-.72,2.81-.86,4.39-.41,1.58.45,2.75,1.33,3.52,2.65.77,1.32.93,2.74.5,4.26-.43,1.52-1.32,2.63-2.66,3.34-1.34.71-2.8.84-4.38.39-1.58-.45-2.75-1.33-3.52-2.64-.77-1.31-.94-2.72-.51-4.24h0ZM59.16,9.55c-.22.77-.13,1.51.27,2.22.4.71.98,1.17,1.75,1.39.78.22,1.52.14,2.23-.26.71-.39,1.17-.98,1.39-1.75.22-.78.14-1.52-.26-2.23-.39-.71-.98-1.17-1.76-1.39-.78-.22-1.52-.14-2.23.26-.71.39-1.17.98-1.39,1.76h0Z"/><polygon class="cls-2" points="68.77 18.5 76.9 11.79 78.92 13.53 76.88 19.1 82.2 16.36 84.24 18.13 78.62 27.01 76.58 25.25 79.91 20.22 74.1 23.11 73.29 22.41 75.39 16.31 70.8 20.25 68.77 18.5 68.77 18.5"/><polygon class="cls-2" points="90.14 31.31 88.53 28.53 87.04 29.4 88.56 32.03 86.58 33.17 85.05 30.55 83.5 31.44 85.11 34.22 83.13 35.37 80.17 30.26 89.16 25.04 92.13 30.16 90.14 31.31 90.14 31.31"/><path class="cls-2" d="M89.49,37.27c1.55-.28,2.95.02,4.19.91,1.24.89,2,2.14,2.3,3.76.29,1.62.02,3.06-.83,4.33-.85,1.27-2.05,2.04-3.6,2.32-1.55.28-2.95-.02-4.17-.91-1.23-.89-1.99-2.15-2.28-3.76-.29-1.62-.02-3.06.82-4.32.84-1.27,2.03-2.04,3.59-2.32h0ZM89.99,40.05c-.79.14-1.41.55-1.87,1.22-.46.67-.62,1.4-.48,2.19.14.8.55,1.43,1.21,1.89.66.46,1.39.62,2.18.48.8-.14,1.43-.55,1.89-1.21.46-.66.62-1.4.47-2.19-.14-.8-.55-1.43-1.21-1.89-.66-.46-1.4-.62-2.19-.47h0Z"/></g></svg>