<?xml version="1.0" encoding="UTF-8"?><svg id="Capa_2" xmlns="http://www.w3.org/2000/svg" viewBox="0 0 238.81 83.5"><defs><style>.cls-1{fill:#e6e7e8;fill-rule:evenodd;}</style></defs><g id="Base"><path class="cls-1" d="M197.06,0c-9.78,0-18.76,3.36-25.89,8.99-7.12-5.63-16.1-8.99-25.89-8.99s-18.77,3.36-25.89,8.99C112.29,3.36,103.3,0,93.52,0s-18.77,3.36-25.89,8.99C60.51,3.36,51.53,0,41.75,0,18.69,0,0,18.69,0,41.75s18.69,41.75,41.75,41.75c9.78,0,18.77-3.36,25.89-8.99,7.12,5.63,16.11,8.99,25.89,8.99s18.77-3.36,25.89-8.99c7.12,5.63,16.11,8.99,25.89,8.99s18.77-3.36,25.89-8.99c7.12,5.63,16.1,8.99,25.89,8.99,23.06,0,41.75-18.69,41.75-41.75S220.12,0,197.06,0h0ZM60.8,67.68c-5.32,3.88-11.97,6.25-19.05,6.25-17.79,0-32.18-14.4-32.18-32.18S23.96,9.56,41.75,9.56c7.09,0,13.73,2.37,19.05,6.25-5.66,7.13-9.03,16.12-9.03,25.93s3.41,18.82,9.03,25.93h0ZM67.63,60.87c-3.96-5.35-6.3-11.95-6.3-19.12s2.33-13.77,6.3-19.12c3.97,5.35,6.3,11.95,6.3,19.12s-2.34,13.77-6.3,19.12h0ZM112.58,67.68c-5.34,3.93-11.94,6.24-19.08,6.24s-13.69-2.31-19.03-6.24c5.62-7.11,9.03-16.16,9.03-25.93s-3.37-18.81-9.03-25.93c5.34-3.93,11.9-6.24,19.03-6.24s13.74,2.31,19.08,6.24c-5.66,7.13-9.03,16.12-9.03,25.93s3.41,18.82,9.03,25.93h0ZM119.41,60.87c-3.96-5.35-6.3-11.95-6.3-19.12s2.33-13.77,6.3-19.12c3.97,5.35,6.3,11.95,6.3,19.12s-2.34,13.77-6.3,19.12h0ZM164.35,67.68c-5.34,3.93-11.94,6.24-19.08,6.24s-13.69-2.31-19.03-6.24c5.62-7.11,9.03-16.16,9.03-25.93s-3.37-18.81-9.03-25.93c5.34-3.93,11.9-6.24,19.03-6.24s13.74,2.31,19.08,6.24c-5.66,7.13-9.03,16.12-9.03,25.93s3.41,18.82,9.03,25.93h0ZM171.18,60.87c-3.96-5.35-6.3-11.95-6.3-19.12s2.33-13.77,6.3-19.12c3.97,5.35,6.3,11.95,6.3,19.12s-2.34,13.77-6.3,19.12h0ZM197.06,73.93c-7.09,0-13.74-2.37-19.06-6.25,5.62-7.11,9.03-16.16,9.03-25.93s-3.37-18.81-9.03-25.93c5.32-3.88,11.97-6.25,19.06-6.25,17.79,0,32.18,14.39,32.18,32.18s-14.4,32.18-32.18,32.18h0Z"/></g></svg>