<?xml version="1.0" encoding="UTF-8"?><svg id="Capa_2" xmlns="http://www.w3.org/2000/svg" viewBox="0 0 100.98 100.98"><defs><style>.cls-1{fill:#fff;}.cls-2{fill:#e6e7e8;}</style></defs><g id="Base"><path class="cls-2" d="M86.19,14.79C76.65,5.25,63.97,0,50.49,0,22.65,0,0,22.65,0,50.49c0,13.49,5.25,26.16,14.79,35.7,9.54,9.54,22.21,14.79,35.7,14.79s26.16-5.25,35.7-14.79c9.54-9.54,14.79-22.21,14.79-35.7s-5.25-26.16-14.79-35.7ZM50.49,99.23c-13.02,0-25.26-5.07-34.46-14.28C6.82,75.75,1.75,63.51,1.75,50.49s5.07-25.26,14.28-34.46C25.23,6.82,37.47,1.75,50.49,1.75s25.26,5.07,34.46,14.28c9.21,9.21,14.28,21.45,14.28,34.46,0,26.88-21.87,48.74-48.74,48.74Z"/><path class="cls-2" d="M50.49,78.42c15.43,0,27.93-12.51,27.93-27.93h-27.93v27.93Z"/><path class="cls-2" d="M22.56,50.49h27.93v-27.93c-15.43,0-27.93,12.51-27.93,27.93Z"/><path class="cls-2" d="M50.49,3.76C24.68,3.76,3.76,24.68,3.76,50.49s20.92,46.73,46.73,46.73,46.73-20.92,46.73-46.73S76.3,3.76,50.49,3.76ZM50.49,80.34c-16.49,0-29.85-13.36-29.85-29.85s13.36-29.85,29.85-29.85,29.85,13.36,29.85,29.85-13.36,29.85-29.85,29.85Z"/><polygon class="cls-1" points="52.05 18.61 55.29 10.02 55.29 18.61 57.75 18.61 57.75 6.31 54.05 6.31 50.69 15.11 50.72 15.11 47.36 6.31 43.66 6.31 43.66 18.61 46.12 18.61 46.12 10.02 49.36 18.61 52.05 18.61"/><polygon class="cls-1" points="85.16 23.73 80.53 30.29 87.71 26.88 89.62 29.23 78.3 34.71 76.07 31.93 80.52 25.42 80.49 25.39 73.2 28.39 70.95 25.63 78.66 15.7 80.57 18.05 75.73 24.37 83.12 21.2 85.16 23.73"/><path class="cls-1" d="M28.55,22.01c-.99-.96-2.52-1.25-3.96-.36.27-.71.16-1.44.02-1.84-.62-1.13-.83-1.27-1.34-1.7-1.65-1.38-3.39-.2-4.63,1.28l-6,7.15,9.44,7.92,6.33-7.54c1.45-1.72,1.67-3.43.15-4.91ZM16.35,25.46l3.61-4.3c.42-.5,1.36-.48,1.97.03.67.56.67,1.35.22,1.89l-3.56,4.25-2.23-1.87ZM26.29,26.17l-3.76,4.48-2.36-1.98,3.79-4.51c.43-.51,1.38-.66,2.02-.12.73.61.8,1.54.3,2.13Z"/></g></svg>