<?xml version="1.0" encoding="UTF-8"?><svg id="Capa_2" xmlns="http://www.w3.org/2000/svg" viewBox="0 0 4680 2952.51"><defs><style>.cls-1{fill:#e6e7e8;}</style></defs><g id="Layer_1"><path class="cls-1" d="M1139.84,1530.09c13.13,66.4,28.95,132.07,54.36,195.09,15.26,35.95,31.34,71.43,53.95,103.69,42.64,61.21,99.18,106.07,167.76,135.69,28,12.2,56.33,22.62,85.48,31.23,81.02,24.49,164.64,36.93,248.68,43.78,80.5,6.89,161.53,12.5,242.45,15.51,116.92,4.36,233.43,5.86,324.71,7.88,97.83-1.35,169.73-2.18,241.52-3.53,100.94-2.34,202.3-6.12,303.66-13.64,75.41-5.29,150.43-12.56,225.12-26.61,61-11.36,121.17-26.87,178.03-51.98,94.92-41.75,166.61-107.63,209.66-202.5,18.16-40.05,34.03-80.66,45.75-122.99,22.51-80.87,37.45-163.04,48.96-245.77,10.9-81.96,20.03-164.33,28.32-246.6,8.2-81.96,13.39-164.33,15.15-246.49,3.01-132.17,4.36-264.29-6.95-396.15-4.26-50.83-12.76-100.64-28.74-149.13-26.36-82.27-71.27-152.04-140.69-204.48-45.02-33.67-94.72-56.7-147.31-73.92-70.75-23.03-143.37-35.32-216.93-44.3-89.52-10.9-179.99-18.57-270.05-22.72-93.57-4.77-187.15-8.1-280.42-10.17-125.11-3.01-250.44-2.34-376.07.27-141.3,2.85-282.3,8.66-423.17,21.42-70.14,6.33-140.37,13.69-209.67,26.51-58.51,10.99-116.29,25.73-170.87,49.59-93.57,40.46-165.16,104.58-209.77,197.12-25,52.44-40,108.1-47.52,165.42-8.45,60.64-11.72,121.8-12.55,182.74-.93,78.59-1.51,156.97,0,235.45,2.18,140.53,15.56,280.37,31.38,420.02,8.76,77.03,20.91,153.49,35.74,229.58M1200.33,767.72c1.66-67.22,4.04-134.45,8.3-201.42,3.53-59.4,10.06-117.95,27.8-175.42,22.72-72.89,61.52-134.41,124.28-179.54,35.59-25.46,75.21-43.47,116.72-57.26,45.96-15.26,93.26-24.8,140.88-30.87,66.29-8.4,132.9-16.07,199.71-22.51,46.58-4.46,93.58-7,140.68-9.18,77.81-3.53,155.52-8.04,233.32-8.76,114.22-1.09,228.66-.99,343.08,1.14,86.42,1.71,172.74,6.28,259.88,11.26,92.23,5.18,185.08,14.31,276.69,28.42,59.76,8.83,118.58,21.01,174.09,44.15,68.26,27.96,124.7,70.07,164.32,133.1,22.83,36.36,37.56,76.04,47.83,117.55,10.07,41.8,15.46,84.29,18.68,127.13,10.69,127.5,12.04,255.37,9.34,383.24-1.76,75.88-6.95,151.51-14.52,226.88-5.81,61.99-11.41,123.61-18.89,185.03-12.34,100.22-28.52,199.6-60.17,296.3-10.37,33.15-23.23,65.36-39.32,96.11-39.84,77.4-100.53,131.66-180.82,165.07-49.39,20.28-100.94,32.26-153.13,40.56-89.84,14.83-180.62,21.73-271.7,26.92-123.98,6.64-249.19,10.06-374.1,10.06h-29.78v1.76c-107.8-2.49-215.58-3.94-323.68-8.14-78.53-3.11-157.17-8.87-235.18-15.36-65.37-5.65-129.68-14.67-193.07-30.45-31.65-7.99-62.04-18.46-90.99-31.69-78.33-35.84-135.49-93.06-172.11-169.98-24.9-51.2-42.01-104.99-55.4-159.66-18.16-75.01-31.02-151.05-39.63-227.56-8.92-85.81-17.85-171.7-24.49-257.34-9.23-103.28-10.37-206.55-8.6-309.52"/><path class="cls-1" d="M540.09,2476.96c6.17,1.03,11.62,2.02,17.22,2.54,16.75,2.18,34.49,3.84,51.82,5.86,20.91,2.59,31.8,12.97,35.07,33.72.83,2.59,1.51,5.08,1.51,7.62,0,28.84-.42,57.38-.42,85.95,0,.63-1.08,1.51-1.35,2.18-15.55,2.55-315.27,1.76-325.13-1.03v-47.77c.57-15.15,0-30.46.99-45.34,2.18-20.69,13.64-32.16,33.97-35.01,9.39-1.66,19.25-2.07,28.63-3.37,14.22-1.51,28.12-3.33,42.59-5.34,0-13.08.27-24.74,0-36.62-.57-11.47,1.35-23.14-1.08-34.29H0v70.91c6.44,1.03,11.88,2.02,17.49,2.54,17.01,2.18,34.23,3.84,51.82,5.86,20.85,2.59,31.79,12.7,35.9,33.56.83,6.01.83,12.09.83,18.1v265.33c0,6.69,0,13.01-1.15,19.45-4.05,20.33-14.99,30.03-35.32,32.46-17.58,2.14-34.49,3.85-51.82,5.81-6.12.83-11.88,1.98-17.48,2.8v69.56c14.21,2.85,414.45,2.34,424.15-.57v-69.51c-21.94-2.65-43.62-5.45-65.19-7.68-26.46-2.85-38.6-13.79-39.58-40.51-.83-28.95-.25-57.99-.25-87.04,0-.84.93-1.25,1.24-1.92,17.74-2.86,314.71-1.87,325.09,1.08v84.09c0,3.57-.68,7-1.51,10.48-3.27,20.03-13.64,30.55-33.97,33.25-9.66,1.24-18.94,2.02-28.64,3.17-13.37,1.6-27.53,3.47-41.19,5.08v70.86h423.59v-70.75c-7.2-.99-13.89-1.87-20.59-2.75-16.65-1.76-33.41-3.47-50.31-5.6-19.25-2.7-29.36-12.56-33.2-31.85-1.2-7-1.51-14.37-1.51-21.68-.26-87.41-.26-174.34,0-261.59,0-6.85.31-13.8,1.24-20.75,4.1-20.65,15.31-30.3,36.42-33,9.7-1.24,20.08-2.07,29.62-3.17,12.7-1.5,25.26-3.26,38.33-4.98v-71.06h-423.89v70.91Z"/><path class="cls-1" d="M2469.94,2407.19v69.51c2.59.57,4.77,1.09,7.16,1.25,20.13,2.65,40.46,5.02,61,7.31,22.62,2.7,34.03,13.85,36.63,36.42.72,3.42.72,6.95.72,10.37v252.16c0,2.7-.72,5.34-1.35,9.81-4.77-5.76-7.99-9.91-10.58-13.91-88.81-116.09-177.09-231.97-264.86-348.32-13.07-17.22-28.22-26.5-49.38-26.5-3.53,0-7.27-.11-10.58-.11h-349.83c-3.53,0-7.27.47-11.73.88v70.91c5.3.83,10.07,1.87,14.43,2.38,17.85,2.08,35.16,3.85,53.53,5.92,21.79,2.28,33.2,12.92,37.03,34.96,1.15,6.07.63,12.24.63,18.21.52,87.66.52,175.06.52,262.73,0,4.62,0,9.45-.83,14.22-1.98,24.49-13.91,36.58-38.81,39.17-9.65.99-19.5,1.96-29.67,3.26-12.34,1.51-24.58,3.33-36.83,4.93v69.72c13.91,2.75,328.25,2.34,337.9-.27,2.18-15.51,1.66-60.32-.83-69.92-6.43-.78-12.76-1.66-19.2-2.38-16.81-1.92-33.2-3.47-49.27-5.86-21.07-2.59-32.58-14.94-34.65-36.06-.31-4.82-.31-9.38-.31-14.2-.21-81.13,0-162.16,0-243.23v-12.4c.83,0,1.55-.41,2.9-.67,2.7,3.83,5.6,7.52,8.62,11.2,87.97,116.2,176.68,232.13,264.33,348.73,14.21,18.62,31.43,26.97,54.57,26.83,83.52-.41,166.93-.27,250.65-.27,3.11,0,7.16-.62,11.21-1.03v-391.32c0-6.28,0-12.25.51-18.21,1.67-22.98,14.21-35.43,36.83-38.13,10.27-1.08,20.13-2.07,29.78-3.31,13.07-1.35,25.62-3.27,38.18-4.98v-70.8c-19.72-2.44-328.87-1.51-338.42,1.03"/><path class="cls-1" d="M3718.82,2639.89c-6.44-67.18-34.76-122.94-88.71-164.49-23.86-18.36-50.94-31.69-78.85-42.27-56.54-20.6-115.57-27.85-175.74-27.96-171.38-.36-343.08,0-513.95,0-3.94,0-7.78.26-11.72.72v71.64c18.68,1.81,36.83,3.84,55.09,5.6,33.61,3.53,43.78,14.73,43.78,48.6v270.62c0,5.96-.21,12.08-1.04,18.1-3.94,21.42-15.04,31.49-36.83,34.08-9.96.83-19.81,1.96-29.78,3.17-12.55,1.5-25.62,3.42-38.49,5.02v71.48h17.65c165.36,0,330.53.15,496-.41,30.19,0,60.8-1.2,91.19-4.15,46.79-4.41,92.23-16.03,134.77-36.47,60.48-29.3,104.26-73.29,125.42-137.66,12.25-37.82,14.94-76.67,11.21-115.63M3467.97,2742.75c-3.33,13.6-8.51,27.39-15.47,39.64-15.46,27.08-41.08,40.72-71.17,46.12-14.72,2.54-30.09,3.73-45.13,3.78-55.4.72-110.79.31-165.99.31-3.84,0-7.57-.42-11.72-.56v-323.99c3.11-.27,6.12-1.04,9.23-1.04,57.58,0,115.05-.16,172.74,0,19.5.16,39.52,2.54,58.5,8.62,29.78,10.01,50.11,29.25,61.84,57.78,11.41,26.76,13.59,55.51,14.94,84.03.83,28.84,0,57.42-7.78,85.33"/><path class="cls-1" d="M1751.72,2467.73c-39.12-28.69-83.51-45.81-130.31-57.99-65.77-17.33-133.41-22-199.71-22.51-62.76.25-123.14,4.41-182.8,17.58-45.85,10.01-89.9,24.63-129.73,48.91-80.5,48.76-122.77,119.93-123.19,213.98-.83,91.71,37.91,162.93,114.84,213.14,21.16,13.75,43.68,24.59,67.96,33.61,53.43,19.92,109.13,29.94,166.3,34.5,84.96,6.59,169.31,4.72,253.24-11.26,48.13-9.34,94.41-24.07,136.84-48.6,77.29-44.61,122.52-110.39,128.12-200.02,5.81-91.61-26.56-166.57-101.56-221.34M1602.43,2735.17c-12.24,58.05-47.83,94.16-104.99,107.69-52.9,12.34-106.44,12.25-158.94-1.14-56.85-14.32-90.36-51.46-101.45-108.26-4.46-20.54-5.61-41.8-8.09-62.96,1.35-25.11,3.42-49.59,9.95-73.45,13.39-51.67,45.97-84.82,97.32-98.56,53.12-14.31,107.68-14.31,161.53-1.66,56.54,13.69,92.22,49.32,104.47,106.7,9.65,43.73,9.65,87.87.2,131.65"/><path class="cls-1" d="M4563.5,2821.18c-39.12-60.89-79.26-121.22-118.79-181.86-43.78-66.76-87.88-133.21-131.24-200.12-14.2-22.1-32.36-34.39-59.96-34.39-128.85.62-257.39.2-386.34.2-3.63,0-7.47.57-11.42.88v71.07c5.3.99,10.07,1.71,15.36,2.38,25.32,2.91,49.79,5.61,75.52,8.62,21.89,2.39,32.58,21.43,22.72,41.39-1.66,3.17-3.22,5.97-5.29,9.08-58.82,95.24-117.75,190.32-176.26,285.56-2.49,4.25-5.09,8.19-8.09,11.93-8.19,11-18.88,17.27-33.09,18.62-9.03.83-18.98,1.87-28.22,2.85-13.17,1.67-26.77,3.38-39.84,5.19v70.02c18.88,3.02,328.76,2.19,338.21-.98v-69.15c-8.09-.99-16.19-1.87-23.97-2.86-13.59-1.5-27.49-2.23-41.19-5.08-22.1-4.62-28.74-20.75-17.33-39.84,6.12-11.05,13.69-21.12,19.5-32.32,4.66-8.62,10.27-10.63,19.81-10.63,100.01.47,200.02.26,300.03.26,2.39,0,4.88-.52,6.64.21,2.7.72,6.75,1.97,8.62,4.36,8.62,12.97,17.63,25.68,24.8,39.53,8.4,15.04,3.63,28.47-12.56,34.7-9.34,3.47-19.19,4.93-29.46,6.28-16.19,2.12-32.26,3.53-49.39,5.29v70.23c2.5.73,3.43,1.35,4.57,1.35,148.36.16,296.61.16,445.16.16,1.87,0,4.37-.52,6.44-.78.2,0,.52-.41.72-.73.63,0,.63-.56.83-1.08v-68.94c-20.53-2.5-41.19-5.66-61-7.21-24.8-1.92-41.8-13.8-55.5-34.19M4019.05,2676.56c33.4-53.33,65.46-105.46,97.62-158.06,7.68,6.28,95.65,138.55,105.1,157.59-9.14,2.75-183.21,3.42-202.72.47"/><path class="cls-1" d="M1588.85,307.15c3.11,45.44,5.91,90.93,8.82,136.21,4.57,74.49,9.65,148.93,14.21,223.26,3.94,61.05,7.67,122.11,11.72,182.95,4.57,70.8,9.86,141.98,14.73,212.57,3.42,56.75,7.16,113.5,11.52,170.14,5.29,77.34,11.21,154.62,16.5,231.97,5.19,63.02,9.43,126.35,14.42,189.44,5.92,72.98,12.04,145.71,18.16,218.9.31,6.23,1.35,12.5,2.18,18.52,45.76,10.07,213.92,18.42,253.55,17.69,1.56-5.49,3.22-11.1,4.98-16.9,21.68-79.68,43.16-159.72,65.67-239.13,12.24-43.47,27.91-85.7,49.07-126.05,25.93-50.58,67.12-78.9,123.35-87.62,48.56-7.62,97.52-11.3,146.49-11.3s98.98,3.69,148.05,11.77c53.32,9.08,93.57,36.27,118.58,84.35,5.29,10.42,10.69,20.85,15.46,31.69,17.11,39.58,31.65,80.46,42.84,122.26,20.03,71.43,38.7,142.91,58.21,214.59,1.66,5.66,3.53,11.26,5.08,16.34,49.48,2.8,230.32-10.68,254.28-18.98,47.31-566.08,82.68-1133.45,118.58-1702.03-58.93-8.71-117.23-11.88-176.05-13.43-1.35,4.98-2.18,8.6-3.02,12.4-23.65,106.96-47.31,213.87-71.06,320.93-35.07,156.44-73.25,312.01-114.74,466.79-13.9,50.37-30.09,99.81-52.9,146.75-43.26,90.72-116.2,140.68-215.58,154.57-36.83,5.25-74.18,6.8-111.42,7.11-54.68.26-109.04,0-162.78-10.17-67.43-12.24-123.04-43.46-165.58-97.78-21.36-27.08-35.79-58.1-48.66-89.95-21.88-54.88-37.66-111.67-52.9-168.64-58.62-226.06-109.65-453.73-158.83-681.8-4.57-19.92-9.14-39.48-13.91-60.22-59.13,1.4-117.12,4.98-175.64,13.01,0,4.78-.31,7.94,0,10.85,1.87,36.36,4.77,72.57,6.64,108.93"/></g></svg>