<?xml version="1.0" encoding="UTF-8"?><svg id="Capa_2" xmlns="http://www.w3.org/2000/svg" viewBox="0 0 1824.8 818.14"><defs><style>.cls-1{fill:#e7e7e7;}</style></defs><g id="Layer_1"><path class="cls-1" d="M1747.09,764.27c15.06-3.36,28.7-5.2,41.48-9.57,19.5-6.68,28.5-20.26,28.02-38.48-.53-20.33-9.57-34.22-30.03-39.28-17.53-4.33-35.98-6.5-54.09-6.8-53.68-.85-107.36-.32-161.06-.28-4.03,0-8.08.32-12.15.5v143.98h53.72v-50.54c24.74,0,48.23-.16,71.72.21,3.07.05,6.23,2.61,9.11,4.37,17.53,10.71,36.3,19.91,52.19,32.71,24.26,19.53,51.34,12.75,78.81,11.31-25.57-15.84-51.14-31.66-77.71-48.14ZM1734.61,746.55c-39.88.16-79.73.09-120.93.09v-59.95c6.64,0,12.59-.02,18.56,0,33.05.16,66.11.05,99.16.55,26.12.41,35.96,12.64,29.03,43.4-1.21,5.36-8.35,9.93-13.67,13.57-3.14,2.15-8.06,2.31-12.16,2.33Z"/><path class="cls-1" d="M1498.88,801.47c-32.83-38-66.25-75.49-98.15-114.2-11.01-13.35-22.41-20.12-39.6-17.6-7.07,1.03-14.6-.76-21.61.48-5.77,1.01-12.7,3.16-16.32,7.28-37.43,42.53-74.33,85.57-111.32,128.49-2.08,2.4-3.75,5.15-5.72,7.94,19.59,4.37,35.55,1.72,45.64-16.6,1.44-2.61,4.17-4.46,5.86-6.96,4.49-6.68,10.51-8.58,18.5-8.52,36.9.39,73.91,1.76,110.72-.37,25.09-1.47,44.2,4.12,57.43,26.28,2.01,3.36,6.89,6.91,10.58,7.07,17.37.73,34.79.32,55.58.32-5.24-6.18-8.38-9.93-11.58-13.62ZM1278.61,765.96c22.11-25.61,42.87-49.67,64.57-74.81,21.59,25,42.3,48.96,64.64,74.81h-129.22Z"/><path class="cls-1" d="M1179.47,745.39c-.3,33.88-14.15,53.36-46.95,62.79-15.61,4.49-32.02,7.12-48.23,8.19-38.39,2.59-76.91,3.41-114.82-5.1-42.16-9.5-57.71-29.16-57.71-71.88v-68.83h53.61c.21,4.03.57,8.03.6,12.04.07,21.29-.27,42.6.16,63.89.48,24.42,12.7,41.18,36.01,48.51,27.56,8.65,55.67,8.61,83.39,1.17,27.06-7.26,39.53-24.63,40.08-53.82.39-20.53.43-41.09-.07-61.6-.21-8.38,2.24-11.51,10.94-11.08,13.62.66,27.31.18,41.96.18.41,4.03,1.03,7.28,1.03,10.51.09,21.68.21,43.35,0,65.03Z"/><path class="cls-1" d="M851.47,749.21v64.62c-1.47.48-2.52,1.14-3.57,1.12-62.79-1.28-125.65-1.83-188.39-4.56-15.41-.66-31.38-6.59-45.53-13.39-24.84-11.95-30.7-34.82-29.6-60.57,1.03-23.87,10.94-42.58,33.31-51.34,16.07-6.32,33.6-11.61,50.66-12.27,57.46-2.17,115-2.08,172.5-2.82,1.05,0,2.11.64,3.71,1.14v15.91h-12.48c-41.89.11-83.83-.37-125.69.66-12.68.32-25.87,3.14-37.72,7.65-19.71,7.46-29.41,23.26-29.83,44.43-.39,21.01,8.15,37.38,27.49,45.99,10.58,4.72,22.5,8.29,33.95,8.77,30.81,1.28,61.71.66,92.57.73,1.42.02,2.84-.57,5.52-1.17v-44.91h53.11Z"/><path class="cls-1" d="M552.15,803.14c-28.64-33.12-57.25-66.27-85.98-99.35-9.71-11.19-17.76-26.51-30.12-32-12.8-5.68-29.92-2.4-45.07-1.6-5.61.3-12.57,3.32-16.23,7.46-37.45,42.6-74.37,85.7-111.41,128.67-1.88,2.15-3.36,4.62-5.79,8.06,17.81,1.69,33.95,3.8,43.74-14.33,1.95-3.62,5.65-6.23,8.01-9.66,4.53-6.59,10.44-8.68,18.45-8.61,38.48.39,77.05,1.67,115.44-.39,22.59-1.24,38.82,4.65,50.66,23.78,2.45,3.94,6.91,9.13,10.69,9.34,18.31.96,36.69.44,57.23.44-4.37-5.4-6.91-8.68-9.61-11.81ZM330.77,765.53c22.02-25.52,42.55-49.31,64.19-74.39,21.49,24.88,42.1,48.71,64.28,74.39h-128.46Z"/><path class="cls-1" d="M232.84,670.81c-1.44,31.41-1.26,62.56-4.81,93.28-2.27,19.62-18.2,30.79-36.05,37.95-27.47,11.03-56.59,11.51-85.45,12.41-33.49,1.05-67.05.53-100.56.62-1.81,0-3.64-.44-5.97-.73v-18.91h12.22c32.37-.09,64.76.09,97.13-.41,8.65-.14,17.49-1.58,25.89-3.78,28.64-7.49,41.96-24.88,42.19-54.48.18-21.65.05-43.31.05-65.95h55.37Z"/><path class="cls-1" d="M1738.02,437.14c-9,.39-18.72,3.82-26.53,8.52-37.52,22.48-75.72,24.2-114.32,4.44-53.54-27.4-107.31-54.48-159.71-83.99-187.59-105.62-383.08-194.07-584.81-268.69C721.97,49.07,588.41,11.08,448.36,1.46c-53.56-3.69-106.65-.98-158.4,14.86-24.61,7.53-48.12,17.4-66.31,36.49-6.18,6.48-13,12.96-10.87,23.81.46,2.4-2.61,5.86-4.67,8.31-8.56,10.19-18.24,19.55-25.71,30.44-3.36,4.9-5.24,13.92-3,18.91,4.58,10.16,11.61,19.62,19.21,27.9,4.85,5.26,12.13,9.55,19.09,11.35,10.62,2.75,21.88,3,32.89,4.23.5.05,1.1-.78,1.65-1.24h.02c-.64-1.95-1.21-3.8-1.74-5.59-.34-1.19-.66-2.33-.96-3.48-4.6-17.72-2.72-27.88,6.25-38.98,10.35-12.8,27.49-11.15,32.41,4.35,2.95,9.25,3.27,20.37,1.33,29.94-3.94,19.16-13.14,23.88-30.33,19.48-1.17,8.15-2.66,16.34-3.36,24.61-.23,2.66.82,6.25,2.63,8.1,17.01,17.51,43.01,15.52,57.3-4.03,3.59-4.92,6.94-10.19,11.31-14.33,27.9-26.37,59.68-42.42,99.28-33.12,25.27,5.93,47.04,19.34,67.18,35.39.69.53.71,1.85.98,2.61-.57.6-.78,1.05-1.05,1.1-7.51,1.17-14.99,2.77-22.57,3.36-51.34,4.05-90.56,27.56-115.09,73.11-5.2,9.64-8.61,21.56-8.56,32.41.11,25.29,25.32,40.88,48.73,31.8,22.02-8.54,37.56-23.9,48.05-44.89,8.7-17.44,16.8-20.72,35.07-14.56,36.44,12.29,72.61,25.41,109.3,36.85,25.71,8.01,51.78,15.79,78.29,20.1,28.84,4.67,57.91,3.57,82.27-17.37,2.22-1.92,7.69-.73,11.49-.11,26.23,4.28,52.44,12.38,78.63,12.41,45.19.02,90.51-3.52,135.49-8.22,43.17-4.51,82.15,6.07,105.55,51.89,8.95,17.53,20.3,34.04,32.14,49.81,36.01,48.05,84.47,72.52,144.67,71.33,28.5-.55,56.95-4.03,85.43-6.07,39.81-2.84,79.91-5.08,115.07,18.34,17.31,11.51,32.37,26.32,48.62,39.42,13.3,10.71,26.21,22.11,40.49,31.36,13.32,8.63,28.66,9.61,43.93,3.85,15.59-5.91,27.33-17.92,32-32.25,2.72-8.38-5.7-20.42-9.16-30.97,5.06.64,12.18,1.85,19.34,2.45,31.59,2.68,62.56.98,91.01-14.97,17.92-10.05,31.13-24.58,36.92-44.59,4.85-16.73-5.2-30.65-22.57-29.92ZM458.32,12.47c161.79,14.22,314.43,63.43,464.31,122.79,1.74.71,3.36,1.65,5.04,2.5-95.87-28.5-188.71-67.23-290.96-77.81,2.29,5.52,3.94,9.45,6.36,15.31-4.78-2.7-7.97-4.37-11.03-6.25-52.58-31.86-110.04-48.37-171.06-51.48-16.21-.82-32.76,4.62-49.54,7.26.25-1.4.76-4.14,1.51-8.31h-59.08c34.68-7.97,69.68-7.07,104.45-4.01ZM1747.34,475.09c-.73,5.15-4.76,10.32-8.52,14.42-11.61,12.7-26.1,20.99-42.97,24.49-61.39,12.8-114.71-.94-158.08-47.91-12.91-13.96-26.71-27.13-40.22-40.54-14.33-14.26-31.57-21.97-51.85-23.6-28.48-2.27-56.88-5.29-85.36-7.71-31.38-2.68-55.01-18.5-73.64-42.92-5.08-6.66-9.48-13.87-14.95-20.17-7.62-8.79-15.98-16.96-24.01-25.41-.34.53-.69,1.05-1.03,1.58,8.65,16.39,17.99,32.48,25.84,49.24,16.5,35.27,42.44,54.34,82.68,52.67,25.09-1.05,50.29.05,75.42-.27,30.54-.39,55.58,10.53,75.06,34.31,11.33,13.83,22.27,28.25,35.32,40.33,14.92,13.83,31.98,25.39,48.14,37.88,4.81,3.71,10.16,6.82,14.49,11.01,12.61,12.16,10.78,21.49-6.36,25.64-10.37,2.49-21.79.89-32.73.78-3.69-.05-7.37-1.17-11.33-.71,12.11,11.97,27.26,13.87,46.28,11.65-15.34,11.79-29.83,13.09-42.97,5.79-16.14-8.93-31.22-20.1-45.64-31.68-14.83-11.88-28.43-25.29-42.39-38.23-27.01-25.04-59.38-37.08-95.71-37.13-37.68-.05-75.42.73-113.03,3.09-56.45,3.55-103.44-15.45-140.78-57-14.63-16.28-27.06-34.89-38.41-53.68-18.15-30.01-39.74-56.65-67.25-78.42-4.92-3.89-10.46-7.03-17.35-11.63,9.71,14.26,18.18,26.71,28.13,41.39-14.72,0-25.2-.71-35.57.14-20.49,1.69-40.86,4.78-61.35,6.34-48.07,3.66-95.96,4.05-142.77-10.14-2.91-.87-5.75-1.99-8.68-2.86-11.97-3.48-17.95-8.95-17.83-23.88.11-15.59-6.64-31.25-10.53-47.52,45.19,13.78,92.27,21.08,140.66,16.46,2.54-.25,4.99-1.17,7.53-2.45-66.73-5.72-129.9-22-186.99-59.33,5.72,9.59,12.54,18.7,16.89,28.87,6.82,15.95,13.94,32.23,17.37,49.1,5.27,25.73-7.14,43.29-32.55,50.82-24.61,7.33-49.28,4.49-73.39-1.79-50.45-13.14-100.6-27.51-151.01-40.93-8.68-2.31-18.06-3.69-26.96-3.09-12.7.85-21.38,8.17-25.68,20.83-2.15,6.32-5.61,12.61-9.89,17.72-5.33,6.34-10.16,14.9-21.43,11.03-12.52-4.3-20.28-13.21-21.06-25.61-.21-3.36-.02-6.73-.02-10.69-13.71,16.02-10.09,33.26,9.82,47.43-6.78,6.48-12.54,6.25-19.21-.39-14.24-14.12-16.71-29.6-7.37-47.7,22.52-43.72,59.08-63.66,107.45-68.01,36.24-3.25,70.32.02,103.83,14.47,15.43,6.64,32.28,10,49.08,13.39-45.16-19.43-87.44-41.27-102.76-93.19-1.19.11-2.38.25-3.57.37.8,15.15,1.58,30.31,2.4,46.47-7.49-4.65-15.41-9.36-23.17-14.4-26.1-16.92-53.86-29.55-84.4-36.67-7.35-1.72-13.92-9.48-19.43-15.7-7.53-8.47-13.14-18.63-20.69-27.03-4.28-4.76-10.83-7.46-17.24-11.67,2.84,13.28,5.88,24.47,7.49,35.87,2.7,19.43-5.06,35.69-22.14,43.88-17.85,8.54-29.67,21.95-40.1,37.36-6.59,9.75-14.26,11.31-24.47,6.71-9.32-4.21-9.52-6-2.52-13.37,9.43-9.89,19.05-19.78,27.15-30.72,13.41-18.13,12.13-37.77,2.54-57.18-5.45-11.08-14.42-17.37-27.24-17.56-12.34-.16-19.73,6.8-24.88,16.94-5.15,10.19-9.68,20.72-15.25,30.65-6.64,11.88-14.97,14.7-25.52,9.75-12.48-5.81-17.9-17.15-13.21-28.89,8.24-20.58,23.46-32.46,45.74-34.36,20.3-1.76,34.63-12.5,45.48-28.87,1.17-1.79,1.81-3.89,3.11-6.82-22.41-1.69-42.37-1.51-53.06,22.2-1.1,2.45-7.28,2.61-11.1,3.85-1.26-4.33-4.9-10.46-3.27-12.64,4.88-6.46,11.06-12.82,18.11-16.64,27.83-15.08,58.17-22.89,89.5-25.2,21.01-1.56,42.23-.3,63.41-.3-6.82,21.27-28.59,31.47-68.24,30.9,3.55,4.33,5.52,8.4,8.79,10.37,5.77,3.5,12.09,7.19,18.61,8.29,39.3,6.59,71.24,27.81,102.6,50.34,3.37,2.4,6.66,4.92,10.69,6.59-19.14-34.13-44.75-61.21-85.02-74.74,4.88-4.21,7.76-7.05,10.99-9.43,29.94-22.09,63.25-25.25,98.98-19.14,68.28,11.65,130.61,35.48,183.81,82.98-6.27-12.91-12.57-25.8-19.94-40.91,13.41,2.29,25.55,3.89,37.45,6.5,82.82,18.08,162.59,46.29,241.95,75.22,180.52,65.83,356.66,141.62,525.11,234.58,43.01,23.72,86.92,45.83,130.71,68.05,27.38,13.87,56.54,20.74,87.35,15.98,9.23-1.42,18.18-5.15,26.99-8.47,7.46-2.82,14.31-7.58,21.93-9.48,4.85-1.19,12.89-.62,15.43,2.49,3.46,4.21,4.58,11.81,3.75,17.56ZM245.75,81.65c2.88-13.8,7.71-16.66,23.33-14.15-4.21,10.96-13.09,13.09-23.33,14.15Z"/><path class="cls-1" d="M377.7,32.89c-9.06,10.48-22.71,13.71-35.87,10.44-.23-1.37-.46-2.72-.69-4.1,11.38-1.97,22.73-3.94,36.56-6.34Z"/></g></svg>