<?xml version="1.0" encoding="UTF-8"?><svg id="Capa_2" xmlns="http://www.w3.org/2000/svg" viewBox="0 0 121.11 49.71"><defs><style>.cls-1{fill:#e6e7e8;fill-rule:evenodd;}</style></defs><g id="Base"><path class="cls-1" d="M30.35,25.81c0,11.14-5.13,15.4-15.4,15.4S0,35.48,0,26.69v-5.57h11.29v4.55c0,3.08,0,6.01,3.37,6.01s3.08-3.96,3.08-5.72V0h12.61v25.81h0Z"/><path class="cls-1" d="M41.64,22.29c.44-3.08,2.2-4.84,5.13-4.84,2.64,0,4.55,2.2,4.55,4.84h-9.68ZM61.14,28.15c0-11.44-4.69-17.89-15.25-17.89-8.5,0-14.08,6.89-14.08,15.4,0,9.82,6.45,15.4,14.96,15.4,6.16,0,11.73-2.93,13.78-9.24h-9.53c-.88,1.32-2.64,2.05-4.25,2.05-3.23,0-4.99-2.35-5.28-5.72h19.65Z"/><path class="cls-1" d="M71.7,22.29c.44-3.08,2.2-4.84,5.13-4.84,2.64,0,4.55,2.2,4.55,4.84h-9.68ZM91.2,28.15c0-11.44-4.69-17.89-15.25-17.89-8.5,0-14.08,6.89-14.08,15.4,0,9.82,6.45,15.4,14.96,15.4,6.01,0,11.73-2.93,13.78-9.24h-9.53c-.88,1.32-2.64,2.05-4.25,2.05-3.23,0-4.99-2.35-5.28-5.72h19.65Z"/><path class="cls-1" d="M102.05,25.66c0-3.52.73-7.18,4.4-7.18s4.55,3.67,4.55,7.18-.88,7.18-4.55,7.18-4.4-3.81-4.4-7.18h0ZM92.23,49.71h10.12v-12.61h.15c1.47,2.49,4.25,3.96,7.33,3.96,8.94,0,11.29-8.36,11.29-15.25,0-7.33-3.52-15.54-11.14-15.54-4.99,0-6.6,2.05-7.92,3.96h0v-3.23h-9.82v38.71h0Z"/><path class="cls-1" d="M116.57,44.57c0-1.32.88-2.2,2.05-2.2s2.05.88,2.05,2.2c0,1.17-.88,2.05-2.05,2.05s-2.05-.88-2.05-2.05h0ZM115.98,44.57c0,1.32,1.17,2.49,2.64,2.49,1.32,0,2.49-1.17,2.49-2.49,0-1.47-1.17-2.49-2.49-2.49-1.47,0-2.64,1.03-2.64,2.49h0ZM117.59,46.04h.44v-1.32h.59l.73,1.32h.59l-.88-1.32c.44,0,.73-.29.73-.88,0-.44-.29-.73-1.03-.73h-1.17v2.93h0ZM118.03,43.4h.73c.29,0,.59.15.59.44,0,.44-.44.59-.73.59h-.59v-1.03h0Z"/></g></svg>