<?xml version="1.0" encoding="UTF-8"?><svg id="Capa_2" xmlns="http://www.w3.org/2000/svg" viewBox="0 0 1913.14 1008"><defs><style>.cls-1{fill:#e6e7e8;}</style></defs><g id="Layer_1"><path class="cls-1" d="M1912.47,471.4c-1.41-8.59-2.46-17.25-4.25-25.76-9.65-45.81-29.93-86.76-57.54-124.28-30.89-42.01-68.66-77.06-110.27-108.13-55.43-41.39-115.86-73.97-179.38-101.02-98.09-41.78-200.29-69.3-305.19-87.31-44.79-7.69-89.79-13.88-135.11-17.28-36.99-2.78-74.04-5.05-111.1-6.51-51.79-2.03-103.62-1.24-155.34,2.15-34.15,2.24-68.29,4.96-102.32,8.58-27.82,2.97-55.52,7.21-83.17,11.54-55.34,8.67-109.96,20.78-163.88,35.94-77.66,21.82-152.9,49.92-224.43,87.45-59.46,31.19-114.91,68.17-163.64,114.69-35.11,33.52-65.07,70.96-86.53,114.77C3.93,430.16-5.62,486.85,3.19,546.36c5.62,37.98,18.94,73.3,38.2,106.43,27.98,48.09,65.46,87.88,108.19,123,57.24,47.02,120.89,83.43,188.37,113.48,68.68,30.59,139.85,53.85,212.83,71.72,74.56,18.26,150.1,30.7,226.49,38.2,46.25,4.54,92.58,7.38,139.04,8.34,1.23.02,2.44.31,3.66.48h74.73c1.23-.16,2.44-.46,3.66-.48,42.46-.78,84.84-3.21,127.12-7.12,96.31-8.93,191.29-25.34,284.48-51.54,68.82-19.36,135.77-43.76,200.06-75.21,64.35-31.48,124.54-69.3,177.73-117.62,39.09-35.53,72.47-75.6,96.01-123.25,15.05-30.46,24.96-62.49,28.75-96.33.08-.71.42-1.39.64-2.08v-60.51c-.22-.82-.54-1.62-.67-2.45ZM1841.69,602.12c-15.59,34.67-37.62,64.94-63.61,92.44-39.77,42.09-86.2,75.54-136.09,104.45-53.87,31.2-110.62,56.09-169.29,76.74-70.43,24.78-142.62,42.82-216.08,55.85-43.15,7.65-86.56,13.4-130.19,17.55-65.28,6.2-130.7,8.92-196.25,7.7-30.12-.56-60.28-1.52-90.32-3.69-35.12-2.53-70.19-6.09-105.17-10.12-50.46-5.8-100.4-14.89-149.89-26.25-89.49-20.53-176.31-48.88-258.91-89.36-53.38-26.16-103.98-56.74-149.52-95.18-38.55-32.55-72.05-69.41-95.87-114.32-19.16-36.12-29.86-74.48-29.52-115.55.36-44.12,13.28-84.73,35.35-122.61,22.05-37.85,50.96-69.9,83.89-98.5,48.65-42.26,103.33-75.17,161.15-103.08,72.39-34.94,148.09-60.63,225.97-80.13,43.59-10.91,87.56-20.05,132-26.51,35.32-5.14,70.81-9.38,106.33-13.01,51.94-5.3,104.08-7.15,159.61-7.48,46.25.07,95.77,1.79,145.21,5.76,62.71,5.02,124.96,13.34,186.67,25.58,87.93,17.45,173.68,42.19,256.17,77.62,51.09,21.96,100.2,47.6,146.15,79.07,42.45,29.07,81.2,62.24,113.04,102.96,26.14,33.43,45.87,70.1,55.25,111.78,11.54,51.22,5.37,100.61-16.07,148.29Z"/><path class="cls-1" d="M1814.46,422.47c-16.84-39.49-43.17-72.23-73.91-101.67-35.53-34.05-75.6-61.97-118.22-86.32-62.66-35.82-129.01-63.16-197.76-84.82-86.17-27.14-174.39-44.58-264.01-55.19-44.65-5.29-89.46-8.7-134.39-10.4-76.75-2.91-153.39-1.03-229.88,5.98-43.26,3.96-86.31,9.57-129.12,17.03-54.93,9.58-109.2,21.99-162.6,38.09-71.29,21.49-140.14,48.91-205.25,85.23-49.02,27.35-94.8,59.17-134.4,99.27-26.52,26.85-49.07,56.56-64.34,91.36-16.04,36.56-21.71,74.54-15.47,114.12,5.49,34.82,19.67,66.08,39.47,94.95,26.58,38.75,60.46,70.3,97.88,98.24,59.26,44.23,124.66,77.15,193.23,104.11,69.86,27.47,141.91,47.39,215.47,62.02,66.97,13.32,134.55,22.3,202.68,26.62,41.12,2.6,82.33,3.67,120.84,5.32,38.32-1.47,73.92-2.57,109.48-4.28,40.55-1.94,80.92-6.09,121.16-11.45,48.12-6.39,95.86-14.89,143.14-25.92,89.7-20.91,176.48-50.01,258.69-91.94,55.92-28.52,108.28-62.28,153.85-105.85,25.71-24.57,48.23-51.7,64.88-83.31,31.09-59.03,34.9-119.49,8.58-181.2ZM1793.18,581.86c-14.8,32.38-36.37,59.89-61.45,84.79-36.76,36.48-78.88,65.77-123.83,91.14-63.75,35.97-131.27,63.01-201.18,84.31-52.64,16.04-106.15,28.42-160.34,37.91-39.35,6.89-78.94,12.16-118.72,16.08-56.68,5.58-113.49,8.3-177.56,8.25-36.86.18-80.77-1.56-124.63-4.87-54.63-4.13-108.94-10.86-162.9-20.51-81.74-14.63-161.68-35.71-239.04-66.06-65.54-25.72-128.14-57.08-185.06-98.95-35.9-26.41-68.58-56.16-94.43-92.79-17.91-25.38-31.21-52.87-37.11-83.57-7.46-38.82-1.88-75.99,14.57-111.71,14.88-32.32,36.51-59.79,61.63-84.66,37.43-37.07,80.38-66.68,126.2-92.3,59.26-33.15,121.81-58.63,186.48-79.05,47.84-15.11,96.39-27.48,145.72-36.54,31.92-5.85,63.94-11.51,96.15-15.41,38.65-4.69,77.5-7.92,116.35-10.86,46.47-3.51,93.08-4.07,139.65-2.72,35.96,1.05,71.9,3.07,107.79,5.61,53.66,3.79,106.91,11.15,159.81,21,99.66,18.56,196.39,46.6,288.45,89.6,44.41,20.75,86.95,44.72,126.46,73.83,35.57,26.22,68,55.68,93.73,91.92,17.61,24.8,30.81,51.66,37.07,81.61,8.26,39.52,2.87,77.43-13.8,113.93Z"/><path class="cls-1" d="M1489.86,317.87c-.33,1.08-.61,2.12-.97,3.12-6.22,17.05-12.4,34.11-18.78,51.08-.59,1.57-2.25,3.33-3.8,3.85-55.57,18.41-111.19,36.68-166.81,54.96-.55.18-1.14.23-2.25.46,2.41-6.34,4.51-12.26,6.96-18.03.45-1.05,2.27-1.73,3.6-2.18,33.76-11.5,67.55-22.95,101.33-34.41,4.2-1.42,8.39-2.88,12.47-5.04h-102.82c1.88-5.15,3.57-9.79,5.26-14.44,4.46-12.26,8.94-24.51,13.35-36.79.64-1.76,1.19-2.98,3.51-2.97,49.19.07,98.38.06,147.57.07.36,0,.72.16,1.37.31Z"/><path class="cls-1" d="M1510.69,517.05c-11.98-3.42-24.24-4.18-36.59-4.2-30.38-.05-60.76-.04-91.14.04-1.85,0-4.18-1.14-5.25,1.99-.94,2.77-1.04,4.79,1.52,6.74,4.45,3.38,4.96,8.12,3.76,13.15-.81,3.37-1.87,6.71-3.01,9.99-22.21,64.09-44.45,128.18-66.68,192.26-.39,1.11-.69,2.24-1.17,3.78h4.63c17.93,0,35.86-.11,53.79.1,3.54.04,4.88-1.13,5.96-4.34,7.94-23.8,16.11-47.53,24.11-71.32.79-2.36,1.82-3.38,4.46-3.22,4.34.26,8.74.38,13.06-.02,3.82-.36,5.3.98,6.37,4.63,6.85,23.5,14.02,46.9,20.96,70.37.83,2.79,1.92,3.93,5.08,3.9,18.43-.18,36.85-.08,55.28-.1,1.17,0,2.35-.13,3.87-.22-9.9-26.97-19.64-53.51-29.4-80.09.7-.28,1.03-.49,1.38-.55,22.81-3.32,38.56-16.29,48.92-36.26,8.72-16.81,14.73-34.6,16.01-53.58,1.82-26.94-8.8-45.3-35.92-53.04ZM1486.34,580.67c-1.14,6.18-3.18,12.27-5.56,18.09-3.03,7.41-9.24,11.76-17.02,12.25-14.75.94-29.55,1.02-44.42,1.46,0-1.04-.1-1.44.01-1.76,5.2-15.16,10.41-30.32,15.7-45.68,13.09,0,25.79-.24,38.48.08,9.52.23,14.53,6.22,12.8,15.56Z"/><path class="cls-1" d="M1353.68,513.01c-.37,1.26-.66,2.53-1.1,3.75-5.45,15.07-11,30.11-16.33,45.23-.95,2.71-2.28,3.5-5.08,3.49-26.28-.11-52.56,0-78.83-.16-3.4-.02-4.73,1.14-5.7,4.19-2.99,9.35-6.26,18.61-9.43,27.9-.43,1.27-.83,2.55-1.38,4.2h79.79c-.49,1.65-.78,2.91-1.21,4.11-4.94,13.54-9.97,27.05-14.78,40.64-.87,2.44-2.03,3.12-4.54,3.1-24.04-.1-48.07,0-72.11-.13-2.89-.02-4.04.93-4.91,3.59-3.75,11.44-7.75,22.79-11.86,34.79h89.08c-.4,1.5-.59,2.43-.9,3.33-5.44,15.6-10.94,31.19-16.29,46.83-.73,2.1-1.64,2.87-3.92,2.87-49.18-.07-98.38-.05-147.57-.06-.73,0-1.45-.13-2.54-.22,3.28-9.58,6.48-18.96,9.72-28.33,19.24-55.8,38.49-111.6,57.73-167.4.81-2.35,1.48-4.74,2.27-7.1,2.11-6.36,1.54-12.05-4.16-16.4-2.76-2.11-.89-4.35-.05-6.32.42-.99,2.04-2.07,3.12-2.08,53.3-.09,106.6-.07,159.9-.05.24,0,.48.1,1.09.25Z"/><path class="cls-1" d="M1172.1,512.84c-.84,1.66-1.4,2.84-2.03,3.98-40.49,73.53-81,147.05-121.43,220.63-1.39,2.53-2.85,3.45-5.74,3.43-23.29-.13-46.58-.07-69.87-.07h-4.04c-.37-6.9-.76-13.45-1.07-20.01-2.81-59.55-5.6-119.12-8.43-178.67-.11-2.48-.43-4.96-.8-7.42-.87-5.73-3.6-10.26-8.81-13.12-1.41-.78-2.74-1.69-4.07-2.51,1.35-6.16,1.44-6.23,7.48-6.23h64.56c1.42,54.81,2.83,109.23,4.25,163.67.44.13.88.26,1.33.4.71-1.2,1.49-2.36,2.12-3.6,26.59-52.18,53.21-104.34,79.69-156.57,1.51-2.97,3.15-4.02,6.51-3.98,18.55.19,37.11.09,55.67.09h4.67Z"/><path class="cls-1" d="M886.35,513.98c-11.87-3.36-24.02-3.99-36.29-4.33-9.3.73-18.64,1.09-27.88,2.27-34.39,4.4-59.97,21.97-76.69,52.31-15.45,28.03-25.29,58.04-30.93,89.47-2.22,12.4-3.48,24.93-1.29,37.5,4.81,27.61,21.96,43.54,48.44,50,20.24,4.94,40.81,4.05,61.27,1.58,32.98-3.98,58.42-20,75.4-48.79,11.83-20.06,19.88-41.69,26.11-64.04,4.99-17.9,8.94-36.02,8.81-54.7-.2-31.15-16.96-52.79-46.95-61.27ZM864.05,615.28c-5.29,14.98-10.28,30.16-16.91,44.56-10.48,22.72-22.19,29.58-47.23,30.79-5.14-.8-10.41-1.1-15.36-2.5-8.77-2.5-13.88-8.99-13.08-18.05.81-9.33,2.18-18.87,5.11-27.71,5.71-17.17,12.26-34.11,19.33-50.78,4.12-9.74,10.84-18.08,20.96-22.43,12.34-5.29,25.35-6.18,38.41-3.25,9.97,2.24,14.72,8.87,14.75,19.16.04,10.47-2.53,20.5-5.97,30.23Z"/><path class="cls-1" d="M673.17,517.17c-12.07-3.57-24.48-4.3-36.95-4.32-30.52-.04-61.03-.03-91.54.01-1.79,0-3.96-.87-4.91,1.97-.84,2.55-1.29,4.55,1.26,6.51,4.46,3.42,5.46,8.1,4,13.39-.7,2.51-1.33,5.05-2.18,7.51-22.38,64.71-44.8,129.4-67.19,194.1-.46,1.32-.79,2.68-1.18,4.01.72.22.95.37,1.19.37,19.67.03,39.35.08,59.02-.04,1.04,0,2.62-1.28,3.02-2.31,2.04-5.34,3.77-10.8,5.61-16.2,6.49-19.06,12.95-38.12,19.56-57.14.41-1.19,1.9-2.81,2.95-2.85,6.33-.27,12.68-.13,19.15-.13.53,1.56,1.05,2.95,1.47,4.36,7.07,23.56,14.16,47.13,21.13,70.72.77,2.63,1.8,3.76,4.77,3.74,18.56-.16,37.11-.07,55.67-.08,1.1,0,2.2-.1,3.8-.18-9.88-26.85-19.63-53.38-29.55-80.36,1.26-.23,1.85-.36,2.45-.46,17.89-2.92,32.27-11.66,42.22-26.79,13.46-20.48,21.11-43.11,21.84-67.64.75-25.14-11.4-41.03-35.61-48.19ZM648.5,580.51c-1.23,6.16-3.26,12.22-5.6,18.06-3.04,7.59-9.32,11.95-17.23,12.46-14.73.93-29.52.99-44.86,1.44.84-2.52,1.39-4.27,1.99-6,4.47-12.9,9-25.77,13.37-38.7.71-2.09,1.61-2.89,3.89-2.87,11.19.13,22.38.06,33.57.08,1.24,0,2.5.03,3.72.23,8.55,1.42,12.84,6.83,11.15,15.29Z"/><path class="cls-1" d="M1277.89,293.26c-2.03-23.05-13.14-40.02-34.61-49.63-13.92-6.24-28.71-7.88-43.73-7.93-29.01-.1-58.01-.03-87.02-.02-1.76,0-3.64-.55-4.43,2.15-.71,2.44-1.17,4.33,1.23,6.17,4.31,3.31,5.48,7.83,4.19,13.01-.59,2.41-1.2,4.83-2,7.18-18.14,53.01-36.3,106.01-54.46,159.02-4.55,13.26-9.08,26.52-13.82,40.38h3.61c32.12,0,64.24.1,96.36-.07,9.07-.05,18.17-.61,27.18-1.54,33.75-3.51,58.94-20.13,75.5-49.84,10.59-19,18.44-39.1,24.18-60.02,5.27-19.24,9.6-38.7,7.83-58.85ZM1217.15,310.47c-1.05,10.03-3.22,20.15-6.41,29.73-4.89,14.68-11.04,28.96-16.77,43.36-.87,2.17-2.36,4.08-3.55,6.12-7.1,12.19-17.85,18.44-31.8,19.01-10.68.43-21.39.4-32.09.55-.46,0-.92-.19-1.71-.35,2.3-6.74,4.52-13.28,6.77-19.82,10.98-31.81,22.02-63.6,32.89-95.44,1.02-3,2.4-4.02,5.52-3.88,10.43.48,20.95-.04,31.26,1.19,11.36,1.36,17.06,8.25,15.89,19.52Z"/><path class="cls-1" d="M1083.63,235.6c-3.6,10.52-7.03,20.61-10.48,30.7-22.1,64.53-44.23,129.07-66.24,193.64-.91,2.67-1.97,3.65-4.87,3.62-16.69-.15-33.37-.07-50.06-.07h-3.57c-9.64-48.71-19.23-97.2-29.03-146.72-.8,1.82-1.27,2.71-1.59,3.65-15.7,46.37-31.41,92.74-47.01,139.15-.97,2.89-2.12,4.05-5.37,4.01-16.31-.19-32.63-.09-48.94-.09h-4.2c2.47-7.26,4.79-14.16,7.15-21.05,20.39-59.61,40.8-119.21,61.18-178.82.6-1.76,1.08-3.57,1.55-5.38,1.49-5.61.84-10.73-4.16-14.38-2.62-1.93-1.56-3.89-.91-6.19.7-2.5,2.51-1.98,4.16-1.98,24.53-.01,49.07.04,73.59-.07,2.83-.01,3.72.85,4.25,3.63,7.3,38.6,14.77,77.17,22.19,115.74.21,1.08.52,2.15,1.02,4.21,6.85-20.33,13.35-39.62,19.85-58.93,6.81-20.25,13.68-40.49,20.33-60.8,1-3.06,2.44-3.87,5.52-3.85,17.05.12,34.11.01,51.17,0h4.46Z"/><path class="cls-1" d="M798.09,463.17c-4.32-75.94-8.63-151.56-12.93-227.19-.92-.14-1.4-.28-1.88-.28-28.52-.01-57.03-.04-85.56.07-1.08,0-2.59,1.16-3.12,2.18-.84,1.62-2.02,3.56.25,5.3,4.01,3.07,4.25,7.2,2.41,11.42-2.12,4.89-4.34,9.79-7.07,14.35-36.81,61.74-73.73,123.44-110.62,185.14-1.7,2.86-3.41,5.73-5.54,9.32h3.73c19.68,0,39.35-.05,59.02.07,2.61.01,3.95-.87,5.2-3.08,8.27-14.76,16.75-29.39,24.99-44.15,1.35-2.41,2.85-3.19,5.55-3.18,20.3.11,40.59.06,60.89.07,1.21,0,2.42.11,4.33.2v49.76h60.33ZM735.45,367.42h-40.92c13.14-23.27,25.97-46.22,39.04-69.05.63.19,1.25.39,1.88.58v68.47Z"/><path class="cls-1" d="M576.32,409.24c-.34,1.39-.48,2.32-.78,3.19-5.54,16.1-11.13,32.18-16.6,48.3-.71,2.09-1.7,2.86-3.95,2.85-49.81-.04-99.62-.01-149.43,0-.85,0-1.7-.13-2.98-.24.45-1.48.78-2.77,1.21-4.01,21.95-64.06,43.91-128.12,65.85-192.19,1.16-3.4,2.13-6.89,3.01-10.37,1.15-4.56.47-8.9-3.4-11.83-3.77-2.86-2.89-5.74-1.02-9.03h77.71c-19.91,57.85-39.7,115.33-59.67,173.35h90.06Z"/><path class="cls-1" d="M481.31,542.54c-2.39,6.36-4.46,12.3-6.94,18.06-.49,1.14-2.46,1.86-3.89,2.35-37.18,12.65-74.37,25.24-111.56,37.84-.69.24-1.35.54-1.97,1.31h102.92c-5.88,16.15-11.47,31.54-17.07,46.93q-2.71,7.42-10.45,7.42h-143.88c1.56-4.32,2.94-8.14,4.33-11.95,5.19-14.24,10.32-28.51,15.65-42.69.56-1.49,2.06-3.2,3.5-3.68,55.69-18.42,111.42-36.71,167.13-55.02.55-.18,1.12-.29,2.24-.58Z"/></g></svg>