<?xml version="1.0" encoding="UTF-8"?><svg id="Capa_2" xmlns="http://www.w3.org/2000/svg" viewBox="0 0 99.96 99.96"><defs><style>.cls-1{fill:#e6e6e6;}.cls-2{fill:#e6e7e8;fill-rule:evenodd;}</style></defs><g id="Base"><polygon class="cls-2" points="51.02 49.7 53.26 48.42 81.24 67.61 51.02 49.7 51.02 49.7 51.02 49.7"/><polygon class="cls-2" points="49.41 48.68 47.33 47.48 49.65 10.86 49.41 48.68 49.41 48.68 49.41 48.68"/><polygon class="cls-2" points="46.91 48.55 37.63 56.23 48.75 49.67 46.91 48.55 46.91 48.55 46.91 48.55"/><path class="cls-2" d="M49.98,97.29c-11.42,0-22.11-3.81-30.07-10.8-7.75-6.8-13.77-17.62-15.25-29.11,3.52,21.86,22.47,38.55,45.32,38.55,25.35,0,45.91-20.55,45.91-45.91,0-10.52-3.93-20.82-9.88-28.56,6.03,4.65,11.24,17.9,11.24,28.56,0,26.1-21.16,47.27-47.27,47.27h0Z"/><path class="cls-1" d="M49.98,0C22.38,0,0,22.38,0,49.98s22.38,49.98,49.98,49.98,49.98-22.38,49.98-49.98S77.58,0,49.98,0ZM89.11,72.22c-.09.15-.17.3-.26.45l-38.21-21.99v7.76l37.95,14.67c-7.87,13.11-22.21,21.88-38.61,21.88s-30.72-8.75-38.59-21.84l37.93-14.79v-7.76l-38.26,21.99c-.08-.14-.17-.29-.25-.44l33.86-24.76-2.96-1.68-31.15,26c-3.56-6.44-5.59-13.85-5.59-21.73C4.98,25.47,24.57,5.54,48.94,4.99l-6.1,39.75,2.8,1.68,4.04-41.44c.1,0,.2,0,.3,0,.03,0,.07,0,.1,0l.4,43.61,6.96-4.16-7-39.44c24.64.25,44.55,20.3,44.55,45,0,7.93-2.06,15.39-5.66,21.86l-31.23-26.14-2.96,1.68,33.98,24.83Z"/><path class="cls-2" d="M49.98,2.69C23.87,2.69,2.71,23.85,2.71,49.95c0,10.6,3.85,20.63,9.71,29.29,1.99,3.72,4.14,6.03,7.02,9.07C8.19,79.32.9,65.48.9,49.95.9,22.85,22.88.88,49.98.88s49.49,22.93,48.69,49.07c-.68-25.51-23.01-47.26-48.69-47.26h0Z"/></g></svg>