<?xml version="1.0" encoding="UTF-8"?><svg id="Capa_2" xmlns="http://www.w3.org/2000/svg" viewBox="0 0 224 98.43"><defs><style>.cls-1{fill:#e6e7e8;}</style></defs><g id="Base"><path class="cls-1" d="M224,22.83h-70.65C144.62,9.11,129.28,0,111.81,0s-32.81,9.11-41.54,22.83H0l7.15,7.16h59.34c-1.1,2.58-1.97,5.28-2.61,8.07H15.2l7.15,7.16h40.42c-.11,1.32-.17,2.64-.17,3.99s.07,2.73.18,4.08H30.4l7.15,7.16h26.35c.65,2.79,1.53,5.48,2.63,8.07h-20.93l7.15,7.16h17.58c8.74,13.67,24.05,22.75,41.48,22.75s32.74-9.07,41.48-22.75h17.96l7.15-7.16h-21.31c1.1-2.58,1.98-5.28,2.63-8.07h26.73l7.15-7.16h-32.76c.11-1.35.18-2.7.18-4.08s-.07-2.67-.17-3.99h40.8l7.15-7.16h-49.06c-.65-2.78-1.51-5.48-2.61-8.07h59.72l7.15-7.16ZM112,91.32c-23.21,0-42.02-18.81-42.02-42.02S88.79,7.28,112,7.28s42.02,18.81,42.02,42.02-18.81,42.02-42.02,42.02Z"/><polygon class="cls-1" points="90.39 55.41 84.69 38.15 78.22 38.15 78.22 60.32 82.94 60.32 82.94 43.88 87.92 60.32 92.81 60.32 97.81 43.88 97.81 60.32 102.53 60.32 102.53 38.15 96.05 38.15 90.39 55.41"/><polygon class="cls-1" points="131.53 54.39 122.64 38.15 117.42 38.15 117.42 60.32 121.81 60.32 121.81 44.78 130.69 60.45 135.97 60.32 135.97 38.15 131.59 38.15 131.53 54.39"/><rect class="cls-1" x="107.68" y="38.13" width="4.5" height="22.17"/><rect class="cls-1" x="141.09" y="38.13" width="4.5" height="22.17"/></g></svg>