<?xml version="1.0" encoding="UTF-8"?><svg id="Capa_2" xmlns="http://www.w3.org/2000/svg" viewBox="0 0 1119.87 1395.2"><defs><style>.cls-1{fill:#fff;}.cls-2{fill:#e6e7e8;}</style></defs><g id="Layer_1"><path class="cls-2" d="M1112.32,75.35c-112.84-32.46-227.75-53.85-344.55-65.43C707.13,3.91,646.35.03,585.43,0c-47.33-.02-94.74.4-141.97,3.11-52.69,3.01-105.31,7.85-157.76,13.68-64.32,7.16-128.09,18.33-191.33,32.19C62.99,55.84,31.74,63.35.34,70.58c-.19,2.09-.39,2.89-.33,3.68,2.39,35.9,4.81,71.79,7.24,107.69,3.02,44.97,6.06,89.94,9.11,134.91,3.02,44.76,6.05,89.54,9.07,134.31,3.06,45.18,6.1,90.36,9.15,135.53,2.98,44.16,5.93,88.33,8.9,132.5,3.1,45.79,6.69,91.53,9.17,137.34,1.98,36.74,6.4,72.79,20.34,107.23,39.63,98.01,101.46,179.27,184.43,244.6,94.02,74.03,195.75,135.41,304.69,184.92,3.35,1.53,6.24,2.99,10.16.8,55.28-30.76,111.1-60.57,165.87-92.21,50.95-29.45,96.26-66.66,141-104.82,69.56-59.33,121.88-130.75,158.21-214.19,12.38-28.43,23-57.65,25.97-88.66,3.81-39.63,5.94-79.41,8.69-119.13,3.83-55.26,7.53-110.52,11.35-165.77,3.85-55.66,7.84-111.31,11.69-166.96,3.83-55.46,7.56-110.92,11.38-166.38,4.36-63.33,8.69-126.64,13.36-189.94.47-6.49-1.11-8.84-7.47-10.67ZM1049.41,147.2c-2.98,43.15-5.93,86.3-8.94,129.45-3.46,49.41-7.01,98.8-10.48,148.19-1.88,26.81-3.71,53.63-5.55,80.46h.04c-4.69,66.13-9.41,132.25-14.06,198.39-3.79,54.03-7.2,108.1-11.35,162.11-2.88,37.54-14.67,72.77-30.83,106.51-35.9,75.04-87.95,137.08-152.57,189.12-76.63,61.75-158.52,115.37-246.15,160.17-2.26,1.17-5.92,1.2-8.32.24-43.03-17.06-82.99-39.95-121.84-64.87-60.02-38.48-118.17-79.67-170.58-128.14-63.58-58.8-111.21-128.4-137.47-211.7-9.03-28.66-10.88-58.26-12.9-87.91-3.34-48.8-6.84-97.58-10.26-146.38-3.06-43.74-6.11-87.5-9.21-131.26-3.07-43.34-6.21-86.69-9.27-130.03-2.99-42.14-5.94-84.28-8.89-126.42-3.46-49.2-6.91-98.39-10.36-147.58-.24-3.43-.49-6.86-.67-10.29-.49-9.29-.45-9.24,8.82-11.63,80.02-20.51,160.93-36.56,243.02-45.68,54.03-6,108.35-10.14,162.65-13.07,67.12-3.63,134.31-1.93,201.36,2.96,121.03,8.82,239.91,29.51,355.92,65.57,10.71,3.33,8.62,1.12,7.9,11.78Z"/><path class="cls-1" d="M1041.51,135.41c-116.01-36.07-234.89-56.75-355.92-65.57-67.06-4.9-134.25-6.6-201.36-2.96-54.3,2.93-108.61,7.07-162.65,13.07-82.08,9.11-163,25.17-243.02,45.68-9.27,2.38-9.31,2.33-8.82,11.63.18,3.43.43,6.86.67,10.29,3.45,49.2,6.9,98.39,10.36,147.58,2.95,42.14,5.9,84.28,8.89,126.42,3.06,43.34,6.2,86.69,9.27,130.03,3.1,43.76,6.15,87.51,9.21,131.26,3.43,48.8,6.92,97.58,10.26,146.38,2.02,29.65,3.88,59.26,12.9,87.91,26.25,83.3,73.88,152.91,137.47,211.7,52.41,48.47,110.56,89.65,170.58,128.14,38.85,24.92,78.82,47.81,121.84,64.87,2.41.96,6.06.92,8.32-.24,87.63-44.8,169.52-98.42,246.15-160.17,64.61-52.04,116.67-114.08,152.57-189.12,16.16-33.75,27.95-68.98,30.83-106.51,4.14-54.01,7.56-108.08,11.35-162.11,4.64-66.13,9.37-132.25,14.06-198.39h-.04c1.85-26.82,3.67-53.64,5.55-80.46,3.47-49.39,7.02-98.79,10.48-148.19,3.01-43.15,5.96-86.3,8.94-129.45.73-10.67,2.82-8.45-7.9-11.78ZM1026.91,186.3c-6.46,89.1-12.95,178.21-19.42,267.31-5.26,72.38-10.51,144.75-15.78,217.12-4.42,60.68-8.41,121.39-13.45,182.02-4.88,58.8-25.21,112.47-57.33,161.72-32.67,50.07-73.2,92.93-119.79,130.32-64.02,51.39-131.01,98.3-203.53,137.04-8.9,4.76-17.87,9.48-27.09,13.59-2.93,1.31-7.11,1.68-10.12.67-31.62-10.59-60.84-26.26-89.09-43.67-70.3-43.3-136.25-92.49-196.71-148.7-51.02-47.45-91.15-102.69-114.31-169.17-11.67-33.5-16.59-68.16-18.88-103.4-3.11-48.01-6.85-95.97-10.31-143.95-3.02-41.93-6.03-83.87-9.06-125.79-3.44-47.38-6.91-94.75-10.35-142.13-3.05-41.93-6.06-83.87-9.09-125.79-3.38-46.57-6.74-93.15-10.12-139.71-.12-1.79-.19-3.57-.38-7.03,42.53-9.17,84.49-18.8,126.68-27.2,55.98-11.13,112.51-18.65,169.32-24.06,67.75-6.47,135.68-9.67,203.68-7.48,48.9,1.57,97.81,4.37,146.53,8.77,67.53,6.09,134.28,17.77,200.11,34.14,30.16,7.51,60.05,16.14,90.45,24.37-.69,10.96-1.25,21-1.97,31.03Z"/><path class="cls-2" d="M1028.88,155.28c-.69,10.96-1.25,21-1.97,31.03-6.46,89.1-12.95,178.21-19.42,267.31-5.26,72.38-10.51,144.75-15.78,217.12-4.42,60.68-8.41,121.39-13.45,182.02-4.88,58.8-25.21,112.47-57.33,161.72-32.67,50.07-73.2,92.93-119.79,130.32-64.02,51.39-131.01,98.3-203.53,137.04-8.9,4.76-17.87,9.48-27.09,13.59-2.93,1.31-7.11,1.68-10.12.67-31.62-10.59-60.84-26.26-89.09-43.67-70.3-43.3-136.25-92.49-196.71-148.7-51.02-47.45-91.15-102.69-114.31-169.17-11.67-33.5-16.59-68.16-18.88-103.4-3.11-48.01-6.85-95.97-10.31-143.95-3.02-41.93-6.03-83.87-9.06-125.79-3.44-47.38-6.91-94.75-10.35-142.13-3.05-41.93-6.06-83.87-9.09-125.79-3.38-46.57-6.74-93.15-10.12-139.71-.12-1.79-.19-3.57-.38-7.03,42.53-9.17,84.49-18.8,126.68-27.2,55.98-11.13,112.51-18.65,169.32-24.06,67.75-6.47,135.68-9.67,203.68-7.48,48.9,1.57,97.81,4.37,146.53,8.77,67.53,6.09,134.28,17.77,200.11,34.14,30.16,7.51,60.05,16.14,90.45,24.37Z"/><path class="cls-1" d="M992.3,353.04c-3.08,40.64-6.15,81.07-9.26,122.05h-408.61v-122.05h417.87Z"/><path class="cls-1" d="M549.84,936.46v47.06c-2.27,0-4.41,0-6.55,0-109.1,0-218.2-.03-327.29.11-4.67,0-7.28-1.42-9.64-5.36-20.63-34.53-33.51-71.58-36.95-111.76-.17-1.97-.02-3.96-.02-6.62h6.73c76.71,0,153.43.04,230.14-.1,4.34,0,6.73,1.24,9.15,4.96,18.23,28,44.7,45.64,74.91,58.34,18.76,7.89,38.32,12.57,59.52,13.36Z"/><path class="cls-1" d="M740.72,607.46h233.06c-3.3,40.9-6.57,81.47-9.88,122.58h-223.18v-122.58Z"/><path class="cls-1" d="M550.74,1116.13v154.53c-83.48-41.48-157.42-94.84-227.57-154.53h227.57Z"/><path class="cls-1" d="M394.49,452.68c-10.78-1.2-18.72,1.88-25.77,7.07-10.41,7.69-18.37,17.63-24.11,29.2-2.16,4.34-4.88,6.91-10.02,7.41-5.5.53-10.92,2.11-17.21,3.4,3.68-23.47,17.09-40.26,33.05-55.58-.28-.49-.57-.98-.85-1.47-4.7,1.38-9.63,2.24-14.04,4.23-22.35,10.12-36.15,27.89-44.33,50.51-.27.75-.5,1.54-.63,2.33-1.24,7.25-5.08,11.59-12.61,13.24-5.65,1.23-10.98,3.86-17.72,6.35.35-15.66,5.88-29.07,13.11-41.31,7.2-12.21,16.61-23.11,25.02-34.56-1.41.12-4.28-.04-6.95.63-14.31,3.56-25.62,11.55-34.35,23.4-12.35,16.76-20.27,35.33-23.18,55.98-.28,2-.74,3.98-1.15,5.96-1.47,7.11-2.15,7.48-8.77,4.93-13.06-5.02-19.67-1.59-23.59,11.89-.69,2.38-2.22,4.68-3.88,6.57-5.47,6.26-6.61,12.93-2.98,19.45,2.95,5.28,9.91,7.99,17.66,5.83,4.32-1.2,7.65-.53,11.41,1.49,9.31,5.05,19.97.21,20.51-10.48.49-9.55,5.28-13.8,12.88-17.43,33.9-16.22,68.83-29.28,106.44-33.58,7.07-.81,14.38.6,22.05,1v44.62c0,7.48-.18,14.98.07,22.46.12,3.3-1.24,4.68-3.92,6.47-8.32,5.59-17.38,10.78-23.99,18.09-7.03,7.76-14.47,9.89-24.36,8.26,2-13.4,9.35-24.22,16.4-36.19-3.22,1.02-6.66,1.63-9.62,3.15-11.8,6.01-20.58,15.26-25.39,27.48-2.92,7.46-6.94,12.18-15.05,13.05-1.57.16-3.09.9-5.44,1.63,2.47-16.87,10.22-30.69,19.73-44.73-3.11.87-6.43,1.34-9.31,2.72-9.74,4.68-17.57,11.61-22.28,21.48-2.77,5.82-5.26,11.82-7.29,17.93-5.24,15.83-5.1,15.87-22.36,24.64,1.13-22.61,8.21-42.51,20.01-61.6-6.75-.4-11.6,2.66-16.05,6.28-13.08,10.62-19.08,25.44-22.8,41.12-1.88,7.96-1.91,16.4-2.37,24.65-.4,7.02-3.01,9.27-9.82,7.54-7.57-1.92-13.67,1.83-15.46,9.55-1.13,4.87-2.13,9.79-3.32,14.65-2.11,8.69,3.36,15.08,12.31,14.65,3.58-.17,7.28.08,10.8.77,9.26,1.81,15.71-2.64,16.31-11.94.35-5.39,2.39-9.23,6.73-12.78,17.63-14.36,35.61-27.98,57.31-35.79,24.08-8.67,48.35-8.18,72.83-2.07,4.81,1.2,6.55,3.72,6.47,8.97-.34,23.87-.15,47.75-.15,71.62v6.27h-226.68c-.91-11.69-1.88-23.31-2.72-34.95-5.67-77.82-11.35-155.65-16.97-233.48-3.78-52.21-7.36-104.45-11.37-156.65-.45-5.9,1.69-7.48,6.71-8.83,68.83-18.55,138.61-32.13,209.39-40.67,67.18-8.11,134.59-11.89,202.24-12.09h7.12v229.67h-167.64v16.82h-16.52c3.64-16.38,13.67-27.94,26.47-39.24Z"/><path class="cls-2" d="M297.76,296.03c-30.12,22.74-38.96,55.2-43.41,90.91,7.2-2.94,13.58-6.39,20.41-8.14,10.03-2.58,14.78-8.19,17.59-18.34,5.88-21.3,15.59-40.78,34.49-54.13,9.63-6.81,19.59-12.69,33.93-13.26-22.12,19.09-35.44,41.47-41.07,69.53,9.5-2.58,18.16-4.79,26.69-7.41,1.33-.41,2.15-2.68,3.07-4.17,6.39-10.26,12.06-21.06,19.29-30.69,7.76-10.33,18.77-16.43,31.81-18.27,1.89-.27,3.82-.23,6.41.41-16.2,12.48-25.28,28.7-28.22,48.57,7.52.53,14.95,1.28,22.4,1.41,1.74.03,3.85-1.71,5.22-3.17,10.92-11.63,23.25-20.75,39.67-22.6,3.69-.42,7.47-.06,12.04-.06-6.08,4.89-11.56,8.72-16.32,13.31-4.03,3.89-7.41,8.51-10.72,13.06-2.54,3.49-1.86,6.22,2.12,8.93,12.47,8.49,23.51,18.64,31.21,31.77,3.06,5.23,4.79,11.24,7.12,16.89-.49.25-.97.49-1.46.74-3.03-2.62-6.04-5.25-9.09-7.85-25.66-21.83-55.98-27.24-88.21-23.51-39.57,4.57-75.54,20.11-110.28,38.8-3.02,1.63-5.93,3.5-9.03,4.96-9.17,4.32-15.92,9.79-18.9,20.71-3.5,12.85-14.69,16.6-27.18,11.98-4.43-1.64-9.26-2.63-13.98-3-13.38-1.04-19.2-12.2-12.4-23.76,3.13-5.31,5.77-10.97,8.01-16.72,4.03-10.3,13.75-14.04,24.35-8.94,7.41,3.57,9.51,2.6,10.93-5.35,3.28-18.32,7.21-36.42,14.4-53.72,7.79-18.72,19.96-33.6,37.52-43.86,6.46-3.77,13.36-6.38,21.57-5.04Z"/><path class="cls-1" d="M383.82,628.11c-4.8-2.19-9.26-4.23-14.71-6.72,4.76-5.66,9.17-10.88,14.71-17.46v24.18Z"/><path class="cls-1" d="M962,751.77c-.58,8.87-.97,17.26-1.71,25.63-3.04,34.82-4.71,69.83-9.63,104.37-7.6,53.3-30.61,100.54-62.68,143.48-35.98,48.18-79.36,88.9-126.79,125.57-56.89,44-116.34,84.06-179.99,117.71-2.1,1.12-4.28,2.09-7.2,3.5v-335.69c24.26-1.89,47.7-7.5,71.03-18.53-1.88,9.52-3.28,18.04-5.31,26.4-1.03,4.28-10.33,7.87-14.8,6.34-12.06-4.12-18.44.19-19.42,12.88-.19,2.54-1.07,5.15-2.19,7.46-2.68,5.53-3.34,10.82.94,15.82,4.41,5.13,10.22,4.93,16.22,4.06,2.54-.36,5.19-.75,7.69-.4,8.19,1.13,12.55-1.37,13.82-9.46.66-4.13,2.61-6.32,5.92-8.35,25.19-15.44,53.13-23.38,81.54-30.09,20.93-4.94,41.98-9.14,63.64-7.23,25.79,2.27,49.3,9.66,65.16,32.09,3.11,4.4,5.37,9.39,8.02,14.12,7.35-19.17-1.58-46.6-41.39-66.42,7.76-8.07,17.74-9.94,29.71-11.33-10-5.69-19.11-6.26-28.11-4.26-6.8,1.51-13.95,3.67-19.67,7.46-9.28,6.17-18.6,2.5-28.92,3.28,5.7-15.01,15.42-25.21,27.62-34.23-7.65-1.68-14.13.26-20.36,3.13-13.28,6.15-22.95,16.21-30.87,28.3-1.51,2.3-4.62,4.32-7.31,4.91-9.04,1.96-18.23,3.18-27.43,4.7.63-13.11,11.66-26.25,42.55-50.86-7.33-2.83-14.15-1.07-20.7,1.51-21.71,8.54-36.87,24.28-47.98,44.34-.58,1.06-1.28,2.13-1.57,3.27-3.35,13.02-13.96,16.38-26.28,19.25,1.45-9.97,2.72-19.52,4.32-29.03.26-1.55,1.73-3.16,3.05-4.25,45.7-37.95,65.94-87.61,67.31-145.96.02-1,.15-1.98.24-3.47h221.53Z"/><path class="cls-2" d="M773.29,989.67c-12.42,7.08-23.04,14.19-30.01,26.83,8.7.96,16.19,3.4,23.94-1.79,8.01-5.37,17.18-8.26,27.05-6.81,3.19.47,6.21,2.11,9.23,3.96-8.73,2.27-17.71,3.1-23.51,11.44,12.94,7.52,26.67,14.02,32.09,29.23,1.34,3.77,1.46,7.98,1.55,12.13-25.16-24.38-56.2-28.08-88.35-26.56-31.09,1.47-59.55,12.36-86.52,27.42-2.94,1.64-4.69,3.42-4.98,7.37-.67,9.17-6.04,12.09-14.76,9.31-2.72-.87-5.86-.3-8.71-.89-3.32-.68-7.42-1-9.57-3.11-3.3-3.26-3.42-7.91-.89-12.35,2.03-3.58,3.79-7.34,5.41-11.13,2.4-5.63,8.56-8.17,14.64-5.81,6.59,2.56,8.81,1.13,11.66-5.57,5.11-12.04,9.99-24.28,16.38-35.65,5.88-10.47,15.32-17.65,27.34-20.68,2.03-.51,4.15-.66,7.57-1.18-15.45,14.28-25.89,29.81-28.77,50.14,12.03-4.01,21.76-8.83,27.74-20.89,9.16-18.46,24.19-30.71,45.55-33.23,4.5-.53,9.12-.08,13.7-.08-8.64,5.72-17.09,10.7-24.83,16.6-7.73,5.9-14.49,12.92-17.99,22.65,7.56-1.05,14.96-1.95,22.29-3.2,1.55-.26,3.06-1.64,4.26-2.84,5.87-5.85,11.22-12.3,17.53-17.6,8.48-7.11,18.43-10.27,30.96-7.69Z"/><path class="cls-2" d="M650.07,1090.99c-8.99,12.05-16.43,23.25-15.61,38.17,4.94-.8,8.07-3.02,9.91-7.59,4.4-10.91,11.01-20.41,20.99-26.79,5.01-3.21,11.03-4.85,17.12-6.29-8.81,8.67-18.15,16.42-19.82,30.65,6.08-.99,11.39-.66,15.07-6.44,3.12-4.89,7.06-9.38,11.2-13.49,6.04-5.99,13.4-8.9,23.24-7.03-8.04,5.31-15.35,10.45-18.53,20.48,5.88.02,10.93,1.14,15.93-2.29,5.83-3.99,12.25-6.81,20.64-6.05-4.58,3.8-8.47,7.03-12.92,10.73,12.6,8.03,25.74,14.21,30.29,29.63-4.88-2.72-9.23-5.15-13.59-7.57-18.14-10.05-37.37-12.19-56.82-5.55-16.57,5.66-32.61,12.88-48.72,19.8-2.06.88-3.76,3.92-4.49,6.3-2.19,7.18-7.72,10.04-14.34,7-1.42-.65-3.08-.74-4.55-1.3-2.41-.92-6.42-1.62-6.78-3.12-.81-3.35-.07-7.21.63-10.74.4-2.04,2.23-3.75,2.97-5.77,1.95-5.32,5.32-8.24,11.1-6.44,3.81,1.18,4.54-.5,4.99-3.68,1.58-11.08,3.86-21.95,11.5-30.77,5.09-5.87,10.8-10.79,20.57-11.87Z"/><path class="cls-1" d="M719.94,755.68c-.06,41.86-11.35,79.87-40.36,111.21-24.56,26.54-55.41,41.63-90.91,46.9-45.15,6.72-87.09-2.08-124.2-29.24-34.89-25.53-53.38-61.01-59.23-103.31-1.46-10.57-1.83-21.36-1.86-32.03-.15-81.52-.09-163.04-.09-244.56v-9.2h316.68v6.56c0,84.55.07,169.1-.04,253.66Z"/><path class="cls-2" d="M487.66,632.62c-3.43.71-5.74,1.41-8.08,1.56-1.22.08-3.19-.49-3.59-1.34-.6-1.28-.76-3.56,0-4.55,3.05-3.94,6.43-7.65,9.9-11.24,2.52-2.61,5.43-4.84,8.06-7.36,3.34-3.19,6.99-4.3,11.62-3.02,2.32.64,4.96.11,7.46.11.21-.6.42-1.2.62-1.8-2.01-1.41-4.13-2.69-5.98-4.29-1.24-1.07-3.19-2.94-2.9-3.85.59-1.87,2.19-3.75,3.89-4.85,1.39-.9,3.5-.72,5.3-.92,6.22-.7,12.44-1.36,18.9-2.07-3.09,6.36,3.15,9.24,7.51,13.08,12.98,11.43,16.88,26.62,17.77,43.01.25,4.55.04,9.12.69,13.65,4.15-16.66,4.44-33.08-4.88-48.27-3.45-5.63-8.14-10.52-12.47-15.58-3.07-3.58-1.99-10.93,2.39-12.6,1.05-.4,4.03,1.04,4.03,1.62-.06,7.57,5.28,5.81,9.41,5.4,4.2-.42,8.32-1.65,12.51-2.32,1.41-.22,2.92.2,4.39.33l.4,1.63c-1.36.7-2.85,1.22-4.06,2.13-1.74,1.31-3.27,2.9-4.89,4.37,2.05.51,4.16,1.61,6.15,1.43,5.42-.51,10.78-1.66,16.18-2.34,1.84-.23,3.76.15,6.59.3-4.06,8.43-14.5,2.39-18.18,10.24,2.1.64,3.89,1.19,5.67,1.74-.47,7.91.47,8.84,8.83,7.87,2.78-.32,5.46-1.6,8.24-1.86,1.39-.13,2.91,1.03,4.37,1.61-.95,1.31-1.63,3.17-2.92,3.82-2.67,1.36-5.88,1.71-8.46,3.2-1.83,1.05-2.97,3.29-4.41,5,1.92,1.39,3.67,3.42,5.82,4.02,3.47.96,7.26.7,10.78,1.52,1.42.33,2.48,2.17,3.7,3.32-1.25,1.13-2.31,2.78-3.77,3.28-3.2,1.11-6.6,1.63-9.9,2.46-.28.07-.43.64-1.01,1.55,2.8.42,5.44.48,7.81,1.31,1.4.49,2.37,2.18,3.54,3.34-1.31.67-2.56,1.74-3.93,1.94-4.81.7-9.66,1.09-14.49,1.6-.02.59-.03,1.18-.05,1.78,1.45.78,2.91,1.57,4.71,2.54-.71,1.98-1.35,3.78-2.45,6.83,3.73.33,7.01.36,10.16,1.01,1.62.33,3.01,1.76,4.5,2.69-1.43.8-2.8,2.16-4.29,2.3-3.57.34-7.2.11-12.3.11,2.42,2.98,4.06,5,6.93,8.53-3.91.46-6.79,1.3-9.54,1-4.05-.44-6.37.31-7.57,4.71-.53,1.94-3.3,3.32-5.17,4.81-1.6,1.28-4.57,2.17-4.78,3.55-.29,1.94.8,5.11,2.37,6.14,12.74,8.43,26.18,15.95,41.98,15.27,14.16-.61,27.48.29,38.99,9.62,1.22.99,2.81,1.85,4.32,2.06,4.41.62,9.44,1.55,11.83-3.46,2.19-4.6-.9-8.06-4.24-10.97-1.37-1.19-2.8-2.34-4.33-3.33-5.7-3.68-8.3-8.55-8.48-15.63-.15-5.91-2.51-11.74-3.73-17.64-.55-2.67-1.04-5.45-.85-8.13.06-.78,3.21-2.35,3.8-1.93,3.94,2.77,5.9-.18,8.19-2.37.43-.41.89-.91,1.08-1.45,4.98-14.31,16.44-17.49,29.83-17.47,1.18,0,2.37-.4,3.54-.71.34-.09.61-.49.71-.57-.29-3.51-1.36-7.04-.61-10.13.67-2.76,3.22-5.15,5.23-7.44.42-.48,2.52-.21,3.14.42.58.59.72,2.51.2,3.14-3.22,3.91-2.08,7.65-.54,11.85,2.17,5.92.8,7.77-5.45,9.44-4.29,1.14-8.68,2.13-12.74,3.85-4.81,2.05-8.41,5.43-8.19,13.18,3.05-1.85,5.21-3.17,7.37-4.47,3.25-1.96,6.39-4.19,9.84-5.68,1.05-.46,2.99,1.13,4.52,1.78-.8,1.23-1.43,2.63-2.44,3.64-2.13,2.13-4.47,4.06-6.72,6.07.39.58.79,1.17,1.18,1.75,4.93-2.21,9.86-4.42,14.79-6.63.39.33.78.66,1.17,1-1.58,3.39-3.17,6.77-4.74,10.14,1.04.51,1.38.79,1.74.84,2.18.26,4.38.46,6.57.68-1.14,2.23-2.14,4.56-3.47,6.68-2.28,3.64-4.54,7.33-7.23,10.66-2.55,3.16-5.64,5.9-8.49,8.82.31.47.61.94.92,1.41,5.03-2.25,10.06-4.51,15.09-6.76.45.42.91.84,1.36,1.26-.94,3.57-1.88,7.15-2.89,10.97,1.66.65,3.48,1.37,4.7,1.85,2.65,9.91-4.11,13.52-10.99,16.42.56,1.28.62,1.79.9,1.98,2.61,1.79,7.14,1.93,6.21,6.81-.96,5.05-5.2,7.51-9.31,7.08-7.89-.84-15.63-3.13-23.43-4.86-1.83-.4-3.63-.94-5.45-1.42.03,2.03-.51,4.28.17,6.05,3.05,7.92,2.32,15.51-1.62,22.8-2.59,4.79-5.58,9.38-8.52,13.97-5.06,7.9-5.54,15.82-.42,23.88,1.3,2.05,2.41,4.22,3.78,6.22q7.26,10.65-3,18.99c-7.54,6.17-12.98,13.71-15.71,23.23-.64,2.24-2.53,4.65-4.53,5.85-3.24,1.94-6.96,3.2-10.62,4.27-4.65,1.37-7.72,3.02-5.58,8.87.62,1.7-.44,5.39-1.86,6.2-4.17,2.38-8.9,3.77-14.1,4.71,1.46-9.41,1.74-18.65,10.13-24.55,11.45-8.05,20.08-18.63,27.39-30.41,3.43-5.52,2.47-12.14-3-15.35-7.91-4.64-16.15-8.7-24.67-13.24-3.65,3.1-2.85,8-2.12,12.4,1.12,6.81-1.41,10.37-7.75,12.76-10.96,4.14-21.79,8.56-29.21,18.65-1.51,2.05-5.72,2.57-8.79,2.91-5.34.59-9.59,1.22-8.57,8.49.63,4.46-10.87,10.76-14.47,8.1-1.06-.78-1.54-3.23-1.31-4.77,1.64-11.11,13.3-21.83,24.34-25.28,7.67-2.39,15.35-6.41,21.56-11.48,9.13-7.47,9.17-17.55,1.92-26.86-1-1.28-2-2.55-3.01-3.81-4.15-5.21-7.67-10.58-4.26-17-11.8-1.23-23.29-2-34.62-3.74-8.57-1.32-16.98-3.73-23.79-9.84-1.27-1.14-4.36-2.17-5.27-1.49-8.43,6.34-17.51,3.23-26.33,2.04-5.98-.8-11.85-2.52-17.73-3.95-6.42-1.56-9.29.34-9.62,6.79-.21,4.19-.19,8.4-.14,12.6.01.93.31,2.28.96,2.72,5.92,4.03,5.12,10.09,4.95,15.92-.14,4.77.82,7.8,6.8,7.18,1.59-.17,3.51,2.76,5.26,4.29.11.1.12.42.05.59-1.56,3.92-3.14,7.84-4.71,11.76-3.86-2.6-8.15-4.76-11.47-7.92-3.23-3.07-5.95-6.93-8.01-10.89-1.87-3.6-3.76-7.88-3.54-11.75.66-11.62.31-22.9-3.26-34.14-2.09-6.57,1.14-10.12,8.06-11.11,9.35-1.35,18.66-2.91,28.4-4.45-3.8-6.73-3.8-6.27-9.7-6.3-2.28,0-5.4-2.12-6.64-4.17-2.69-4.44-4.62-9.39-6.47-14.28-2.49-6.59-7.72-10.83-12.8-9.87-5.73,1.07-12.58,8.95-11.61,14.63.82,4.81-1.08,7.85-4.11,10.66-4.46,4.15-6.35,8.46-3.32,14.53.8,1.6-.36,5.6-1.88,6.62-3.35,2.26-7.51,3.33-11.35,4.89-.49-4.55-2.02-9.29-1.21-13.59,1.15-6.16,3.93-12.03,6.16-17.97,1.2-3.18,2.27-6.54,4.17-9.28,5.97-8.65,12.18-17.14,18.55-25.5,4.45-5.84,6.52-5.79,12.49-1.26,4.97,3.77,9.9,7.7,15.3,10.76,5.01,2.84,7.25,1.45,8.83-4.05.11-.39.32-.78.31-1.17-.17-15.35,8.81-25.81,18.78-35.95,3.77-3.83,7.03-8.37,9.68-13.06,3.2-5.65,1.6-8.08-4.92-7.15-3.66.52-7.1,3.05-10.47,4.98-1.32.76-1.95,2.94-3.27,3.41-1.89.67-4.13.37-6.22.49,0-1.66-.14-3.34.06-4.98.14-1.16.72-2.27,1.45-4.39Z"/><path class="cls-2" d="M531.63,573.32c-2.95,13.61-3.91,14.46-15.07,12.68,5.27-4.43,9.49-7.99,15.07-12.68Z"/><path class="cls-2" d="M690.19,561.99v-38.03c-3.53-.2-6.48-.36-9.85-.55v-7.57h28.59v7.56c-3.1.14-6.06.28-9.75.45v38.15h-8.99Z"/><path class="cls-2" d="M674.9,536.4c5.24-6.63,3.78-17.99-4.35-19.66-6.69-1.38-13.79-.85-20.59-1.15v45.77h9.15v-18.87c5.82-1.43,8.16.98,8.58,5.99.36,4.32.79,8.65,1.2,13.06h9.45c-1.13-8.25-2.2-16.08-3.44-25.15ZM668.07,531.11c-1.98,2.13-5.3,3.01-9.39,5.1v-14.12c3.39.86,6.72.94,8.92,2.55,1.21.9,1.54,5.32.47,6.46Z"/><path class="cls-2" d="M634.05,519.65c-1.02-4.41-3.71-3.84-6.69-3.94-3.18-.11-5.69-.06-6.64,4.11-2.2,9.6-4.98,19.07-7.48,28.61-1.09,4.2-2.07,8.45-3.28,13.45,4.83-.51,10.07,2.26,10.81-4.96.44-4.3,3.02-4.8,6.71-4.86,3.95-.07,6.07,1.13,6.41,5.21.11,1.32.8,2.6,1.18,3.78h9.51c-3.63-14.12-7.35-27.69-10.52-41.4ZM623.74,543.14c.94-4.7,1.86-9.27,2.78-13.84l1.38.07c1.03,4.4,2.08,8.81,3.24,13.76h-7.41Z"/><path class="cls-2" d="M605.25,528.74h-7.21c-.13-.12-.59-.32-.67-.62-.95-3.44-1.15-7.81-6.4-6.97-4.75.76-4.84,4.91-4.95,8.51-.16,5.24-.11,10.5.17,15.73.23,4.32.96,9.5,6.54,8.96,5.39-.52,4.64-5.58,4.49-7.69-2.75-3.51-4.48-5.73-6.21-7.94.43-.49.86-.99,1.29-1.48h13.45v23.72c-5.65.44-11.33,1.74-16.73,1-3.45-.47-8.15-3.24-9.4-6.21-4.96-11.7-5.33-23.96.4-35.62,3.05-6.2,10.28-8.11,17.45-5.72,5.43,1.81,8.39,7.07,7.81,14.32Z"/><path class="cls-2" d="M565.62,561.6h-8.69v-37.6c-3.85-.26-6.98-.46-10.37-.69v-7.6h28.84v7.6c-3.16.2-6.26.39-9.77.61v37.68Z"/><path class="cls-2" d="M532.62,561.44h-9.45v-37.72c-3.42-.19-6.19-.34-9.43-.52v-7.42h28.39v7.35c-2.95.17-5.9.34-9.51.55v37.75Z"/><path class="cls-2" d="M500.14,515.55h8.16c0,12.42.52,24.66-.22,36.83-.37,6.11-7.45,10.31-14.02,10.04-7.04-.29-12.83-4.86-13.14-11.83-.52-11.45-.14-22.94-.14-34.83h8.79c0,8.88,0,17.72,0,26.55,0,2.02-.62,4.38.22,5.98,1.12,2.14,3.38,3.69,5.15,5.49,1.65-1.92,4.59-3.75,4.71-5.76.52-8.86.22-17.77.24-26.66,0-1.78.15-3.57.25-5.82Z"/><path class="cls-2" d="M467.2,561.67h-8.98v-37.84c-3.65-.25-6.58-.46-9.93-.69v-7.42h28.71v7.43c-3.3.19-6.27.36-9.8.56v37.97Z"/><path class="cls-2" d="M415.6,547.12h9.41c.34,1.05.42,2.61,1.23,3.48,1.55,1.65,3.41,3.79,5.35,4.02,1.55.19,4.54-1.9,4.85-3.41.45-2.15-.22-5.53-1.75-6.86-2.64-2.31-6.25-3.57-9.54-5.06-5.81-2.62-7.9-7.34-7.37-13.28.58-6.5,4.83-10.88,11.02-12,6.18-1.12,12.94,1.48,15.21,6.31,1.02,2.18,1.12,4.8,1.67,7.42-4.42.77-7.37,1.38-8.9-3.36-1.1-3.39-4.35-4.14-7.48-2.03-3.45,2.33-3.48,5.71-.77,8.24,2.09,1.95,5.17,2.98,7.96,4.01,5.96,2.2,9.34,6.28,9.68,12.61.35,6.54-3.11,12.05-9.16,14.33-5.92,2.22-11.97,1.82-16.33-2.85-2.45-2.62-3.13-6.89-5.09-11.58Z"/><path class="cls-1" d="M1006.5,170.4c-3.79,41.67-7.46,82.07-11.15,122.66-288.91-82.85-578.45-80.55-869.62-11.24-3.32-39.67-6.66-79.45-10.09-120.56,297.78-73.64,594.32-76.26,890.86,9.14Z"/><path class="cls-2" d="M890.7,247.62c2.56-28.64,5.08-56.93,7.66-85.73,29.78,7.22,58.96,14.29,88.71,21.49-.65,6.64-1.26,12.97-1.97,20.19-22.03-5.28-43.54-10.43-65.58-15.71-.56,4.7-1.05,8.83-1.64,13.8,21.75,5.34,43.42,10.66,65.47,16.07-.56,5.66-1.09,11.03-1.7,17.11-21.66-5.14-42.99-10.2-64.94-15.41-.54,4.42-1.02,8.36-1.59,13.04,21.92,5.57,43.54,11.05,65.48,16.63-.59,6.39-1.13,12.35-1.77,19.25-29.57-6.96-58.54-13.77-88.15-20.74Z"/><path class="cls-2" d="M790.07,195.66c-.95,10.69-1.86,20.86-2.81,31.52-7.36-1.09-14.28-2.11-22.06-3.27,1.7-28.06,3.37-55.75,5.09-84.09,7.67,1.11,14.78,2.13,22.58,3.26-.57,9.18-.85,18.01-1.79,26.77-.45,4.18.75,5.78,4.79,6.4,20.57,3.15,41.11,6.49,62.53,9.9.83-10.5,1.65-20.86,2.53-31.99,7.64,1.4,14.9,2.74,23,4.22-2.29,27.93-4.56,55.77-6.9,84.33-7.77-1.39-14.84-2.65-22.52-4.02.77-10.61,1.52-20.81,2.33-31.92-22.06-3.67-44.04-7.33-66.75-11.11Z"/><path class="cls-2" d="M750.38,198.4c-.45,7.39-.87,14.21-1.34,21.87-11.86-.97-23.48-1.83-35.09-2.9-16.31-1.5-32.6-3.11-48.89-4.78-3.6-.37-7.25-.86-10.69-1.9-6.74-2.03-10.91-7.03-10.72-13.86.49-17.33,1.27-34.69,2.92-51.95.94-9.81,7.35-15.01,17.53-14.71,16.15.47,32.29,1.67,48.39,3.07,12.08,1.05,24.07,3.02,36.13,4.3,3.68.39,4.86,1.71,4.43,5.38-.65,5.53-.81,11.12-1.22,17.3-14.86-1.74-28.86-3.49-42.89-4.97-10.85-1.15-21.73-2.14-32.62-2.85-7.42-.48-9.62,1.41-10.26,8.56-.6,6.63-.8,13.3-.91,19.96-.12,7.41,1.68,9.33,9,10.03,22.33,2.16,44.67,4.26,67.01,6.4,2.82.27,5.62.62,9.22,1.03Z"/><path class="cls-2" d="M512.99,209.21v-21.35c2.34-.1,4.48-.28,6.62-.28,24.69-.02,49.39.09,74.08-.19,2.37-.03,6.38-2.12,6.74-3.85.98-4.74-3.07-5.26-6.73-5.26-17.61-.02-35.22.02-52.83-.03-4.45-.01-8.92.06-13.33-.44-8.91-1-14.93-6.03-16.12-14.72-.92-6.72-.94-13.78,0-20.5,1.35-9.75,8-15.48,18.73-15.55,31.36-.23,62.73.17,94.1.35.56,0,1.13.36,1.99.65v20.26c-3.8,0-7.73.02-11.66,0-24.89-.12-49.78-.32-74.67-.27-2.06,0-5,1.06-6.01,2.61-2.18,3.38.48,6.83,5.12,6.92,7.89.14,15.79.05,23.68.05,14.17,0,28.34-.03,42.51,0,14.99.04,21.84,6.68,22.37,21.7.13,3.63.06,7.28-.15,10.91-.77,13.2-6.62,18.85-20.01,18.94-19.63.13-39.27.04-58.9.04-11.72,0-23.44,0-35.52,0Z"/><path class="cls-2" d="M498.66,209.18c-2.17-13.95,3.26-28.62-7.2-41.07,5.92-6.39,5.75-14.37,5.25-22.25-.84-13.36-8.66-19.93-22.07-18.95-21.78,1.6-43.56,3.21-65.34,4.87-8.98.68-17.94,1.52-27.2,2.3,1.47,27.84,2.9,55.01,4.37,82.84,7.2-.72,13.75-1.36,20.27-2.02v-31.39c20.72-1.53,41.28-3.17,61.84-4.49,5.45-.35,8.3,2.93,8.39,8.8.11,7.37.02,14.75.02,22.55,7.93-.43,14.35-.78,21.66-1.17ZM469.21,152.87c-.29,2.33-3.04,6.07-4.94,6.23-19.68,1.71-39.41,2.82-59.68,4.13-.27-3.9-.49-7.22-.75-11.1,15.79-1.23,31.05-2.42,46.31-3.61,4.24-.33,8.47-.68,12.69-1.01,3.9-.29,6.84,1.62,6.38,5.36Z"/><path class="cls-2" d="M365.58,153.42c-.85-12.99-8.79-18.93-21.91-17.01-24.99,3.64-49.98,7.42-74.88,11.65-10.01,1.69-15.03,7.59-14.74,17.72.47,16.52,1.48,33.07,3.26,49.49,1.28,11.9,8.78,16.8,20.88,15.46,10.06-1.13,20.15-1.96,30.15-3.43,14.8-2.19,29.56-4.63,44.27-7.35,8.65-1.6,14.07-6.98,14.74-13.99.63-6.63.83-13.31,1.36-22.45-.9-8.42-2.42-19.23-3.12-30.1ZM330.82,200.85c-14.94,2.34-30.01,3.92-45,5.98-5.61.77-8.27-1.28-8.56-7.07-.38-7.24-1.3-14.46-1.92-21.68-.38-4.48,1.64-7.65,6.1-8.33,18.94-2.89,37.91-5.61,56.89-8.26,3.88-.55,6.06,1.49,6.43,5.44.46,4.81.97,9.62,1.47,14.43.94,15.96.36,17.04-15.4,19.5Z"/><path class="cls-2" d="M238.5,173.85c-2.62-13.14-11.89-18.21-24.9-15.17-25.19,5.89-50.35,11.92-75.55,17.75-3.29.77-4.69,1.79-4.32,5.6,1.68,17.09,2.95,34.23,4.42,51.35.83,9.6,1.79,19.18,2.72,29.3,7.14-1.88,13.73-3.62,20.92-5.53-.9-9.65-1.49-18.72-2.71-27.71-.53-3.92.53-5.19,4.3-6.09,20.03-4.82,39.97-10.08,60-14.93,7.45-1.8,12.83-6.18,14.33-13.24,1.47-6.9,2.15-14.52.79-21.33ZM213.85,191.51c-19.01,4.65-37.99,9.43-58.04,14.43-.49-4.26-.89-7.8-1.37-12.09,7.56-1.86,14.93-3.66,22.29-5.45,11.37-2.77,22.75-5.5,34.12-8.3,3.45-.85,7.12-1.98,8.31,2.87,1.06,4.35-.56,7.37-5.31,8.54Z"/></g></svg>