<?xml version="1.0" encoding="UTF-8"?><svg id="Capa_2" xmlns="http://www.w3.org/2000/svg" viewBox="0 0 208.55 41.28"><defs><style>.cls-1{fill:#e6e7e8;fill-rule:evenodd;}</style></defs><g id="Base"><path class="cls-1" d="M30.92,3.81c4.5,2.91,10.96,11.98,12.7,17-1.74,5.03-8.2,14.09-12.7,17.01V3.81h0Z"/><path class="cls-1" d="M21.32,10.26c2.34,0,5.34.93,7.69,2.61V2.64c-2.35-1.46-5.19-2.32-8.53-2.32C9.16.33,0,9.5,0,20.82s9.16,20.47,20.48,20.47c3.34,0,6.18-.83,8.53-2.29v-10.26c-2.35,1.68-5.35,2.64-7.69,2.64-6.37,0-11.05-4.66-11.05-10.56s4.68-10.55,11.05-10.55h0Z"/><path class="cls-1" d="M173.56,18.08v20.92h7.15v-20.51c0-2.87,2.35-5.18,5.18-5.18h3.31v-6.84h-3.67c-6.47.06-11.71,5.15-11.97,11.61h0Z"/><path class="cls-1" d="M205.24,32.14c-2.84,0-5.15-2.34-5.16-5.18v-13.68h7.92v-6.84h-7.92V0h-7.19v27.35c.26,6.47,5.55,11.54,11.99,11.62,0,0,3.67,0,3.67,0v-6.83h-3.3Z"/><path class="cls-1" d="M119.23,5.83c-3.56,0-6.94,1.63-9.16,4.35-2.21-2.72-5.62-4.35-9.19-4.35-6.25,0-11.42,4.88-11.75,11.12v22.04s7.2,0,7.2,0v-21.15c0-2.96,2.22-5.25,5.06-5.25,2.34,0,5.09,1.59,5.09,6.09v20.31h7.18v-20.33c0-4.17,2.62-6.07,5.06-6.07,3.02,0,5.08,2.15,5.08,5.25v21.15h7.18v-22.03c-.37-6.26-5.51-11.14-11.75-11.14h0Z"/><path class="cls-1" d="M152.07,5.9c-9.29,0-16.58,7.35-16.58,16.79s7.03,16.98,16.71,16.98c3.76,0,7.13-1.39,9.26-3.74v3.06h7.17v-16.17c0-9.82-6.99-16.92-16.56-16.92h0ZM161.87,22.8c0,5.86-3.98,9.98-9.7,9.98-5.38,0-9.74-4.5-9.74-9.98s4.36-9.97,9.74-9.97,9.7,4.49,9.7,9.97h0Z"/><path class="cls-1" d="M72.39,19.54c-6.95-.81-8.34-2.05-8.34-3.95,0-3,4.55-3.39,6.55-3.39,3.44,0,6.84,1.35,9.26,3.43l4.58-4.57c-1.83-1.51-6.21-5.16-14.9-5.16s-13.2,5.21-13.2,10.12c0,5.82,4.51,9.14,13.81,10.15,3.91.43,6.86.97,6.86,3.69,0,5.02-12.57,4.52-17.61-1.07l-4.99,5.02c.47.54,6.32,5.93,15.1,5.93,10.48,0,15.23-5.14,15.23-9.94,0-6.03-3.91-9.29-12.34-10.26h0Z"/></g></svg>