<?xml version="1.0" encoding="UTF-8"?><svg id="Capa_2" xmlns="http://www.w3.org/2000/svg" viewBox="0 0 243.49 33.5"><defs><style>.cls-1{fill:#e6e7e8;fill-rule:evenodd;}</style></defs><g id="Base"><polygon class="cls-1" points="0 1.44 0 5.88 7.29 5.88 21.56 32.65 39.12 32.65 53.39 5.84 60.68 5.79 60.7 1.44 38.88 1.44 38.88 5.81 44.69 5.81 34.62 24.83 23.72 5.87 31.67 5.84 31.65 1.44 0 1.44 0 1.44"/><polygon class="cls-1" points="140.74 1.44 140.74 5.88 148.03 5.88 162.3 32.65 179.86 32.65 194.13 5.84 201.42 5.79 201.43 1.44 179.62 1.44 179.62 5.81 185.43 5.81 175.35 24.83 164.45 5.87 172.4 5.84 172.39 1.44 140.74 1.44 140.74 1.44"/><path class="cls-1" d="M104.86,1.44v4.45h7.29v21.85s-7.67,0-7.67,0v4.87l7.69.04h36.41v-14.53h-4.74c-.26,7.69-6.93,9.63-9.74,9.63-2.58,0-7.57-.01-7.57-.01V5.87l7.18-.04V1.44h-28.84Z"/><path class="cls-1" d="M80.31.54c-12.39,0-22.44,7.38-22.44,16.48s10.05,16.48,22.44,16.48,22.44-7.38,22.44-16.48S92.7.54,80.31.54h0ZM79.99,28.65c-4.37,0-7.91-5.23-7.91-11.69s3.54-11.7,7.91-11.7,7.91,5.24,7.91,11.7-3.54,11.69-7.91,11.69h0Z"/><path class="cls-1" d="M221.05,0c-12.4,0-22.44,7.5-22.44,16.75s10.04,16.75,22.44,16.75,22.44-7.5,22.44-16.75S233.44,0,221.05,0h0ZM220.72,28.57c-4.37,0-7.91-5.32-7.91-11.89s3.54-11.89,7.91-11.89,7.91,5.32,7.91,11.89-3.54,11.89-7.91,11.89h0Z"/></g></svg>